SplineFontDB: 3.2
FontName: FreeSansBoldOblique
FullName: FreeSans Bold Oblique
FamilyName: FreeSans
Weight: Bold
Copyright: Copyright 2002, 2003, 2005, 2008, 2009, 2010, 2012, 2020 GNU Freefont contributors.
Version: $Revision: 4253 $
ItalicAngle: -12
UnderlinePosition: -155
UnderlineWidth: 69
Ascent: 800
Descent: 200
InvalidEm: 0
LayerCount: 2
Layer: 0 0 "Back" 1
Layer: 1 0 "Fore" 0
FSType: 0
OS2Version: 4
OS2_WeightWidthSlopeOnly: 0
OS2_UseTypoMetrics: 1
CreationTime: 1203284335
ModificationTime: 1599674172
PfmFamily: 33
TTFWeight: 600
TTFWidth: 5
LineGap: 100
VLineGap: 0
Panose: 2 11 7 4 2 2 2 9 2 4
OS2TypoAscent: 0
OS2TypoAOffset: 1
OS2TypoDescent: 0
OS2TypoDOffset: 1
OS2TypoLinegap: 100
OS2WinAscent: 0
OS2WinAOffset: 1
OS2WinDescent: 0
OS2WinDOffset: 1
HheadAscent: 0
HheadAOffset: 1
HheadDescent: 0
HheadDOffset: 1
OS2SubXSize: 650
OS2SubYSize: 666
OS2SubXOff: 0
OS2SubYOff: 200
OS2SupXSize: 650
OS2SupYSize: 666
OS2SupXOff: 0
OS2SupYOff: 390
OS2StrikeYSize: 49
OS2StrikeYPos: 258
OS2FamilyClass: 2053
OS2Vendor: 'GNU '
OS2CodePages: 600001bf.00000000
OS2UnicodeRanges: e4000eff.4240e5ff.08401020.00000004
Lookup: 2 0 0 "subst. i-ogonek with dotless-i+-ogonek" { "subst. i-ogonek with dotless-i+-ogonek"  } []
Lookup: 4 0 0 "ordinal symbols in Latin" { "ordinal symbols in Latin-3"  "ordinal symbols in Latin-2"  "ordinal symbols in Latin-1"  } []
Lookup: 1 0 0 "stretch1000" { "stretch1000-1"  } []
Lookup: 1 0 0 "stretch900" { "stretch900-1"  } []
Lookup: 1 0 0 "stretch700" { "stretch700-1"  } []
Lookup: 1 0 0 "stretch800" { "stretch800-1"  } []
Lookup: 1 0 0 "'locl' local forms in Greek-diacritic equivalents" { "'locl' local forms in Greek-diacritic equivalents-1"  } ['locl' ('grek' <'COP ' 'ELL ' 'PGR ' 'dflt' > ) ]
Lookup: 2 0 0 "'ccmp' glyph decomp. in Greek-caps w/iota" { "'ccmp' glyph decomp. in Greek-caps w/iota"  } ['ccmp' ('grek' <'COP ' 'ELL ' 'PGR ' 'dflt' > ) ]

StartChar: exclam
Encoding: 33 33 1
Width: 333
Flags: HMW
LayerCount: 2
Fore
SplineSet
417 726 m 1
 372 516 l 1
 265 207 l 1
 198 207 l 1
 222 516 l 1
 267 726 l 1
 417 726 l 1
293 146 m 1
 262 0 l 1
 112 0 l 1
 143 146 l 1
 293 146 l 1
EndSplineSet
Validated: 3073
EndChar

StartChar: numbersign
Encoding: 35 35 3
Width: 556
Flags: HMW
LayerCount: 2
Fore
SplineSet
138 -32 m 1
 33 -32 l 1
 116 172 l 1
 39 172 l 1
 60 272 l 1
 157 272 l 1
 219 424 l 1
 120 424 l 1
 142 524 l 1
 260 524 l 1
 331 697 l 1
 437 697 l 1
 365 524 l 1
 468 524 l 1
 539 697 l 1
 645 697 l 1
 573 524 l 1
 660 524 l 1
 639 424 l 1
 533 424 l 1
 471 272 l 1
 570 272 l 1
 549 172 l 1
 430 172 l 1
 346 -32 l 1
 241 -32 l 1
 324 172 l 1
 222 172 l 1
 138 -32 l 1
262 272 m 1
 365 272 l 1
 427 424 l 1
 325 424 l 1
 262 272 l 1
EndSplineSet
Validated: 3073
EndChar

StartChar: dollar
Encoding: 36 36 4
Width: 556
Flags: HMW
LayerCount: 2
Fore
SplineSet
461 709 m 1
 531 703 628 678 628 547 c 0
 628 532 627 520 623 498 c 1
 495 498 l 1
 497 517 498 526 498 538 c 0
 498 576 476 602 440 608 c 1
 397 407 l 1
 482 381 573 339 573 237 c 0
 573 172 539 4 306 -21 c 1
 284 -126 l 1
 216 -126 l 1
 239 -21 l 1
 123 -9 59 51 59 148 c 0
 59 166 61 182 67 207 c 1
 197 207 l 1
 196 188 196 181 196 174 c 0
 196 123 217 95 261 86 c 1
 307 299 l 1
 196 327 142 384 142 475 c 0
 142 531 176 688 394 709 c 1
 405 763 l 1
 473 763 l 1
 461 709 l 1
372 608 m 1
 280 590 272 522 272 501 c 0
 272 468 293 443 334 427 c 1
 372 608 l 1
371 282 m 1
 329 86 l 1
 393 101 430 142 430 198 c 0
 430 238 410 266 371 282 c 1
EndSplineSet
Validated: 3073
EndChar

StartChar: percent
Encoding: 37 37 5
Width: 889
Flags: HMW
LayerCount: 2
Fore
SplineSet
756 709 m 1
 833 709 l 1
 282 -20 l 1
 206 -20 l 1
 756 709 l 1
352 701 m 0
 441 701 505 640 505 557 c 0
 505 442 398 337 280 337 c 0
 194 337 129 399 129 482 c 0
 129 595 237 701 352 701 c 0
331 603 m 0
 278 603 229 554 229 501 c 0
 229 464 261 435 302 435 c 0
 356 435 405 483 405 536 c 0
 405 574 373 603 331 603 c 0
750 344 m 0
 839 344 903 283 903 200 c 0
 903 85 796 -20 678 -20 c 0
 592 -20 527 42 527 125 c 0
 527 238 635 344 750 344 c 0
729 246 m 0
 676 246 627 197 627 144 c 0
 627 107 659 78 700 78 c 0
 754 78 803 126 803 179 c 0
 803 217 771 246 729 246 c 0
EndSplineSet
Validated: 3073
EndChar

StartChar: ampersand
Encoding: 38 38 6
Width: 722
Flags: HMW
LayerCount: 2
Fore
SplineSet
624 605 m 0
 624 477 505 415 465 392 c 1
 547 255 l 1
 581 286 596 316 607 373 c 1
 720 373 l 1
 709 300 661 213 602 160 c 1
 696 0 l 1
 536 0 l 1
 499 60 l 1
 407 -6 364 -23 287 -23 c 0
 163 -23 89 44 89 156 c 0
 89 257 145 330 299 401 c 1
 263 452 246 492 246 523 c 0
 246 630 351 723 471 723 c 0
 562 723 624 676 624 605 c 0
347 319 m 1
 295 290 l 2
 246 262 226 233 226 187 c 0
 226 135 266 93 315 93 c 0
 349 93 380 107 446 152 c 1
 347 319 l 1
419 470 m 1
 471 497 499 533 499 574 c 0
 499 599 480 615 448 615 c 0
 410 615 383 589 383 552 c 0
 383 534 388 524 419 470 c 1
EndSplineSet
Validated: 3073
EndChar

StartChar: quotesingle
Encoding: 39 39 7
Width: 238
Flags: HMW
LayerCount: 2
Fore
SplineSet
343 729 m 1
 315 599 l 1
 245 470 l 1
 190 470 l 1
 177 599 l 1
 205 729 l 1
 343 729 l 1
EndSplineSet
Validated: 3073
EndChar

StartChar: parenleft
Encoding: 40 40 8
Width: 333
Flags: HMW
LayerCount: 2
Fore
SplineSet
458 729 m 1
 306 521 203 343 203 112 c 0
 203 20 217 -56 261 -200 c 1
 161 -200 l 1
 110 -83 84 25 84 122 c 0
 84 324 168 510 358 729 c 1
 458 729 l 1
EndSplineSet
Validated: 3073
Substitution2: "'subs' subscript-punct" parenleftinferior
Substitution2: "'sups' superscript-punct" parenleftsuperior
Substitution2: "'numr' numerators-1" parenleftsuperior
Substitution2: "'dnom' denominators-1" parenleftinferior
EndChar

StartChar: asterisk
Encoding: 42 42 10
Width: 389
Flags: HMW
LayerCount: 2
Fore
SplineSet
246 544 m 1
 145 580 l 1
 182 649 l 1
 283 613 l 1
 307 729 l 1
 379 729 l 1
 354 613 l 1
 471 649 l 1
 478 579 l 1
 362 544 l 1
 409 450 l 1
 342 407 l 1
 295 501 l 1
 208 407 l 1
 159 450 l 1
 246 544 l 1
EndSplineSet
Validated: 3073
EndChar

StartChar: plus
Encoding: 43 43 11
Width: 584
Flags: HMW
LayerCount: 2
Fore
SplineSet
596 292 m 1
 571 172 l 1
 388 172 l 1
 349 -10 l 1
 230 -10 l 1
 269 172 l 1
 87 172 l 1
 112 292 l 1
 294 292 l 1
 333 473 l 1
 452 473 l 1
 413 292 l 1
 596 292 l 1
EndSplineSet
Validated: 3073
Substitution2: "'numr' numerators-1" plussuperior
Substitution2: "'dnom' denominators-1" plusinferior
Substitution2: "'subs' subscript-numeric" plusinferior
Substitution2: "'sups' superscript-numeric" plussuperior
EndChar

StartChar: comma
Encoding: 44 44 12
Width: 278
Flags: HMW
LayerCount: 2
Fore
SplineSet
95 146 m 1
 245 146 l 1
 216 9 l 1
 197 -101 137 -158 27 -174 c 1
 39 -118 l 1
 101 -107 137 -68 150 0 c 1
 64 0 l 1
 95 146 l 1
EndSplineSet
Validated: 3073
Substitution2: "'subs' subscript-punct" sub.comma
Substitution2: "'sups' superscript-punct" sup.comma
Substitution2: "'numr' numerators-1" sup.comma
Substitution2: "'dnom' denominators-1" dnom_comma
EndChar

StartChar: hyphen
Encoding: 45 45 13
Width: 333
Flags: HMW
LayerCount: 2
Fore
SplineSet
371 342 m 1
 342 207 l 1
 70 207 l 1
 99 342 l 1
 371 342 l 1
EndSplineSet
Validated: 3073
EndChar

StartChar: period
Encoding: 46 46 14
Width: 278
Flags: HMW
LayerCount: 2
Fore
SplineSet
245 146 m 1
 214 0 l 1
 64 0 l 1
 95 146 l 1
 245 146 l 1
EndSplineSet
Validated: 3073
Substitution2: "'subs' subscript-punct" sub.period
Substitution2: "'sups' superscript-punct" sup.period
Substitution2: "'numr' numerators-1" sup.period
Substitution2: "'dnom' denominators-1" dnom_period
EndChar

StartChar: slash
Encoding: 47 47 15
Width: 333
Flags: HMW
LayerCount: 2
Fore
SplineSet
389 729 m 1
 476 729 l 1
 82 -24 l 1
 -5 -24 l 1
 389 729 l 1
EndSplineSet
Validated: 3073
EndChar

StartChar: zero
Encoding: 48 48 16
Width: 556
Flags: HMW
AnchorPoint: "middle" 347 358 basechar 0
LayerCount: 2
Fore
SplineSet
421 724 m 0
 541 724 614 649 614 526 c 0
 614 439 575 -23 271 -23 c 0
 153 -23 81 53 81 176 c 0
 81 261 121 724 421 724 c 0
394 612 m 0
 359 612 330 593 306 555 c 0
 273 502 224 280 224 183 c 0
 224 132 254 99 300 99 c 0
 359 99 393 138 421 237 c 0
 448 332 471 466 471 528 c 0
 471 579 441 612 394 612 c 0
EndSplineSet
Validated: 3073
Substitution2: "'numr' numerators-1" zerosuperior
Substitution2: "'dnom' denominators-1" dnom_zero
Substitution2: "'subs' subscript-numeric" zeroinferior
Substitution2: "'sups' superscript-numeric" zerosuperior
Substitution2: "'zero' slashed zero-1" zeroslashed
Substitution2: "'pnum' proportional-width numbers-2" fit.zero
EndChar

StartChar: one
Encoding: 49 49 17
Width: 556
Flags: HMW
AnchorPoint: "middle" 347 358 basechar 0
LayerCount: 2
Fore
SplineSet
342 489 m 1
 172 489 l 1
 192 582 l 1
 314 582 396 625 436 709 c 1
 529 709 l 1
 378 0 l 1
 238 0 l 1
 342 489 l 1
EndSplineSet
Validated: 3073
Substitution2: "'numr' numerators-1" onesuperior
Substitution2: "'dnom' denominators-1" dnom_one
Substitution2: "'subs' subscript-numeric" oneinferior
Substitution2: "'sups' superscript-numeric" onesuperior
Substitution2: "'pnum' proportional-width numbers-2" fit.one
EndChar

StartChar: two
Encoding: 50 50 18
Width: 556
Flags: HMW
AnchorPoint: "middle" 347 358 basechar 0
LayerCount: 2
Fore
SplineSet
628 552 m 0
 628 312 314 237 238 125 c 1
 538 125 l 1
 512 0 l 1
 30 0 l 1
 103 275 290 254 431 404 c 0
 465 438 485 486 485 532 c 0
 485 582 453 612 399 612 c 0
 330 612 285 559 272 462 c 1
 138 462 l 1
 164 630 266 724 421 724 c 0
 551 724 628 660 628 552 c 0
EndSplineSet
Validated: 3073
Substitution2: "'numr' numerators-1" twosuperior
Substitution2: "'dnom' denominators-1" dnom_two
Substitution2: "'subs' subscript-numeric" twoinferior
Substitution2: "'sups' superscript-numeric" twosuperior
Substitution2: "'pnum' proportional-width numbers-2" fit.two
EndChar

StartChar: three
Encoding: 51 51 19
Width: 556
Flags: HMW
AnchorPoint: "middle" 347 358 basechar 0
LayerCount: 2
Fore
SplineSet
422 230 m 0
 422 304 377 317 284 317 c 1
 304 411 l 1
 316 411 l 2
 406 411 465 463 465 542 c 0
 465 583 433 612 388 612 c 0
 291 612 278 515 271 486 c 1
 142 486 l 1
 173 649 259 724 413 724 c 0
 540 724 613 669 613 573 c 0
 613 494 573 429 493 380 c 1
 542 350 565 311 565 257 c 0
 565 100 453 -23 272 -23 c 0
 142 -23 67 41 67 151 c 0
 67 170 69 185 73 208 c 1
 209 208 l 1
 209 176 l 2
 210 127 243 99 300 99 c 0
 367 99 422 159 422 230 c 0
EndSplineSet
Validated: 3073
Substitution2: "'numr' numerators-1" threesuperior
Substitution2: "'dnom' denominators-1" dnom_three
Substitution2: "'subs' subscript-numeric" threeinferior
Substitution2: "'sups' superscript-numeric" threesuperior
Substitution2: "'pnum' proportional-width numbers-2" fit.three
EndChar

StartChar: four
Encoding: 52 52 20
Width: 556
Flags: HMW
AnchorPoint: "middle" 347 358 basechar 0
LayerCount: 2
Fore
SplineSet
580 273 m 1
 555 157 l 1
 482 157 l 1
 448 0 l 1
 308 0 l 1
 342 157 l 1
 57 157 l 1
 82 275 l 1
 434 709 l 1
 599 709 l 1
 506 273 l 1
 580 273 l 1
366 273 m 1
 431 577 l 1
 182 273 l 1
 366 273 l 1
EndSplineSet
Validated: 3073
Substitution2: "'numr' numerators-1" foursuperior
Substitution2: "'dnom' denominators-1" dnom_four
Substitution2: "'subs' subscript-numeric" fourinferior
Substitution2: "'sups' superscript-numeric" foursuperior
Substitution2: "'pnum' proportional-width numbers-2" fit.four
EndChar

StartChar: five
Encoding: 53 53 21
Width: 556
Flags: HMW
AnchorPoint: "middle" 347 358 basechar 0
LayerCount: 2
Fore
SplineSet
572 300 m 0
 572 233 521 -23 259 -23 c 0
 139 -23 59 42 59 141 c 0
 59 154 60 165 64 185 c 1
 202 185 l 1
 201 176 200 168 200 163 c 0
 200 124 235 99 288 99 c 0
 369 99 429 175 429 276 c 0
 429 334 397 367 339 367 c 0
 297 367 260 348 238 314 c 1
 112 314 l 1
 258 709 l 1
 641 709 l 1
 614 584 l 1
 318 584 l 1
 264 436 l 1
 311 467 349 479 396 479 c 0
 505 479 572 410 572 300 c 0
EndSplineSet
Validated: 3073
Substitution2: "'numr' numerators-1" fivesuperior
Substitution2: "'dnom' denominators-1" dnom_five
Substitution2: "'subs' subscript-numeric" fiveinferior
Substitution2: "'sups' superscript-numeric" fivesuperior
Substitution2: "'pnum' proportional-width numbers-2" fit.five
EndChar

StartChar: six
Encoding: 54 54 22
Width: 556
Flags: HMW
AnchorPoint: "middle" 347 358 basechar 0
LayerCount: 2
Fore
SplineSet
85 171 m 0
 85 282 139 724 443 724 c 0
 556 724 625 666 625 571 c 0
 625 566 625 557 624 548 c 1
 494 548 l 1
 485 594 462 612 414 612 c 0
 327 612 297 547 260 411 c 1
 310 449 357 467 409 467 c 0
 514 467 577 404 577 300 c 0
 577 221 518 -23 284 -23 c 0
 163 -23 85 53 85 171 c 0
352 355 m 0
 278 355 215 278 215 188 c 0
 215 136 250 99 301 99 c 0
 374 99 434 176 434 269 c 0
 434 320 401 355 352 355 c 0
EndSplineSet
Validated: 3073
Substitution2: "'numr' numerators-1" sixsuperior
Substitution2: "'dnom' denominators-1" dnom_six
Substitution2: "'subs' subscript-numeric" sixinferior
Substitution2: "'sups' superscript-numeric" sixsuperior
Substitution2: "'pnum' proportional-width numbers-2" fit.six
EndChar

StartChar: seven
Encoding: 55 55 23
Width: 556
Flags: HMW
AnchorPoint: "middle" 347 358 basechar 0
LayerCount: 2
Fore
SplineSet
679 709 m 1
 656 599 l 1
 504 443 356 300 273 0 c 1
 131 0 l 1
 211 242 309 396 504 584 c 1
 151 584 l 1
 178 709 l 1
 679 709 l 1
EndSplineSet
Validated: 3073
Substitution2: "'numr' numerators-1" sevensuperior
Substitution2: "'dnom' denominators-1" dnom_seven
Substitution2: "'subs' subscript-numeric" seveninferior
Substitution2: "'sups' superscript-numeric" sevensuperior
Substitution2: "'pnum' proportional-width numbers-2" fit.seven
EndChar

StartChar: eight
Encoding: 56 56 24
Width: 556
Flags: HMW
AnchorPoint: "middle" 347 358 basechar 0
LayerCount: 2
Fore
SplineSet
620 570 m 0
 620 460 524 405 491 386 c 1
 552 349 575 313 575 253 c 0
 575 137 477 -23 276 -23 c 0
 143 -23 60 46 60 155 c 0
 60 302 180 365 221 386 c 1
 174 422 156 452 156 495 c 0
 156 620 277 724 422 724 c 0
 539 724 620 661 620 570 c 0
398 612 m 0
 331 612 278 563 278 500 c 0
 278 455 312 425 363 425 c 0
 433 425 490 476 490 540 c 0
 490 583 453 612 398 612 c 0
342 330 m 0
 264 330 203 264 203 180 c 0
 203 133 243 99 297 99 c 0
 376 99 432 161 432 247 c 0
 432 298 397 330 342 330 c 0
EndSplineSet
Validated: 3073
Substitution2: "'numr' numerators-1" eightsuperior
Substitution2: "'dnom' denominators-1" dnom_eight
Substitution2: "'subs' subscript-numeric" eightinferior
Substitution2: "'sups' superscript-numeric" eightsuperior
Substitution2: "'pnum' proportional-width numbers-2" fit.eight
EndChar

StartChar: nine
Encoding: 57 57 25
Width: 556
Flags: HMW
AnchorPoint: "middle" 339 358 basechar 0
LayerCount: 2
Fore
SplineSet
611 519 m 0
 611 417 557 -23 248 -23 c 0
 141 -23 68 40 68 132 c 0
 68 142 69 149 72 165 c 1
 207 165 l 1
 207 153 l 2
 207 121 238 99 285 99 c 0
 347 99 400 132 436 291 c 1
 380 243 345 228 289 228 c 0
 185 228 120 295 120 403 c 0
 120 582 249 724 413 724 c 0
 533 724 611 643 611 519 c 0
389 612 m 0
 315 612 257 532 257 431 c 0
 257 378 288 344 337 344 c 0
 417 344 481 422 481 519 c 0
 481 576 445 612 389 612 c 0
EndSplineSet
Validated: 3073
Substitution2: "'numr' numerators-1" ninesuperior
Substitution2: "'dnom' denominators-1" dnom_nine
Substitution2: "'subs' subscript-numeric" nineinferior
Substitution2: "'sups' superscript-numeric" ninesuperior
Substitution2: "'pnum' proportional-width numbers-2" fit.nine
EndChar

StartChar: less
Encoding: 60 60 28
Width: 584
Flags: HMW
LayerCount: 2
Fore
SplineSet
630 474 m 1
 603 345 l 1
 263 232 l 1
 555 121 l 1
 527 -10 l 1
 77 172 l 1
 103 293 l 1
 630 474 l 1
EndSplineSet
Validated: 3073
EndChar

StartChar: equal
Encoding: 61 61 29
Width: 584
Flags: HMW
LayerCount: 2
Fore
SplineSet
622 412 m 1
 597 292 l 1
 112 292 l 1
 137 412 l 1
 622 412 l 1
571 172 m 1
 546 52 l 1
 61 52 l 1
 86 172 l 1
 571 172 l 1
EndSplineSet
Validated: 3073
Substitution2: "'subs' subscript-numeric" equalinferior
Substitution2: "'sups' superscript-numeric" equalsuperior
EndChar

StartChar: question
Encoding: 63 63 31
Width: 611
Flags: HMW
LayerCount: 2
Fore
SplineSet
456 744 m 0
 629 744 672 637 672 566 c 0
 672 413 550 347 505 320 c 0
 437 278 428 267 414 201 c 1
 292 201 l 1
 310 393 529 394 529 533 c 0
 529 584 491 620 438 620 c 0
 370 620 321 569 304 481 c 1
 168 481 l 1
 181 540 226 744 456 744 c 0
418 146 m 1
 387 0 l 1
 237 0 l 1
 268 146 l 1
 418 146 l 1
EndSplineSet
Validated: 3073
EndChar

StartChar: at
Encoding: 64 64 32
Width: 975
Flags: HMW
LayerCount: 2
Fore
SplineSet
624 518 m 0
 680 518 707 496 720 446 c 1
 749 508 l 1
 842 508 l 1
 704 228 l 2
 689 198 688 190 688 176 c 0
 688 155 701 142 727 142 c 0
 794 142 935 264 935 415 c 0
 935 549 809 658 651 658 c 0
 433 658 179 437 179 204 c 0
 179 46 316 -55 474 -55 c 0
 546 -55 625 -40 689 -14 c 1
 701 -92 l 1
 624 -124 549 -138 455 -138 c 0
 210 -138 74 -2 74 180 c 0
 74 494 401 745 674 745 c 0
 891 745 1032 630 1032 444 c 0
 1032 214 836 56 709 56 c 0
 639 56 604 90 599 129 c 1
 550 82 489 56 434 56 c 0
 355 56 302 112 302 189 c 0
 302 279 412 518 624 518 c 0
474 140 m 0
 564 140 669 280 669 379 c 0
 669 421 647 444 605 444 c 0
 526 444 410 331 410 213 c 0
 410 170 433 140 474 140 c 0
EndSplineSet
Validated: 3073
EndChar

StartChar: A
Encoding: 65 65 33
Width: 722
Flags: HMW
AnchorPoint: "middle" 423 252 basechar 0
AnchorPoint: "ogonek" 659 0 basechar 0
AnchorPoint: "below" 375 0 basechar 0
AnchorPoint: "above" 519 723 basechar 0
LayerCount: 2
Fore
SplineSet
532 147 m 1
 260 147 l 1
 179 0 l 1
 26 0 l 1
 433 729 l 1
 606 729 l 1
 703 0 l 1
 550 0 l 1
 532 147 l 1
518 272 m 1
 483 555 l 1
 329 272 l 1
 518 272 l 1
EndSplineSet
Validated: 3073
Substitution2: "'c2sc' caps to small caps in Latin-1" sc.a
Substitution2: "'sups' superscript-latin" Asup
EndChar

StartChar: B
Encoding: 66 66 34
Width: 722
Flags: HMW
AnchorPoint: "middle" 446 383 basechar 0
AnchorPoint: "below" 375 0 basechar 0
AnchorPoint: "above" 519 723 basechar 0
LayerCount: 2
Fore
SplineSet
562 729 m 2
 723 729 762 638 762 571 c 0
 762 502 721 438 645 388 c 1
 696 348 716 310 716 255 c 0
 716 201 674 0 410 0 c 2
 82 0 l 1
 237 729 l 1
 562 729 l 2
489 439 m 2
 594 439 613 502 613 542 c 0
 613 585 586 604 524 604 c 2
 360 604 l 1
 325 439 l 1
 489 439 l 2
437 125 m 2
 542 125 568 192 568 245 c 0
 568 292 539 314 477 314 c 2
 299 314 l 1
 259 125 l 1
 437 125 l 2
EndSplineSet
Validated: 3073
Substitution2: "'c2sc' caps to small caps in Latin-1" sc.b
Substitution2: "'sups' superscript-latin" Bsup
EndChar

StartChar: C
Encoding: 67 67 35
Width: 722
Flags: HMW
AnchorPoint: "middle" 447 383 basechar 0
AnchorPoint: "below" 386 0 basechar 0
AnchorPoint: "above" 534 723 basechar 0
LayerCount: 2
Fore
SplineSet
107 235 m 0
 107 517 289 741 533 741 c 0
 688 741 793 656 793 532 c 0
 793 521 792 510 789 482 c 1
 648 482 l 1
 648 559 615 613 516 613 c 0
 295 613 256 334 256 264 c 0
 256 159 306 105 403 105 c 0
 499 105 570 157 599 249 c 1
 742 249 l 1
 698 78 564 -23 382 -23 c 0
 211 -23 107 75 107 235 c 0
EndSplineSet
Validated: 3073
Substitution2: "'c2sc' caps to small caps in Latin-1" sc.c
Substitution2: "'sups' superscript-latin" sup.C
EndChar

StartChar: D
Encoding: 68 68 36
Width: 722
Flags: HMW
AnchorPoint: "middle" 446 383 basechar 0
AnchorPoint: "below" 357 0 basechar 0
AnchorPoint: "above" 509 723 basechar 0
LayerCount: 2
Fore
SplineSet
77 0 m 1
 232 729 l 1
 517 729 l 2
 698 729 776 654 776 479 c 0
 776 363 720 0 362 0 c 2
 77 0 l 1
254 125 m 1
 388 125 l 2
 600 125 627 391 627 469 c 0
 627 560 582 604 490 604 c 2
 355 604 l 1
 254 125 l 1
EndSplineSet
Validated: 3073
Substitution2: "'c2sc' caps to small caps in Latin-1" sc.d
Substitution2: "'sups' superscript-latin" Dsup
EndChar

StartChar: E
Encoding: 69 69 37
Width: 667
Flags: HMW
AnchorPoint: "middle" 446 383 basechar 0
AnchorPoint: "ogonek" 589 0 basechar 0
AnchorPoint: "below" 375 0 basechar 0
AnchorPoint: "above" 519 723 basechar 0
LayerCount: 2
Fore
SplineSet
296 314 m 1
 256 125 l 1
 651 125 l 1
 624 0 l 1
 79 0 l 1
 234 729 l 1
 762 729 l 1
 735 604 l 1
 357 604 l 1
 322 439 l 1
 671 439 l 1
 645 314 l 1
 296 314 l 1
EndSplineSet
Validated: 3073
Substitution2: "'c2sc' caps to small caps in Latin-1" sc.e
Substitution2: "'sups' superscript-latin" Esup
EndChar

StartChar: F
Encoding: 70 70 38
Width: 611
Flags: HMW
AnchorPoint: "middle" 423 383 basechar 0
AnchorPoint: "below" 198 0 basechar 0
AnchorPoint: "above" 498 723 basechar 0
LayerCount: 2
Fore
SplineSet
291 314 m 1
 224 0 l 1
 74 0 l 1
 229 729 l 1
 741 729 l 1
 714 604 l 1
 352 604 l 1
 317 439 l 1
 637 439 l 1
 610 314 l 1
 291 314 l 1
EndSplineSet
Validated: 3073
Substitution2: "'c2sc' caps to small caps in Latin-1" sc.f
Substitution2: "'sups' superscript-latin" sup.F
EndChar

StartChar: G
Encoding: 71 71 39
Width: 778
Flags: HMW
AnchorPoint: "middle" 472 383 basechar 0
AnchorPoint: "below" 404 0 basechar 0
AnchorPoint: "above" 538 723 basechar 0
LayerCount: 2
Fore
SplineSet
795 392 m 1
 711 -2 l 1
 621 -2 l 1
 628 88 l 1
 554 9 488 -23 395 -23 c 0
 219 -23 107 88 107 262 c 0
 107 469 260 741 547 741 c 0
 710 741 819 655 819 529 c 0
 819 521 818 510 817 496 c 1
 679 496 l 1
 671 571 614 613 519 613 c 0
 309 613 256 381 256 284 c 0
 256 181 328 105 426 105 c 0
 564 105 626 218 642 267 c 1
 476 267 l 1
 503 392 l 1
 795 392 l 1
EndSplineSet
Validated: 3073
Substitution2: "'c2sc' caps to small caps in Latin-1" sc.g
Substitution2: "'sups' superscript-latin" Gsup
EndChar

StartChar: H
Encoding: 72 72 40
Width: 722
Flags: HMW
AnchorPoint: "middle" 446 383 basechar 0
AnchorPoint: "below" 375 0 basechar 0
AnchorPoint: "above" 513 723 basechar 0
LayerCount: 2
Fore
SplineSet
577 331 m 1
 288 331 l 1
 218 0 l 1
 68 0 l 1
 223 729 l 1
 373 729 l 1
 315 456 l 1
 603 456 l 1
 661 729 l 1
 812 729 l 1
 657 0 l 1
 507 0 l 1
 577 331 l 1
EndSplineSet
Validated: 3073
Substitution2: "'c2sc' caps to small caps in Latin-1" sc.h
Substitution2: "'sups' superscript-latin" Hsup
EndChar

StartChar: I
Encoding: 73 73 41
Width: 278
Flags: HMW
AnchorPoint: "middle" 226 383 basechar 0
AnchorPoint: "ogonek" 177 0 basechar 0
AnchorPoint: "below" 139 0 basechar 0
AnchorPoint: "above" 294 723 basechar 0
LayerCount: 2
Fore
SplineSet
368 729 m 1
 213 0 l 1
 63 0 l 1
 218 729 l 1
 368 729 l 1
EndSplineSet
Validated: 3073
Substitution2: "'c2sc' caps to small caps in Latin-1" sc.i
Substitution2: "'sups' superscript-latin" Isup
EndChar

StartChar: J
Encoding: 74 74 42
Width: 556
Flags: HMW
AnchorPoint: "middle" 484 383 basechar 0
AnchorPoint: "below" 256 0 basechar 0
AnchorPoint: "above" 562 723 basechar 0
LayerCount: 2
Fore
SplineSet
491 729 m 1
 641 729 l 1
 526 190 l 2
 513 127 472 -23 247 -23 c 0
 130 -23 59 36 59 133 c 0
 59 154 61 176 66 198 c 2
 81 270 l 1
 231 270 l 1
 215 193 l 2
 212 180 211 169 211 159 c 0
 211 127 238 105 277 105 c 0
 330 105 363 131 376 190 c 2
 491 729 l 1
EndSplineSet
Validated: 3073
Substitution2: "'c2sc' caps to small caps in Latin-1" sc.j
Substitution2: "'sups' superscript-latin" Jsup
EndChar

StartChar: K
Encoding: 75 75 43
Width: 722
Flags: HMW
AnchorPoint: "middle" 410 383 basechar 0
AnchorPoint: "below" 375 0 basechar 0
AnchorPoint: "above" 519 723 basechar 0
LayerCount: 2
Fore
SplineSet
274 234 m 1
 224 0 l 1
 74 0 l 1
 229 729 l 1
 379 729 l 1
 311 409 l 1
 665 729 l 1
 843 729 l 1
 482 410 l 1
 717 0 l 1
 538 0 l 1
 365 314 l 1
 274 234 l 1
EndSplineSet
Validated: 3073
Substitution2: "'c2sc' caps to small caps in Latin-1" sc.k
Substitution2: "'sups' superscript-latin" Ksup
EndChar

StartChar: L
Encoding: 76 76 44
Width: 611
Flags: HMW
AnchorPoint: "middle" 260 383 basechar 0
AnchorPoint: "below" 337 0 basechar 0
AnchorPoint: "above" 494 723 basechar 0
LayerCount: 2
Fore
SplineSet
385 729 m 1
 257 125 l 1
 606 125 l 1
 579 0 l 1
 80 0 l 1
 235 729 l 1
 385 729 l 1
EndSplineSet
Validated: 3073
Substitution2: "'c2sc' caps to small caps in Latin-1" sc.l
Substitution2: "'sups' superscript-latin" Lsup
EndChar

StartChar: M
Encoding: 77 77 45
Width: 833
Flags: HMW
AnchorPoint: "middle" 492 383 basechar 0
AnchorPoint: "below" 420 0 basechar 0
AnchorPoint: "above" 567 723 basechar 0
LayerCount: 2
Fore
SplineSet
497 0 m 1
 347 0 l 1
 340 619 l 1
 208 0 l 1
 66 0 l 1
 221 729 l 1
 438 729 l 1
 458 169 l 1
 712 729 l 1
 931 729 l 1
 776 0 l 1
 634 0 l 1
 766 619 l 1
 497 0 l 1
EndSplineSet
Validated: 3073
Substitution2: "'c2sc' caps to small caps in Latin-1" sc.m
Substitution2: "'sups' superscript-latin" Msup
EndChar

StartChar: N
Encoding: 78 78 46
Width: 722
Flags: HMW
AnchorPoint: "middle" 447 383 basechar 0
AnchorPoint: "below" 375 0 basechar 0
AnchorPoint: "above" 518 723 basechar 0
LayerCount: 2
Fore
SplineSet
816 729 m 1
 661 0 l 1
 513 0 l 1
 321 523 l 1
 210 0 l 1
 68 0 l 1
 223 729 l 1
 373 729 l 1
 565 214 l 1
 674 729 l 1
 816 729 l 1
EndSplineSet
Validated: 3073
Substitution2: "'c2sc' caps to small caps in Latin-1" sc.n
Substitution2: "'sups' superscript-latin" Nsup
EndChar

StartChar: O
Encoding: 79 79 47
Width: 778
Flags: HMW
AnchorPoint: "far-right-dot" 790 590 basechar 0
AnchorPoint: "middle" 467 383 basechar 0
AnchorPoint: "ogonek" 493 0 basechar 0
AnchorPoint: "below" 403 0 basechar 0
AnchorPoint: "above" 533 723 basechar 0
LayerCount: 2
Fore
SplineSet
538 741 m 0
 721 741 828 635 828 455 c 0
 828 255 686 -23 395 -23 c 0
 217 -23 106 86 106 261 c 0
 106 454 248 741 538 741 c 0
419 105 m 0
 638 105 679 371 679 437 c 0
 679 547 619 613 519 613 c 0
 299 613 255 351 255 282 c 0
 255 173 318 105 419 105 c 0
EndSplineSet
Validated: 3073
Substitution2: "'c2sc' caps to small caps in Latin-1" sc.o
Substitution2: "'sups' superscript-latin" Osup
EndChar

StartChar: P
Encoding: 80 80 48
Width: 667
Flags: HMW
AnchorPoint: "middle" 446 383 basechar 0
AnchorPoint: "below" 187 0 basechar 0
AnchorPoint: "above" 519 723 basechar 0
LayerCount: 2
Fore
SplineSet
539 729 m 2
 706 729 747 631 747 560 c 0
 747 454 670 260 468 260 c 2
 281 260 l 1
 226 0 l 1
 76 0 l 1
 231 729 l 1
 539 729 l 2
461 385 m 2
 571 385 598 469 598 525 c 0
 598 572 562 604 508 604 c 2
 354 604 l 1
 308 385 l 1
 461 385 l 2
EndSplineSet
Validated: 3073
Substitution2: "'c2sc' caps to small caps in Latin-1" sc.p
Substitution2: "'sups' superscript-latin" Psup
EndChar

StartChar: Q
Encoding: 81 81 49
Width: 778
Flags: HMW
AnchorPoint: "middle" 465 383 basechar 0
AnchorPoint: "below" 398 0 basechar 0
AnchorPoint: "above" 530 723 basechar 0
LayerCount: 2
Fore
SplineSet
686 103 m 1
 750 27 l 1
 657 -54 l 1
 588 27 l 1
 527 -7 468 -23 397 -23 c 0
 220 -23 109 87 109 262 c 0
 109 457 250 741 538 741 c 0
 721 741 831 632 831 453 c 0
 831 330 771 185 686 103 c 1
539 278 m 1
 604 200 l 1
 650 258 682 354 682 436 c 0
 682 547 621 613 518 613 c 0
 348 613 258 426 258 282 c 0
 258 173 319 105 418 105 c 0
 450 105 482 112 507 124 c 1
 445 197 l 1
 539 278 l 1
EndSplineSet
Validated: 3073
Substitution2: "'c2sc' caps to small caps in Latin-1" sc.q
Substitution2: "'sups' superscript-latin" sup.Q
EndChar

StartChar: R
Encoding: 82 82 50
Width: 722
Flags: HMW
AnchorPoint: "middle" 446 383 basechar 0
AnchorPoint: "below" 375 0 basechar 0
AnchorPoint: "above" 519 723 basechar 0
LayerCount: 2
Fore
SplineSet
510 41 m 0
 510 102 548 198 548 234 c 0
 548 271 520 289 463 289 c 2
 291 289 l 1
 230 0 l 1
 80 0 l 1
 235 729 l 1
 612 729 l 2
 750 729 785 634 785 579 c 0
 785 434 665 375 618 352 c 1
 670 335 696 308 696 270 c 0
 696 207 665 100 665 61 c 0
 665 47 670 37 683 27 c 1
 677 0 l 1
 518 0 l 1
 512 19 510 29 510 41 c 0
636 534 m 0
 636 590 587 604 526 604 c 2
 358 604 l 1
 318 414 l 1
 499 414 l 2
 612 414 636 493 636 534 c 0
EndSplineSet
Validated: 3073
Substitution2: "'c2sc' caps to small caps in Latin-1" sc.r
Substitution2: "'sups' superscript-latin" Rsup
EndChar

StartChar: S
Encoding: 83 83 51
Width: 667
Flags: HMW
AnchorPoint: "middle" 415 383 basechar 0
AnchorPoint: "below" 355 0 basechar 0
AnchorPoint: "above" 479 723 basechar 0
LayerCount: 2
Fore
SplineSet
151 472 m 0
 151 621 274 741 473 741 c 0
 632 741 725 677 725 569 c 0
 725 549 723 535 717 507 c 1
 577 507 l 1
 578 516 579 525 579 530 c 0
 579 584 532 613 447 613 c 0
 356 613 300 573 300 509 c 0
 300 471 327 455 421 436 c 2
 530 414 l 2
 632 394 687 342 687 265 c 0
 687 157 619 -23 345 -23 c 0
 130 -23 76 89 76 174 c 0
 76 188 77 198 80 218 c 1
 226 218 l 1
 225 209 224 200 224 195 c 0
 224 138 276 105 367 105 c 0
 471 105 538 149 538 216 c 0
 538 263 509 283 418 301 c 2
 320 321 l 2
 201 345 151 389 151 472 c 0
EndSplineSet
Validated: 3073
Substitution2: "'c2sc' caps to small caps in Latin-1" sc.s
Substitution2: "'sups' superscript-latin" sup.S
EndChar

StartChar: T
Encoding: 84 84 52
Width: 611
Flags: HMW
AnchorPoint: "middle" 390 383 basechar 0
AnchorPoint: "below" 316 0 basechar 0
AnchorPoint: "above" 459 723 basechar 0
LayerCount: 2
Fore
SplineSet
514 604 m 1
 385 0 l 1
 235 0 l 1
 364 604 l 1
 142 604 l 1
 169 729 l 1
 753 729 l 1
 726 604 l 1
 514 604 l 1
EndSplineSet
Validated: 3073
Substitution2: "'c2sc' caps to small caps in Latin-1" sc.t
Substitution2: "'sups' superscript-latin" Tsup
EndChar

StartChar: U
Encoding: 85 85 53
Width: 722
Flags: HMW
AnchorPoint: "middle" 446 383 basechar 0
AnchorPoint: "ogonek" 459 0 basechar 0
AnchorPoint: "below" 375 0 basechar 0
AnchorPoint: "above" 519 723 basechar 0
LayerCount: 2
Fore
SplineSet
659 729 m 1
 809 729 l 1
 704 235 l 2
 663 45 513 -23 366 -23 c 0
 215 -23 119 51 119 167 c 0
 119 189 123 222 130 255 c 2
 231 729 l 1
 381 729 l 1
 276 235 l 2
 273 219 271 205 271 190 c 0
 271 137 316 105 394 105 c 0
 485 105 535 145 554 235 c 2
 659 729 l 1
EndSplineSet
Validated: 3073
Substitution2: "'c2sc' caps to small caps in Latin-1" sc.u
Substitution2: "'sups' superscript-latin" Usup
EndChar

StartChar: V
Encoding: 86 86 54
Width: 667
Flags: HMW
AnchorPoint: "middle" 412 383 basechar 0
AnchorPoint: "below" 334 0 basechar 0
AnchorPoint: "above" 481 723 basechar 0
LayerCount: 2
Fore
SplineSet
400 0 m 1
 273 0 l 1
 179 729 l 1
 330 729 l 1
 375 180 l 1
 651 729 l 1
 802 729 l 1
 400 0 l 1
EndSplineSet
Validated: 3073
Substitution2: "'c2sc' caps to small caps in Latin-1" sc.v
Substitution2: "'sups' superscript-latin" Vsup
EndChar

StartChar: W
Encoding: 87 87 55
Width: 944
Flags: HMW
AnchorPoint: "middle" 547 383 basechar 0
AnchorPoint: "below" 477 0 basechar 0
AnchorPoint: "above" 617 723 basechar 0
LayerCount: 2
Fore
SplineSet
730 0 m 1
 595 0 l 1
 591 555 l 1
 354 0 l 1
 219 0 l 1
 168 729 l 1
 327 729 l 1
 324 183 l 1
 548 729 l 1
 706 729 l 1
 703 181 l 1
 928 729 l 1
 1087 729 l 1
 730 0 l 1
EndSplineSet
Validated: 3073
Substitution2: "'c2sc' caps to small caps in Latin-1" sc.w
Substitution2: "'sups' superscript-latin" Wsup
EndChar

StartChar: X
Encoding: 88 88 56
Width: 667
Flags: HMW
AnchorPoint: "middle" 425 383 basechar 0
AnchorPoint: "below" 338 0 basechar 0
AnchorPoint: "above" 491 723 basechar 0
LayerCount: 2
Fore
SplineSet
499 372 m 1
 655 0 l 1
 476 0 l 1
 386 249 l 1
 197 0 l 1
 22 0 l 1
 332 367 l 1
 187 729 l 1
 365 729 l 1
 444 493 l 1
 627 729 l 1
 802 729 l 1
 499 372 l 1
EndSplineSet
Validated: 3073
Substitution2: "'c2sc' caps to small caps in Latin-1" sc.x
Substitution2: "'sups' superscript-latin" sup.X
EndChar

StartChar: Y
Encoding: 89 89 57
Width: 667
Flags: HMW
AnchorPoint: "middle" 428 383 basechar 0
AnchorPoint: "ogonek" 386 0 basechar 0
AnchorPoint: "below" 345 0 basechar 0
AnchorPoint: "above" 487 723 basechar 0
LayerCount: 2
Fore
SplineSet
477 270 m 1
 419 0 l 1
 269 0 l 1
 327 270 l 1
 182 729 l 1
 349 729 l 1
 431 414 l 1
 638 729 l 1
 805 729 l 1
 477 270 l 1
EndSplineSet
Validated: 3073
Substitution2: "'c2sc' caps to small caps in Latin-1" sc.y
Substitution2: "'sups' superscript-latin" sup.Y
EndChar

StartChar: Z
Encoding: 90 90 58
Width: 611
Flags: HMW
AnchorPoint: "middle" 387 383 basechar 0
AnchorPoint: "below" 307 0 basechar 0
AnchorPoint: "above" 464 723 basechar 0
LayerCount: 2
Fore
SplineSet
733 729 m 1
 706 604 l 1
 232 125 l 1
 605 125 l 1
 578 0 l 1
 30 0 l 1
 57 125 l 1
 531 604 l 1
 158 604 l 1
 185 729 l 1
 733 729 l 1
EndSplineSet
Validated: 3073
Substitution2: "'c2sc' caps to small caps in Latin-1" sc.z
Substitution2: "'sups' superscript-latin" sup.Z
EndChar

StartChar: bracketleft
Encoding: 91 91 59
Width: 333
Flags: HMW
LayerCount: 2
Fore
SplineSet
463 729 m 1
 441 629 l 1
 328 629 l 1
 174 -100 l 1
 287 -100 l 1
 266 -200 l 1
 23 -200 l 1
 220 729 l 1
 463 729 l 1
EndSplineSet
Validated: 3073
EndChar

StartChar: backslash
Encoding: 92 92 60
Width: 278
Flags: HMW
LayerCount: 2
Fore
SplineSet
116 709 m 1
 200 709 l 1
 273 -23 l 1
 188 -23 l 1
 116 709 l 1
EndSplineSet
Validated: 3073
EndChar

StartChar: asciicircum
Encoding: 94 94 62
Width: 584
Flags: HMW
LayerCount: 2
Fore
SplineSet
580 270 m 1
 467 270 l 1
 409 570 l 1
 231 270 l 1
 119 270 l 1
 374 695 l 1
 499 695 l 1
 580 270 l 1
EndSplineSet
Validated: 3073
EndChar

StartChar: underscore
Encoding: 95 95 63
Width: 556
Flags: HMW
LayerCount: 2
Fore
SplineSet
552 -120 m 1
 535 -200 l 1
 -65 -200 l 1
 -48 -120 l 1
 552 -120 l 1
EndSplineSet
Validated: 3073
EndChar

StartChar: grave
Encoding: 96 96 64
Width: 333
Flags: HMW
LayerCount: 2
Fore
SplineSet
175 757 m 1
 294 757 l 1
 339 607 l 1
 276 607 l 1
 175 757 l 1
EndSplineSet
Validated: 3073
EndChar

StartChar: a
Encoding: 97 97 65
Width: 556
Flags: HMW
AnchorPoint: "below" 258 0 basechar 0
AnchorPoint: "middle" 341 288 basechar 0
AnchorPoint: "ogonek" 456 0 basechar 0
AnchorPoint: "above" 389 552 basechar 0
LayerCount: 2
Fore
SplineSet
386 549 m 0
 547 549 578 476 578 428 c 0
 578 416 576 401 572 383 c 2
 509 83 l 2
 507 75 506 68 506 62 c 0
 506 47 512 34 527 17 c 1
 523 0 l 1
 370 0 l 1
 365 11 363 17 363 27 c 0
 363 34 363 39 366 54 c 1
 306 0 257 -23 199 -23 c 0
 110 -23 50 30 50 108 c 0
 50 149 80 282 252 311 c 2
 310 320 l 2
 359 327 436 331 436 394 c 0
 436 424 414 437 363 437 c 0
 299 437 268 417 251 362 c 1
 120 362 l 1
 148 492 229 549 386 549 c 0
400 217 m 1
 408 255 l 1
 391 245 392 247 361 241 c 2
 295 230 l 2
 230 219 193 186 193 139 c 0
 193 106 218 89 266 89 c 0
 334 89 382 135 400 217 c 1
EndSplineSet
Validated: 3073
Substitution2: "'smcp' lowercase to small caps in Latin-1" sc.a
Substitution2: "'subs' subscript-latin" asub
Substitution2: "'sups' superscript-latin" asup
EndChar

StartChar: b
Encoding: 98 98 66
Width: 611
Flags: HMW
AnchorPoint: "below" 319 0 basechar 0
AnchorPoint: "middle" 377 288 basechar 0
AnchorPoint: "above" 461 721 basechar 0
LayerCount: 2
Fore
SplineSet
214 729 m 1
 354 729 l 1
 299 470 l 1
 344 524 397 549 465 549 c 0
 571 549 640 467 640 342 c 0
 640 152 497 -23 343 -23 c 0
 276 -23 233 2 211 55 c 1
 199 0 l 1
 59 0 l 1
 214 729 l 1
409 437 m 0
 323 437 248 327 248 202 c 0
 248 134 283 89 336 89 c 0
 421 89 497 197 497 319 c 0
 497 392 463 437 409 437 c 0
EndSplineSet
Validated: 3073
Substitution2: "'smcp' lowercase to small caps in Latin-1" sc.b
Substitution2: "'subs' subscript-latin" sub.b
Substitution2: "'sups' superscript-latin" bsup
EndChar

StartChar: c
Encoding: 99 99 67
Width: 556
Flags: HMW
AnchorPoint: "below" 287 0 basechar 0
AnchorPoint: "middle" 345 288 basechar 0
AnchorPoint: "above" 403 552 basechar 0
LayerCount: 2
Fore
SplineSet
398 549 m 0
 522 549 597 474 597 381 c 0
 597 371 596 362 593 338 c 1
 459 338 l 1
 458 394 451 437 377 437 c 0
 251 437 220 265 220 192 c 0
 220 123 249 89 309 89 c 0
 363 89 396 116 427 187 c 1
 561 187 l 1
 519 53 421 -23 292 -23 c 0
 120 -23 77 94 77 172 c 0
 77 262 129 549 398 549 c 0
EndSplineSet
Validated: 3073
Substitution2: "'smcp' lowercase to small caps in Latin-1" sc.c
Substitution2: "'subs' subscript-latin" sub.c
Substitution2: "'sups' superscript-latin" csuper
EndChar

StartChar: d
Encoding: 100 100 68
Width: 611
Flags: HMW
AnchorPoint: "below" 278 0 basechar 0
AnchorPoint: "middle" 345 288 basechar 0
AnchorPoint: "above" 410 721 basechar 0
LayerCount: 2
Fore
SplineSet
405 0 m 1
 417 55 l 1
 371 2 318 -23 251 -23 c 0
 147 -23 79 59 79 185 c 0
 79 354 196 549 372 549 c 0
 440 549 482 524 505 470 c 1
 560 729 l 1
 700 729 l 1
 545 0 l 1
 405 0 l 1
380 437 m 0
 297 437 222 327 222 206 c 0
 222 134 256 89 309 89 c 0
 394 89 468 197 468 323 c 0
 468 393 434 437 380 437 c 0
EndSplineSet
Validated: 3073
Substitution2: "'smcp' lowercase to small caps in Latin-1" sc.d
Substitution2: "'subs' subscript-latin" sub.d
Substitution2: "'sups' superscript-latin" dsup
EndChar

StartChar: e
Encoding: 101 101 69
Width: 556
Flags: HMW
AnchorPoint: "below" 280 0 basechar 0
AnchorPoint: "middle" 345 288 basechar 0
AnchorPoint: "ogonek" 349 0 basechar 0
AnchorPoint: "above" 382 552 basechar 0
LayerCount: 2
Fore
SplineSet
379 549 m 0
 507 549 591 467 591 351 c 0
 591 313 585 271 573 226 c 1
 210 226 l 1
 207 198 207 190 207 181 c 0
 207 126 245 89 302 89 c 0
 350 89 394 114 414 152 c 1
 552 152 l 1
 497 41 396 -23 275 -23 c 0
 150 -23 64 61 64 185 c 0
 64 265 111 549 379 549 c 0
362 437 m 0
 282 437 245 379 228 319 c 1
 448 319 l 1
 448 382 442 437 362 437 c 0
EndSplineSet
Validated: 3073
Substitution2: "'smcp' lowercase to small caps in Latin-1" sc.e
Substitution2: "'subs' subscript-latin" esub
Substitution2: "'sups' superscript-latin" esup
EndChar

StartChar: f
Encoding: 102 102 70
Width: 333
Flags: HMW
AnchorPoint: "below" 166 0 basechar 0
AnchorPoint: "middle" 227 288 basechar 0
AnchorPoint: "above" 377 721 basechar 0
LayerCount: 2
Fore
SplineSet
425 529 m 1
 405 436 l 1
 323 436 l 1
 230 0 l 1
 90 0 l 1
 183 436 l 1
 106 436 l 1
 126 529 l 1
 202 529 l 1
 216 594 l 2
 236 687 289 729 387 729 c 0
 405 729 422 728 464 726 c 1
 442 621 l 1
 415 624 410 625 400 625 c 0
 375 625 361 613 354 582 c 2
 342 529 l 1
 425 529 l 1
EndSplineSet
Validated: 3073
Substitution2: "'smcp' lowercase to small caps in Latin-1" sc.f
Substitution2: "'subs' subscript-latin" sub.f
Substitution2: "'sups' superscript-latin" fsup
EndChar

StartChar: g
Encoding: 103 103 71
Width: 611
Flags: HMW
AnchorPoint: "below" 244 -200 basechar 0
AnchorPoint: "middle" 345 288 basechar 0
AnchorPoint: "above" 381 552 basechar 0
LayerCount: 2
Fore
SplineSet
235 -218 m 0
 67 -218 26 -148 26 -96 c 0
 26 -88 27 -77 29 -65 c 1
 173 -65 l 1
 172 -70 172 -73 172 -77 c 0
 172 -106 209 -128 258 -128 c 0
 331 -128 390 -83 404 -18 c 2
 420 55 l 1
 356 -4 316 -23 254 -23 c 0
 153 -23 79 57 79 167 c 0
 79 344 193 549 378 549 c 0
 437 549 478 519 505 457 c 1
 523 540 l 1
 656 540 l 1
 537 -18 l 2
 510 -144 401 -218 235 -218 c 0
379 437 m 0
 297 437 222 324 222 201 c 0
 222 132 254 89 306 89 c 0
 395 89 471 193 471 315 c 0
 471 389 435 437 379 437 c 0
EndSplineSet
Validated: 3073
Substitution2: "'smcp' lowercase to small caps in Latin-1" sc.g
Substitution2: "'subs' subscript-latin" sub.g
Substitution2: "'sups' superscript-latin" gsup
EndChar

StartChar: h
Encoding: 104 104 72
Width: 611
Flags: HMW
AnchorPoint: "below" 312 0 basechar 0
AnchorPoint: "middle" 345 288 basechar 0
AnchorPoint: "above" 461 721 basechar 0
LayerCount: 2
Fore
SplineSet
222 729 m 1
 362 729 l 1
 304 458 l 1
 357 521 413 549 484 549 c 0
 571 549 629 496 629 417 c 0
 629 399 627 381 623 362 c 2
 546 0 l 1
 406 0 l 1
 473 313 l 2
 477 334 479 348 479 361 c 0
 479 410 453 437 406 437 c 0
 342 437 289 385 272 304 c 2
 207 0 l 1
 67 0 l 1
 222 729 l 1
EndSplineSet
Validated: 3073
Substitution2: "'smcp' lowercase to small caps in Latin-1" sc.h
Substitution2: "'subs' subscript-latin" hsub
Substitution2: "'sups' superscript-latin" hsuper
EndChar

StartChar: i
Encoding: 105 105 73
Width: 278
Flags: HMW
AnchorPoint: "below" 140 0 basechar 0
AnchorPoint: "middle" 202 288 basechar 0
AnchorPoint: "ogonek" 177 0 basechar 0
AnchorPoint: "above" 289 721 basechar 0
LayerCount: 2
Fore
SplineSet
322 540 m 1
 207 0 l 1
 67 0 l 1
 182 540 l 1
 322 540 l 1
362 729 m 1
 335 604 l 1
 195 604 l 1
 222 729 l 1
 362 729 l 1
EndSplineSet
Validated: 3073
Substitution2: "subst. i,j with dotless form-1" dotlessi
Substitution2: "'smcp' lowercase to small caps in Latin-1" sc.i
Substitution2: "'subs' subscript-latin" isub
Substitution2: "'sups' superscript-latin" isuperior
Substitution2: "'smcp' small to small caps in Latin for Turkish 1" sc.i_dot
EndChar

StartChar: j
Encoding: 106 106 74
Width: 278
Flags: HMW
AnchorPoint: "below" 84 -200 basechar 0
AnchorPoint: "middle" 203 288 basechar 0
AnchorPoint: "above" 291 721 basechar 0
LayerCount: 2
Fore
SplineSet
325 540 m 1
 190 -94 l 1
 172 -181 116 -218 2 -218 c 0
 -17 -218 -29 -217 -43 -213 c 1
 -19 -102 l 1
 -15 -105 -8 -106 6 -106 c 0
 36 -106 50 -94 57 -62 c 2
 185 540 l 1
 325 540 l 1
365 729 m 1
 338 604 l 1
 198 604 l 1
 225 729 l 1
 365 729 l 1
EndSplineSet
Validated: 3073
Substitution2: "subst. i,j with dotless form-1" dotlessj
Substitution2: "'smcp' lowercase to small caps in Latin-1" sc.j
Substitution2: "'subs' subscript-latin" sub.j
Substitution2: "'sups' superscript-latin" jsuper
EndChar

StartChar: k
Encoding: 107 107 75
Width: 556
Flags: HMW
AnchorPoint: "below" 281 0 basechar 0
AnchorPoint: "middle" 313 288 basechar 0
AnchorPoint: "above" 461 721 basechar 0
LayerCount: 2
Fore
SplineSet
354 729 m 1
 269 330 l 1
 492 540 l 1
 651 540 l 1
 419 334 l 1
 548 0 l 1
 384 0 l 1
 305 239 l 1
 237 177 l 1
 199 0 l 1
 59 0 l 1
 214 729 l 1
 354 729 l 1
EndSplineSet
Validated: 3073
Substitution2: "'smcp' lowercase to small caps in Latin-1" sc.k
Substitution2: "'subs' subscript-latin" ksub
Substitution2: "'sups' superscript-latin" ksup
EndChar

StartChar: l
Encoding: 108 108 76
Width: 278
Flags: HMW
AnchorPoint: "below" 138 0 basechar 0
AnchorPoint: "middle" 201 288 basechar 0
AnchorPoint: "above" 291 721 basechar 0
LayerCount: 2
Fore
SplineSet
362 729 m 1
 207 0 l 1
 67 0 l 1
 222 729 l 1
 362 729 l 1
EndSplineSet
Validated: 3073
Substitution2: "'smcp' lowercase to small caps in Latin-1" sc.l
Substitution2: "'subs' subscript-latin" lsub
Substitution2: "'sups' superscript-latin" lsuper
EndChar

StartChar: m
Encoding: 109 109 77
Width: 889
Flags: HMW
AnchorPoint: "below" 437 0 basechar 0
AnchorPoint: "middle" 499 288 basechar 0
AnchorPoint: "above" 547 552 basechar 0
LayerCount: 2
Fore
SplineSet
175 540 m 1
 314 540 l 1
 297 459 l 1
 356 524 403 549 468 549 c 0
 530 549 578 517 592 467 c 1
 647 524 701 549 769 549 c 0
 859 549 911 502 911 423 c 0
 911 405 909 391 903 362 c 2
 826 0 l 1
 686 0 l 1
 758 340 l 2
 761 354 763 369 763 381 c 0
 763 417 742 437 705 437 c 0
 642 437 597 396 582 324 c 2
 513 0 l 1
 373 0 l 1
 447 346 l 2
 449 357 450 367 450 379 c 0
 450 414 425 437 387 437 c 0
 329 437 284 394 269 324 c 2
 200 0 l 1
 60 0 l 1
 175 540 l 1
EndSplineSet
Validated: 3073
Substitution2: "'smcp' lowercase to small caps in Latin-1" sc.m
Substitution2: "'subs' subscript-latin" msub
Substitution2: "'sups' superscript-latin" msup
EndChar

StartChar: n
Encoding: 110 110 78
Width: 611
Flags: HMW
AnchorPoint: "below" 309 0 basechar 0
AnchorPoint: "middle" 373 288 basechar 0
AnchorPoint: "above" 438 552 basechar 0
LayerCount: 2
Fore
SplineSet
178 540 m 1
 318 540 l 1
 300 458 l 1
 354 522 408 549 482 549 c 0
 571 549 629 497 629 417 c 0
 629 399 627 381 623 362 c 2
 546 0 l 1
 406 0 l 1
 473 313 l 2
 477 335 479 349 479 362 c 0
 479 410 453 437 405 437 c 0
 338 437 286 386 268 304 c 2
 203 0 l 1
 63 0 l 1
 178 540 l 1
EndSplineSet
Validated: 3073
Substitution2: "'smcp' lowercase to small caps in Latin-1" sc.n
Substitution2: "'subs' subscript-latin" nsub
Substitution2: "'sups' superscript-latin" nsuperior
EndChar

StartChar: o
Encoding: 111 111 79
Width: 611
Flags: HMW
AnchorPoint: "far-right-dot" 590 410 basechar 0
AnchorPoint: "below" 307 0 basechar 0
AnchorPoint: "middle" 367 288 basechar 0
AnchorPoint: "ogonek" 375 0 basechar 0
AnchorPoint: "above" 424 552 basechar 0
LayerCount: 2
Fore
SplineSet
82 177 m 0
 82 378 211 549 413 549 c 0
 550 549 634 473 634 349 c 0
 634 143 502 -23 299 -23 c 0
 167 -23 82 55 82 177 c 0
324 89 m 0
 458 89 491 265 491 320 c 0
 491 391 452 437 391 437 c 0
 301 437 225 332 225 205 c 0
 225 134 264 89 324 89 c 0
EndSplineSet
Validated: 3073
Substitution2: "'smcp' lowercase to small caps in Latin-1" sc.o
Substitution2: "'subs' subscript-latin" osub
Substitution2: "'sups' superscript-latin" osup
EndChar

StartChar: p
Encoding: 112 112 80
Width: 611
Flags: HMW
AnchorPoint: "below" 264 -200 basechar 0
AnchorPoint: "middle" 377 288 basechar 0
AnchorPoint: "above" 442 552 basechar 0
LayerCount: 2
Fore
SplineSet
312 540 m 1
 295 460 l 1
 341 519 397 549 464 549 c 0
 570 549 637 469 637 342 c 0
 637 141 505 -24 344 -24 c 0
 274 -24 232 4 211 64 c 1
 151 -218 l 1
 11 -218 l 1
 172 540 l 1
 312 540 l 1
406 437 m 0
 320 437 246 327 246 201 c 0
 246 133 281 88 334 88 c 0
 420 88 494 196 494 323 c 0
 494 392 460 437 406 437 c 0
EndSplineSet
Validated: 3073
Substitution2: "'smcp' lowercase to small caps in Latin-1" sc.p
Substitution2: "'subs' subscript-latin" psub
Substitution2: "'sups' superscript-latin" psup
EndChar

StartChar: q
Encoding: 113 113 81
Width: 611
Flags: HMW
AnchorPoint: "below" 244 -200 basechar 0
AnchorPoint: "middle" 345 288 basechar 0
AnchorPoint: "above" 389 552 basechar 0
LayerCount: 2
Fore
SplineSet
519 540 m 1
 659 540 l 1
 498 -218 l 1
 358 -218 l 1
 418 64 l 1
 373 5 316 -24 248 -24 c 0
 142 -24 72 57 72 180 c 0
 72 352 187 549 369 549 c 0
 438 549 482 520 502 460 c 1
 519 540 l 1
377 437 m 0
 291 437 215 327 215 202 c 0
 215 133 250 88 304 88 c 0
 391 88 466 197 466 324 c 0
 466 393 431 437 377 437 c 0
EndSplineSet
Validated: 3073
Substitution2: "'smcp' lowercase to small caps in Latin-1" sc.q
Substitution2: "'subs' subscript-latin" sub.q
Substitution2: "'sups' superscript-latin" sup.q
EndChar

StartChar: r
Encoding: 114 114 82
Width: 389
Flags: HMW
AnchorPoint: "below" 240 0 basechar 0
AnchorPoint: "middle" 199 288 basechar 0
AnchorPoint: "above" 344 552 basechar 0
LayerCount: 2
Fore
SplineSet
178 540 m 1
 318 540 l 1
 295 434 l 1
 342 507 406 549 470 549 c 0
 474 549 479 549 487 548 c 1
 457 406 l 1
 439 409 429 410 414 410 c 0
 332 410 281 369 264 287 c 0
 203 0 l 1
 63 0 l 1
 178 540 l 1
EndSplineSet
Validated: 3073
Substitution2: "'smcp' lowercase to small caps in Latin-1" sc.r
Substitution2: "'subs' subscript-latin" rsub
Substitution2: "'sups' superscript-latin" rsuper
EndChar

StartChar: s
Encoding: 115 115 83
Width: 556
Flags: HMW
AnchorPoint: "below" 290 0 basechar 0
AnchorPoint: "middle" 342 288 basechar 0
AnchorPoint: "above" 389 552 basechar 0
LayerCount: 2
Fore
SplineSet
127 345 m 0
 127 460 231 549 387 549 c 0
 513 549 589 494 589 404 c 0
 589 393 588 384 584 366 c 1
 449 366 l 1
 451 375 452 379 452 385 c 0
 452 417 419 437 364 437 c 0
 311 437 276 416 276 384 c 0
 276 364 290 354 341 339 c 2
 437 311 l 2
 520 286 559 247 559 187 c 0
 559 59 451 -23 281 -23 c 0
 104 -23 60 71 60 127 c 0
 60 136 61 142 64 157 c 1
 201 157 l 1
 204 99 265 89 307 89 c 0
 368 89 411 112 411 144 c 0
 411 167 398 176 335 196 c 2
 256 221 l 2
 168 250 127 289 127 345 c 0
EndSplineSet
Validated: 3073
Substitution2: "'smcp' lowercase to small caps in Latin-1" sc.s
Substitution2: "'subs' subscript-latin" ssub
Substitution2: "'sups' superscript-latin" ssuper
EndChar

StartChar: t
Encoding: 116 116 84
Width: 333
Flags: HMW
AnchorPoint: "below" 217 0 basechar 0
AnchorPoint: "middle" 220 288 basechar 0
AnchorPoint: "above" 299 674 basechar 0
LayerCount: 2
Fore
SplineSet
414 529 m 1
 394 436 l 1
 316 436 l 1
 254 142 l 2
 250 125 248 113 248 108 c 0
 248 93 263 83 286 83 c 0
 297 83 305 84 319 86 c 1
 299 -12 l 1
 271 -20 247 -23 214 -23 c 0
 141 -23 101 8 101 63 c 0
 101 76 103 90 106 104 c 2
 176 436 l 1
 107 436 l 1
 127 529 l 1
 196 529 l 1
 227 674 l 1
 367 674 l 1
 336 529 l 1
 414 529 l 1
EndSplineSet
Validated: 3073
Substitution2: "'smcp' lowercase to small caps in Latin-1" sc.t
Substitution2: "'subs' subscript-latin" tsub
Substitution2: "'sups' superscript-latin" tsup
EndChar

StartChar: u
Encoding: 117 117 85
Width: 611
Flags: HMW
AnchorPoint: "below" 289 0 basechar 0
AnchorPoint: "middle" 356 288 basechar 0
AnchorPoint: "ogonek" 507 0 basechar 0
AnchorPoint: "above" 414 552 basechar 0
LayerCount: 2
Fore
SplineSet
541 0 m 1
 401 0 l 1
 416 68 l 1
 362 4 308 -23 234 -23 c 0
 146 -23 88 29 88 109 c 0
 88 127 90 145 94 164 c 2
 174 540 l 1
 314 540 l 1
 244 213 l 2
 240 190 238 178 238 164 c 0
 238 115 264 89 314 89 c 0
 379 89 431 141 448 222 c 2
 516 540 l 1
 656 540 l 1
 541 0 l 1
EndSplineSet
Validated: 3073
Substitution2: "'smcp' lowercase to small caps in Latin-1" sc.u
Substitution2: "'subs' subscript-latin" usub
Substitution2: "'sups' superscript-latin" usup
EndChar

StartChar: v
Encoding: 118 118 86
Width: 556
Flags: HMW
AnchorPoint: "below" 277 0 basechar 0
AnchorPoint: "middle" 339 288 basechar 0
AnchorPoint: "above" 389 552 basechar 0
LayerCount: 2
Fore
SplineSet
350 0 m 1
 203 0 l 1
 129 540 l 1
 277 540 l 1
 307 145 l 1
 503 540 l 1
 651 540 l 1
 350 0 l 1
EndSplineSet
Validated: 3073
Substitution2: "'smcp' lowercase to small caps in Latin-1" sc.v
Substitution2: "'subs' subscript-latin" vsub
Substitution2: "'sups' superscript-latin" vsup
EndChar

StartChar: w
Encoding: 119 119 87
Width: 778
Flags: HMW
AnchorPoint: "below" 390 0 basechar 0
AnchorPoint: "middle" 450 288 basechar 0
AnchorPoint: "above" 498 552 basechar 0
LayerCount: 2
Fore
SplineSet
617 0 m 1
 472 0 l 1
 467 380 l 1
 301 0 l 1
 157 0 l 1
 120 540 l 1
 265 540 l 1
 270 162 l 1
 429 540 l 1
 573 540 l 1
 573 162 l 1
 736 540 l 1
 881 540 l 1
 617 0 l 1
EndSplineSet
Validated: 3073
Substitution2: "'smcp' lowercase to small caps in Latin-1" sc.w
Substitution2: "'subs' subscript-latin" sub.w
Substitution2: "'sups' superscript-latin" wsuper
EndChar

StartChar: x
Encoding: 120 120 88
Width: 556
Flags: HMW
AnchorPoint: "below" 274 0 basechar 0
AnchorPoint: "middle" 336 288 basechar 0
AnchorPoint: "above" 389 552 basechar 0
LayerCount: 2
Fore
SplineSet
411 274 m 1
 534 0 l 1
 366 0 l 1
 307 168 l 1
 184 0 l 1
 16 0 l 1
 249 274 l 1
 138 540 l 1
 306 540 l 1
 357 377 l 1
 480 540 l 1
 648 540 l 1
 411 274 l 1
EndSplineSet
Validated: 3073
Substitution2: "'smcp' lowercase to small caps in Latin-1" sc.x
Substitution2: "'subs' subscript-latin" xsub
Substitution2: "'sups' superscript-latin" xsuper
EndChar

StartChar: y
Encoding: 121 121 89
Width: 556
Flags: HMW
AnchorPoint: "below" 472 0 basechar 0
AnchorPoint: "middle" 345 288 basechar 0
AnchorPoint: "ogonek" 507 0 basechar 0
AnchorPoint: "above" 389 552 basechar 0
LayerCount: 2
Fore
SplineSet
509 540 m 1
 653 540 l 1
 295 -98 l 2
 275 -135 242 -219 81 -219 c 0
 60 -219 50 -218 37 -215 c 1
 60 -106 l 1
 71 -108 76 -108 88 -108 c 0
 157 -108 201 -72 201 -15 c 0
 178 173 149 354 124 540 c 1
 278 540 l 1
 314 147 l 1
 509 540 l 1
EndSplineSet
Validated: 3073
Substitution2: "'smcp' lowercase to small caps in Latin-1" sc.y
Substitution2: "'subs' subscript-latin" sub.y
Substitution2: "'sups' superscript-latin" ysuper
EndChar

StartChar: z
Encoding: 122 122 90
Width: 500
Flags: HMW
AnchorPoint: "below" 247 0 basechar 0
AnchorPoint: "middle" 312 288 basechar 0
AnchorPoint: "above" 361 552 basechar 0
LayerCount: 2
Fore
SplineSet
575 540 m 1
 551 427 l 1
 219 113 l 1
 493 113 l 1
 469 0 l 1
 21 0 l 1
 45 113 l 1
 379 427 l 1
 130 427 l 1
 154 540 l 1
 575 540 l 1
EndSplineSet
Validated: 3073
Substitution2: "'smcp' lowercase to small caps in Latin-1" sc.z
Substitution2: "'subs' subscript-latin" sub.z
Substitution2: "'sups' superscript-latin" zsup
EndChar

StartChar: braceleft
Encoding: 123 123 91
Width: 389
Flags: HMW
LayerCount: 2
Fore
SplineSet
195 269 m 1
 227 264 274 256 274 200 c 0
 274 190 272 174 269 159 c 2
 227 -36 l 2
 224 -53 222 -66 222 -76 c 0
 222 -92 236 -101 261 -101 c 2
 296 -101 l 1
 275 -200 l 1
 198 -200 l 2
 140 -200 101 -159 101 -99 c 0
 101 -86 102 -73 105 -60 c 2
 150 150 l 2
 153 165 155 178 155 184 c 0
 155 208 135 222 101 222 c 2
 88 222 l 1
 84 223 l 1
 104 315 l 1
 120 315 l 2
 164 315 189 336 198 378 c 2
 243 589 l 2
 262 679 317 729 396 729 c 2
 472 729 l 1
 451 630 l 1
 414 630 l 2
 377 630 367 620 357 573 c 2
 316 378 l 2
 300 306 268 277 195 269 c 1
EndSplineSet
Validated: 3073
EndChar

StartChar: bar
Encoding: 124 124 92
Width: 280
Flags: HMW
LayerCount: 2
Fore
SplineSet
335 729 m 1
 137 -200 l 1
 57 -200 l 1
 255 729 l 1
 335 729 l 1
EndSplineSet
Validated: 3073
EndChar

StartChar: asciitilde
Encoding: 126 126 94
Width: 584
Flags: HMW
LayerCount: 2
Fore
SplineSet
504 288 m 1
 581 288 l 1
 558 193 503 142 423 142 c 0
 390 142 367 150 346 168 c 2
 298 210 l 2
 278 227 262 234 242 234 c 0
 204 234 188 219 175 169 c 1
 97 169 l 1
 123 266 176 314 256 314 c 0
 288 314 312 306 332 289 c 2
 381 247 l 2
 402 228 415 222 437 222 c 0
 475 222 490 237 504 288 c 1
EndSplineSet
Validated: 3073
EndChar

StartChar: cent
Encoding: 162 162 96
Width: 556
Flags: HMW
LayerCount: 2
Fore
SplineSet
434 547 m 1
 580 529 598 416 598 381 c 0
 598 371 597 362 594 338 c 1
 460 338 l 1
 460 398 448 423 410 435 c 1
 337 89 l 1
 378 99 404 128 428 187 c 1
 562 187 l 1
 526 65 430 -16 313 -22 c 1
 292 -124 l 1
 226 -124 l 1
 248 -20 l 1
 92 6 79 130 79 172 c 0
 79 247 122 528 368 548 c 1
 387 634 l 1
 453 634 l 1
 434 547 l 1
344 435 m 1
 239 407 222 234 222 191 c 0
 222 136 236 109 272 93 c 1
 344 435 l 1
EndSplineSet
Validated: 3073
EndChar

StartChar: sterling
Encoding: 163 163 97
Width: 556
Flags: HMW
LayerCount: 2
Fore
SplineSet
288 496 m 0
 288 466 305 427 316 371 c 1
 455 371 l 1
 443 316 l 1
 321 316 l 1
 323 303 323 297 323 290 c 0
 323 219 282 163 172 86 c 1
 236 115 250 119 280 119 c 0
 324 119 362 102 411 102 c 0
 447 102 480 111 525 131 c 1
 543 22 l 1
 479 -11 437 -23 388 -23 c 0
 316 -23 267 7 197 7 c 0
 160 7 131 0 82 -21 c 1
 49 80 l 1
 153 141 193 191 193 261 c 0
 193 276 192 288 188 316 c 1
 99 316 l 1
 111 371 l 1
 171 371 l 1
 150 432 145 451 145 478 c 0
 145 534 201 715 425 715 c 0
 559 715 629 655 629 539 c 0
 629 522 628 509 625 484 c 1
 494 484 l 1
 495 494 495 505 495 510 c 0
 495 572 464 603 402 603 c 0
 341 603 288 553 288 496 c 0
EndSplineSet
Validated: 3073
EndChar

StartChar: currency
Encoding: 164 164 98
Width: 556
Flags: HMW
LayerCount: 2
Fore
SplineSet
501 528 m 1
 590 601 l 1
 644 532 l 1
 553 457 l 1
 560 434 563 416 563 397 c 0
 563 346 543 292 507 246 c 1
 567 170 l 1
 484 102 l 1
 425 177 l 1
 377 153 354 147 317 147 c 0
 279 147 235 160 214 178 c 1
 120 100 l 1
 66 169 l 1
 160 246 l 1
 152 270 149 288 149 310 c 0
 149 360 170 415 204 457 c 1
 142 536 l 1
 225 604 l 1
 286 527 l 1
 320 546 365 558 404 558 c 0
 439 558 476 546 501 528 c 1
377 460 m 0
 305 460 249 403 249 330 c 0
 249 280 284 245 335 245 c 0
 406 245 463 303 463 375 c 0
 463 425 427 460 377 460 c 0
EndSplineSet
Validated: 3073
EndChar

StartChar: yen
Encoding: 165 165 99
Width: 556
Flags: HMW
LayerCount: 2
Fore
SplineSet
574 352 m 1
 561 292 l 1
 417 292 l 1
 406 240 l 1
 550 240 l 1
 537 180 l 1
 393 180 l 1
 355 0 l 1
 215 0 l 1
 253 180 l 1
 107 180 l 1
 120 240 l 1
 266 240 l 1
 277 292 l 1
 131 292 l 1
 143 352 l 1
 283 352 l 1
 155 704 l 1
 294 704 l 1
 379 450 l 1
 566 704 l 1
 702 704 l 1
 435 352 l 1
 574 352 l 1
EndSplineSet
Validated: 3073
EndChar

StartChar: brokenbar
Encoding: 166 166 100
Width: 280
Flags: HMW
LayerCount: 2
Fore
SplineSet
335 729 m 1
 252 340 l 1
 172 340 l 1
 255 729 l 1
 335 729 l 1
220 189 m 1
 137 -200 l 1
 57 -200 l 1
 140 189 l 1
 220 189 l 1
EndSplineSet
Validated: 3073
EndChar

StartChar: section
Encoding: 167 167 101
Width: 556
Flags: HMW
LayerCount: 2
Fore
SplineSet
496 27 m 0
 496 -19 450 -201 232 -201 c 0
 124 -201 56 -146 56 -59 c 0
 56 -40 58 -26 65 0 c 1
 196 0 l 1
 194 -17 193 -24 193 -34 c 0
 193 -70 216 -89 258 -89 c 0
 309 -89 348 -57 348 -15 c 0
 348 12 342 16 293 49 c 0
 143 149 l 2
 109 172 89 208 89 247 c 0
 89 322 119 368 216 428 c 1
 190 455 178 485 178 524 c 0
 178 571 202 622 243 659 c 0
 287 700 352 723 425 723 c 0
 532 723 596 675 596 594 c 0
 596 580 594 569 589 544 c 1
 462 544 l 1
 463 551 463 558 463 562 c 0
 463 600 441 621 401 621 c 0
 358 621 326 594 326 559 c 0
 326 538 347 516 397 485 c 2
 509 415 l 2
 557 385 578 350 578 302 c 0
 578 196 520 153 448 126 c 1
 481 99 496 68 496 27 c 0
258 247 m 2
 383 170 l 1
 430 192 448 214 448 247 c 0
 448 271 437 285 402 306 c 2
 275 382 l 1
 237 362 219 335 219 301 c 0
 219 279 229 264 258 247 c 2
EndSplineSet
Validated: 3073
EndChar

StartChar: copyright
Encoding: 169 169 103
Width: 737
Flags: HMW
LayerCount: 2
Fore
SplineSet
232 287 m 0
 232 459 346 592 493 592 c 0
 586 592 647 541 647 464 c 0
 647 456 646 448 644 431 c 1
 554 431 l 1
 554 485 531 509 478 509 c 0
 348 509 325 348 325 305 c 0
 325 244 356 211 411 211 c 0
 468 211 508 241 526 297 c 1
 618 297 l 1
 590 192 504 128 390 128 c 0
 292 128 232 189 232 287 c 0
530 743 m 0
 707 743 837 615 837 440 c 0
 837 201 607 -22 360 -22 c 0
 184 -22 54 106 54 281 c 0
 54 520 284 743 530 743 c 0
514 671 m 0
 318 671 134 489 134 295 c 0
 134 154 237 50 377 50 c 0
 573 50 757 232 757 427 c 0
 757 568 654 671 514 671 c 0
EndSplineSet
Validated: 3073
EndChar

StartChar: ordfeminine
Encoding: 170 170 104
Width: 370
Flags: HMW
LayerCount: 2
Fore
SplineSet
396 342 m 1
 380 262 l 1
 96 262 l 1
 113 342 l 1
 396 342 l 1
420 409 m 1
 418 399 l 1
 326 399 l 1
 323 405 322 409 322 415 c 0
 322 419 322 421 324 431 c 1
 288 399 257 385 217 385 c 0
 166 385 134 415 134 463 c 0
 134 526 182 575 256 586 c 2
 290 592 l 2
 331 598 366 601 366 636 c 0
 366 653 353 661 322 661 c 0
 284 661 265 649 255 617 c 1
 176 617 l 1
 193 692 247 729 337 729 c 0
 408 729 451 702 451 657 c 0
 451 649 450 640 448 629 c 0
 409 449 l 2
 408 444 408 441 408 436 c 0
 408 428 412 419 420 409 c 1
344 529 m 2
 349 552 l 1
 342 549 340 548 333 546 c 0
 331 546 327 545 321 544 c 2
 311 543 l 1
 281 537 l 2
 243 531 221 511 221 483 c 0
 221 464 236 453 263 453 c 0
 304 453 334 481 344 529 c 2
EndSplineSet
Validated: 3073
Ligature2: "ordinal symbols in Latin-1" a
EndChar

StartChar: guillemotleft
Encoding: 171 171 105
Width: 556
Flags: HMW
LayerCount: 2
Fore
SplineSet
135 218 m 1
 159 332 l 1
 358 481 l 1
 333 364 l 1
 213 275 l 1
 295 186 l 1
 271 72 l 1
 135 218 l 1
348 218 m 1
 372 332 l 1
 571 481 l 1
 546 364 l 1
 426 275 l 1
 508 186 l 1
 484 72 l 1
 348 218 l 1
EndSplineSet
Validated: 3073
EndChar

StartChar: logicalnot
Encoding: 172 172 106
Width: 584
Flags: HMW
LayerCount: 2
Fore
SplineSet
128 376 m 1
 632 376 l 1
 571 86 l 1
 452 86 l 1
 488 256 l 1
 103 256 l 1
 128 376 l 1
EndSplineSet
Validated: 3073
EndChar

StartChar: registered
Encoding: 174 174 107
Width: 737
Flags: HMW
LayerCount: 2
Fore
SplineSet
480 168 m 0
 480 205 500 261 500 278 c 0
 500 302 483 313 447 313 c 2
 356 313 l 1
 319 140 l 1
 223 140 l 1
 317 582 l 1
 555 582 l 2
 621 582 654 552 654 493 c 0
 654 429 621 382 557 353 c 1
 585 340 596 326 596 304 c 0
 596 287 593 266 581 195 c 1
 580 182 l 1
 580 173 583 167 592 161 c 1
 587 140 l 1
 485 140 l 1
 481 153 480 159 480 168 c 0
475 394 m 2
 517 394 553 406 553 469 c 0
 553 493 538 502 498 502 c 2
 396 502 l 1
 373 394 l 1
 475 394 l 2
530 743 m 0
 708 743 837 615 837 440 c 0
 837 201 608 -22 361 -22 c 0
 185 -22 55 106 55 281 c 0
 55 520 284 743 530 743 c 0
514 671 m 0
 318 671 135 489 135 295 c 0
 135 154 237 50 377 50 c 0
 574 50 757 232 757 427 c 0
 757 568 654 671 514 671 c 0
EndSplineSet
Validated: 3073
EndChar

StartChar: macron
Encoding: 175 175 108
Width: 333
Flags: HMW
LayerCount: 2
Fore
SplineSet
464 702 m 1
 447 622 l 1
 147 622 l 1
 164 702 l 1
 464 702 l 1
EndSplineSet
Validated: 3073
EndChar

StartChar: degree
Encoding: 176 176 109
Width: 606
Flags: HMW
LayerCount: 2
Fore
SplineSet
391 686 m 0
 475 686 543 618 543 535 c 0
 543 450 475 383 390 383 c 0
 308 383 240 452 240 535 c 0
 240 618 308 686 391 686 c 0
392 623 m 0
 343 623 303 583 303 534 c 0
 303 487 343 446 390 446 c 0
 440 446 480 485 480 535 c 0
 480 583 440 623 392 623 c 0
EndSplineSet
Validated: 3073
EndChar

StartChar: plusminus
Encoding: 177 177 110
Width: 584
Flags: HMW
LayerCount: 2
Fore
SplineSet
630 452 m 1
 605 332 l 1
 422 332 l 1
 387 170 l 1
 268 170 l 1
 303 332 l 1
 121 332 l 1
 146 452 l 1
 328 452 l 1
 367 633 l 1
 486 633 l 1
 447 452 l 1
 630 452 l 1
559 119 m 1
 534 0 l 1
 50 0 l 1
 75 119 l 1
 559 119 l 1
EndSplineSet
Validated: 3073
EndChar

StartChar: twosuperior
Encoding: 178 178 111
Width: 350
Flags: HMW
LayerCount: 2
Fore
SplineSet
427 709 m 0
 427 566 240 524 191 460 c 1
 375 460 l 1
 358 380 l 1
 52 380 l 1
 105 585 334 561 334 696 c 0
 334 725 315 742 282 742 c 0
 239 742 213 711 207 653 c 1
 116 653 l 1
 132 757 195 814 294 814 c 0
 378 814 427 775 427 709 c 0
EndSplineSet
Validated: 3073
EndChar

StartChar: threesuperior
Encoding: 179 179 112
Width: 350
Flags: HMW
LayerCount: 2
Fore
SplineSet
200 561 m 1
 213 624 l 1
 217 623 222 623 223 623 c 0
 276 623 310 651 310 696 c 0
 310 720 292 736 265 736 c 0
 227 736 209 717 197 661 c 1
 110 661 l 1
 130 763 183 808 282 808 c 0
 363 808 410 774 410 715 c 0
 410 669 386 631 339 602 c 1
 368 584 382 561 382 529 c 0
 382 430 307 361 198 361 c 0
 115 361 67 400 67 468 c 0
 67 480 68 488 71 504 c 1
 162 504 l 1
 160 496 160 492 160 486 c 0
 160 455 179 439 216 439 c 0
 256 439 289 472 289 512 c 0
 289 546 267 560 213 561 c 2
 200 561 l 1
EndSplineSet
Validated: 3073
EndChar

StartChar: acute
Encoding: 180 180 113
Width: 333
Flags: HMW
LayerCount: 2
Fore
SplineSet
475 757 m 1
 317 607 l 1
 247 607 l 1
 349 757 l 1
 475 757 l 1
EndSplineSet
Validated: 3073
EndChar

StartChar: paragraph
Encoding: 182 182 115
Width: 556
Flags: HMW
LayerCount: 2
Fore
SplineSet
121 435 m 0
 121 553 216 729 382 729 c 2
 684 729 l 1
 669 656 l 1
 625 656 l 1
 445 -191 l 1
 347 -191 l 1
 527 656 l 1
 465 656 l 1
 285 -191 l 1
 187 -191 l 1
 284 267 l 1
 184 272 121 337 121 435 c 0
EndSplineSet
Validated: 3073
EndChar

StartChar: middot
Encoding: 183 183 116
Width: 278
Flags: HMW
LayerCount: 2
Fore
SplineSet
143 419 m 1
 267 419 l 1
 241 296 l 1
 117 296 l 1
 143 419 l 1
EndSplineSet
Validated: 3073
EndChar

StartChar: cedilla
Encoding: 184 184 117
Width: 333
Flags: HMW
LayerCount: 2
Fore
SplineSet
154 0 m 1
 204 0 l 1
 163 -62 l 1
 179 -58 191 -56 206 -56 c 0
 246 -56 270 -77 270 -113 c 0
 270 -178 210 -220 120 -220 c 0
 75 -220 43 -213 -13 -191 c 1
 17 -140 l 1
 64 -163 87 -170 115 -170 c 0
 153 -170 183 -150 183 -126 c 0
 183 -106 165 -93 139 -93 c 0
 122 -93 110 -96 86 -106 c 1
 154 0 l 1
EndSplineSet
Validated: 3073
EndChar

StartChar: onesuperior
Encoding: 185 185 118
Width: 351
Flags: HMW
LayerCount: 2
Fore
SplineSet
271 664 m 1
 165 664 l 1
 178 725 l 1
 256 725 306 750 330 800 c 1
 393 800 l 1
 303 375 l 1
 209 375 l 1
 271 664 l 1
EndSplineSet
Validated: 3073
EndChar

StartChar: ordmasculine
Encoding: 186 186 119
Width: 365
Flags: HMW
LayerCount: 2
Fore
SplineSet
410 342 m 1
 393 262 l 1
 92 262 l 1
 109 342 l 1
 410 342 l 1
140 506 m 0
 140 621 215 729 339 729 c 0
 421 729 471 684 471 610 c 0
 471 486 391 386 269 386 c 0
 190 386 140 432 140 506 c 0
326 661 m 0
 272 661 227 597 227 520 c 0
 227 477 250 449 285 449 c 0
 339 449 384 514 384 590 c 0
 384 633 361 661 326 661 c 0
EndSplineSet
Validated: 3073
Ligature2: "ordinal symbols in Latin-1" o
EndChar

StartChar: guillemotright
Encoding: 187 187 120
Width: 556
Flags: HMW
LayerCount: 2
Fore
SplineSet
326 335 m 1
 302 220 l 1
 103 72 l 1
 128 189 l 1
 248 278 l 1
 166 367 l 1
 190 481 l 1
 326 335 l 1
533 335 m 1
 509 220 l 1
 310 72 l 1
 335 189 l 1
 455 278 l 1
 373 367 l 1
 397 481 l 1
 533 335 l 1
EndSplineSet
Validated: 3073
EndChar

StartChar: AE
Encoding: 198 198 131
Width: 1000
Flags: HMW
LayerCount: 2
Fore
SplineSet
464 152 m 1
 245 152 l 1
 160 0 l 1
 1 0 l 1
 421 729 l 1
 1104 729 l 1
 1078 604 l 1
 711 604 l 1
 675 439 l 1
 1014 439 l 1
 988 314 l 1
 649 314 l 1
 609 125 l 1
 995 125 l 1
 968 0 l 1
 432 0 l 1
 464 152 l 1
491 277 m 1
 561 604 l 1
 495 604 l 1
 310 277 l 1
 491 277 l 1
EndSplineSet
Validated: 3073
Substitution2: "'c2sc' caps to small caps in Latin-1" sc.ae
Substitution2: "'sups' superscript-latin" AEsup
EndChar

StartChar: Ccedilla
Encoding: 199 199 132
Width: 722
Flags: HMW
LayerCount: 2
Fore
SplineSet
516 613 m 0
 297 613 256 335 256 265 c 0
 256 159 306 105 403 105 c 0
 499 105 570 157 599 249 c 1
 742 249 l 1
 701 82 565 -22 389 -23 c 1
 363 -63 l 1
 377 -58 391 -56 406 -56 c 0
 446 -56 470 -77 470 -113 c 0
 470 -178 410 -220 319 -220 c 0
 275 -220 243 -213 186 -191 c 1
 216 -140 l 1
 264 -163 287 -170 315 -170 c 0
 353 -170 383 -150 383 -126 c 0
 383 -106 365 -93 339 -93 c 0
 322 -93 310 -96 285 -106 c 1
 340 -22 l 1
 199 -11 107 90 107 235 c 0
 107 517 289 741 533 741 c 0
 688 741 793 656 793 531 c 0
 793 520 792 508 789 482 c 1
 648 482 l 1
 648 559 615 613 516 613 c 0
EndSplineSet
Validated: 3073
MultipleSubs2: "'c2sc' caps to small caps in Latin pre-decompose-basic" C cedilla.cmb
EndChar

StartChar: Eth
Encoding: 208 208 141
Width: 722
Flags: HMW
LayerCount: 2
Fore
SplineSet
145 319 m 1
 68 319 l 1
 95 444 l 1
 171 444 l 1
 232 729 l 1
 517 729 l 2
 698 729 776 654 776 479 c 0
 776 361 735 238 664 140 c 0
 591 39 507 0 362 0 c 2
 77 0 l 1
 145 319 l 1
295 319 m 1
 254 125 l 1
 388 125 l 2
 475 125 524 153 567 228 c 0
 601 287 627 390 627 469 c 0
 627 560 582 604 490 604 c 2
 355 604 l 1
 321 444 l 1
 495 444 l 1
 468 319 l 1
 295 319 l 1
EndSplineSet
Validated: 3073
Substitution2: "'c2sc' caps to small caps in Latin-1" sc.eth
EndChar

StartChar: multiply
Encoding: 215 215 148
Width: 584
Flags: HMW
LayerCount: 2
Fore
SplineSet
516 444 m 1
 582 360 l 1
 425 231 l 1
 526 102 l 1
 424 18 l 1
 323 147 l 1
 168 19 l 1
 102 103 l 1
 257 231 l 1
 156 359 l 1
 258 444 l 1
 359 315 l 1
 516 444 l 1
EndSplineSet
Validated: 3073
EndChar

StartChar: Ostroke
Encoding: 216 216 149
Width: 778
Flags: HMW
LayerCount: 2
Fore
SplineSet
181 56 m 1
 75 -39 l 1
 34 7 l 1
 145 106 l 1
 122 150 109 204 109 263 c 0
 109 377 157 503 234 595 c 0
 317 692 422 741 547 741 c 0
 641 741 713 714 763 659 c 1
 864 749 l 1
 906 704 l 1
 798 607 l 1
 821 560 832 510 832 452 c 0
 832 339 785 215 707 123 c 0
 625 27 519 -23 395 -23 c 0
 302 -23 228 4 181 56 c 1
678 500 m 1
 294 157 l 1
 323 123 367 105 421 105 c 0
 497 105 561 140 611 210 c 0
 656 271 683 358 683 439 c 0
 683 460 682 478 678 500 c 1
521 613 m 0
 302 613 258 350 258 281 c 0
 258 258 260 235 264 213 c 1
 650 557 l 1
 620 594 577 613 521 613 c 0
EndSplineSet
Validated: 3073
Substitution2: "'c2sc' caps to small caps in Latin-1" sc.ostroke
EndChar

StartChar: Thorn
Encoding: 222 222 155
Width: 667
Flags: HMW
LayerCount: 2
Fore
SplineSet
514 609 m 2
 682 609 721 508 721 440 c 0
 721 363 687 278 633 221 c 0
 579 164 522 140 443 140 c 2
 256 140 l 1
 226 0 l 1
 76 0 l 1
 231 729 l 1
 381 729 l 1
 355 609 l 1
 514 609 l 2
435 265 m 2
 545 265 572 347 572 405 c 0
 572 452 536 484 482 484 c 2
 329 484 l 1
 282 265 l 1
 435 265 l 2
EndSplineSet
Validated: 3073
Substitution2: "'c2sc' caps to small caps in Latin-1" sc.thorn
EndChar

StartChar: ssharp
Encoding: 223 223 156
Width: 611
Flags: HMW
LayerCount: 2
Fore
SplineSet
540 411 m 1
 568 405 636 383 636 291 c 0
 636 102 494 -23 362 -23 c 0
 340 -23 309 -17 282 -11 c 1
 307 94 l 1
 318 90 333 87 348 87 c 0
 423 87 491 168 491 258 c 0
 491 318 448 349 366 349 c 1
 388 444 l 1
 454 444 518 481 518 554 c 0
 518 593 488 616 436 616 c 0
 381 616 343 587 331 537 c 2
 207 0 l 1
 67 0 l 1
 187 518 l 2
 213 631 282 729 471 729 c 0
 589 729 663 672 663 586 c 0
 663 496 608 435 540 411 c 1
EndSplineSet
Validated: 3073
Substitution2: "'smcp' lowercase to small caps in Latin-1" sc.ssharp
EndChar

StartChar: ae
Encoding: 230 230 163
Width: 892
Flags: HMW
AnchorPoint: "above" 564 552 basechar 0
AnchorPoint: "below" 429 0 basechar 0
LayerCount: 2
Fore
SplineSet
718 549 m 0
 848 549 927 461 927 351 c 0
 927 313 921 271 909 226 c 1
 547 226 l 1
 541 200 540 189 540 175 c 0
 540 124 579 89 636 89 c 0
 685 89 730 114 750 152 c 1
 888 152 l 1
 835 45 726 -23 606 -23 c 0
 518 -23 453 13 425 77 c 1
 355 2 301 -23 209 -23 c 0
 112 -23 54 25 54 106 c 0
 54 144 72 280 256 311 c 2
 313 320 l 2
 363 327 440 331 440 394 c 0
 440 424 418 437 367 437 c 0
 303 437 272 417 255 362 c 1
 124 362 l 1
 137 425 154 459 187 488 c 0
 232 528 302 549 392 549 c 0
 469 549 521 533 553 500 c 1
 599 531 659 549 718 549 c 0
404 216 m 1
 412 254 l 1
 400 248 397 247 386 244 c 0
 382 244 375 242 365 241 c 2
 299 230 l 2
 234 219 197 186 197 139 c 0
 197 106 222 89 268 89 c 0
 338 89 386 134 404 216 c 1
784 319 m 1
 784 346 l 2
 784 404 753 437 699 437 c 0
 635 437 589 396 568 319 c 1
 784 319 l 1
EndSplineSet
Validated: 3073
Substitution2: "'smcp' lowercase to small caps in Latin-1" sc.ae
EndChar

StartChar: ccedilla
Encoding: 231 231 164
Width: 556
Flags: HMW
LayerCount: 2
Fore
SplineSet
561 187 m 1
 510 25 382 -23 301 -23 c 0
 297 -23 292 -23 288 -23 c 1
 262 -62 l 1
 277 -58 289 -56 305 -56 c 0
 345 -56 369 -77 369 -113 c 0
 369 -178 309 -220 218 -220 c 0
 174 -220 141 -213 85 -191 c 1
 115 -139 l 1
 162 -163 186 -170 214 -170 c 0
 252 -170 282 -150 282 -126 c 0
 282 -106 264 -93 238 -93 c 0
 221 -93 209 -96 184 -106 c 1
 241 -19 l 1
 86 11 77 133 77 173 c 0
 77 267 119 384 177 454 c 0
 230 517 304 549 398 549 c 0
 522 549 597 474 597 381 c 0
 597 371 596 362 593 338 c 1
 459 338 l 1
 458 394 451 437 377 437 c 0
 322 437 285 411 257 352 c 0
 233 304 220 245 220 192 c 0
 220 123 249 89 309 89 c 0
 363 89 396 116 427 187 c 1
 561 187 l 1
EndSplineSet
Validated: 3073
MultipleSubs2: "'smcp' small caps in Latin pre-decompose-basic" c cedilla.cmb
EndChar

StartChar: eth
Encoding: 240 240 173
Width: 611
Flags: HMW
AnchorPoint: "below" 309 0 basechar 0
LayerCount: 2
Fore
SplineSet
83 178 m 0
 83 253 125 530 362 530 c 0
 394 530 414 524 452 503 c 1
 428 544 393 582 355 609 c 1
 258 564 l 1
 217 607 l 1
 305 648 l 1
 279 666 273 670 235 694 c 1
 305 744 l 1
 325 735 364 717 400 693 c 1
 504 738 l 1
 547 695 l 1
 454 654 l 1
 584 558 633 473 633 345 c 0
 633 140 502 -23 305 -23 c 0
 166 -23 83 52 83 178 c 0
491 326 m 0
 491 410 430 431 387 431 c 0
 252 431 227 256 227 206 c 0
 227 107 288 89 326 89 c 0
 420 89 491 190 491 326 c 0
EndSplineSet
Validated: 3073
Substitution2: "'smcp' lowercase to small caps in Latin-1" sc.eth
Substitution2: "'sups' superscript-phonetic" ethsup
EndChar

StartChar: divide
Encoding: 247 247 180
Width: 584
Flags: HMW
LayerCount: 2
Fore
SplineSet
606 292 m 1
 581 172 l 1
 77 172 l 1
 102 292 l 1
 606 292 l 1
318 124 m 0
 347 124 368 103 368 73 c 0
 368 36 331 0 292 0 c 0
 263 0 242 21 242 49 c 0
 242 88 279 124 318 124 c 0
390 462 m 0
 419 462 440 441 440 411 c 0
 440 374 403 338 363 338 c 0
 335 338 314 359 314 387 c 0
 314 425 351 462 390 462 c 0
EndSplineSet
Validated: 3073
EndChar

StartChar: ostroke
Encoding: 248 248 181
Width: 611
Flags: HMW
AnchorPoint: "above" 414 552 basechar 0
AnchorPoint: "below" 289 0 basechar 0
LayerCount: 2
Fore
SplineSet
636 344 m 0
 636 151 505 -23 304 -23 c 0
 233 -23 175 -2 135 36 c 1
 46 -38 l 1
 12 2 l 1
 105 80 l 1
 91 110 84 143 84 178 c 0
 84 369 209 549 417 549 c 0
 490 549 551 527 590 486 c 1
 675 557 l 1
 709 516 l 1
 618 440 l 1
 630 411 636 379 636 344 c 0
328 89 m 0
 461 89 494 266 494 321 c 0
 494 324 494 329 493 336 c 1
 246 129 l 1
 263 104 294 89 328 89 c 0
395 437 m 0
 261 437 227 261 227 208 c 0
 227 199 227 194 228 183 c 1
 478 392 l 1
 460 421 430 437 395 437 c 0
EndSplineSet
Validated: 3073
Substitution2: "'smcp' lowercase to small caps in Latin-1" sc.ostroke
EndChar

StartChar: thorn
Encoding: 254 254 187
Width: 611
Flags: HMW
LayerCount: 2
Fore
SplineSet
352 729 m 1
 295 460 l 1
 341 519 397 549 464 549 c 0
 569 549 637 468 637 343 c 0
 637 142 505 -23 344 -23 c 0
 274 -23 232 5 211 64 c 1
 151 -218 l 1
 11 -218 l 1
 212 729 l 1
 352 729 l 1
406 437 m 0
 320 437 246 327 246 202 c 0
 246 134 281 89 334 89 c 0
 420 89 494 197 494 323 c 0
 494 392 459 437 406 437 c 0
EndSplineSet
Validated: 3073
Substitution2: "'smcp' lowercase to small caps in Latin-1" sc.thorn
EndChar

StartChar: Aogonek
Encoding: 260 260 193
Width: 722
Flags: HMW
AnchorPoint: "above" 519 723 basechar 0
LayerCount: 2
Fore
SplineSet
469 -155 m 0
 469 -61 581 -15 625 0 c 1
 550 0 l 1
 532 147 l 1
 260 147 l 1
 179 0 l 1
 26 0 l 1
 433 729 l 1
 606 729 l 1
 703 0 l 1
 625 -32 569 -91 569 -140 c 0
 569 -170 586 -183 624 -183 c 0
 650 -183 672 -180 696 -172 c 1
 685 -224 l 1
 654 -231 633 -233 605 -233 c 0
 518 -233 469 -205 469 -155 c 0
518 272 m 1
 483 555 l 1
 329 272 l 1
 518 272 l 1
EndSplineSet
Validated: 3073
MultipleSubs2: "'c2sc' caps to small caps in Latin pre-decompose-A" A ogonek.cmb
EndChar

StartChar: aogonek
Encoding: 261 261 194
Width: 556
Flags: HMW
AnchorPoint: "above" 391 550 basechar 0
LayerCount: 2
Fore
SplineSet
386 549 m 0
 547 549 578 476 578 428 c 0
 578 416 576 401 572 383 c 2
 509 83 l 1
 507 75 506 68 506 62 c 0
 506 47 512 34 527 17 c 1
 523 0 l 1
 435 -47 392 -93 392 -140 c 0
 392 -169 408 -183 443 -183 c 0
 474 -183 495 -180 519 -172 c 1
 509 -224 l 1
 477 -231 457 -233 428 -233 c 0
 340 -233 293 -206 293 -154 c 0
 293 -92 346 -39 449 0 c 1
 370 0 l 1
 365 11 363 17 363 27 c 0
 363 34 363 39 366 54 c 1
 306 0 257 -23 199 -23 c 0
 110 -23 50 30 50 108 c 0
 50 149 80 282 252 311 c 2
 310 320 l 2
 359 327 436 331 436 394 c 0
 436 424 414 437 363 437 c 0
 299 437 268 417 251 362 c 1
 120 362 l 1
 148 492 229 549 386 549 c 0
400 217 m 1
 408 255 l 1
 391 245 392 247 361 241 c 2
 295 230 l 2
 230 219 193 186 193 139 c 0
 193 106 218 89 266 89 c 0
 334 89 382 135 400 217 c 1
EndSplineSet
Validated: 3073
MultipleSubs2: "'smcp' small caps in Latin pre-decompose-A" a ogonek.cmb
EndChar

StartChar: Dcroat
Encoding: 272 272 205
Width: 722
Flags: HMW
LayerCount: 2
Fore
SplineSet
150 341 m 1
 73 341 l 1
 90 421 l 1
 166 421 l 1
 232 729 l 1
 517 729 l 2
 698 729 776 654 776 479 c 0
 776 361 735 238 664 140 c 0
 591 39 507 0 362 0 c 2
 77 0 l 1
 150 341 l 1
300 341 m 1
 254 125 l 1
 388 125 l 2
 475 125 524 153 567 228 c 0
 601 287 627 390 627 469 c 0
 627 560 582 604 490 604 c 2
 355 604 l 1
 316 421 l 1
 490 421 l 1
 473 341 l 1
 300 341 l 1
EndSplineSet
Validated: 3073
Substitution2: "'c2sc' caps to small caps in Latin-1" sc.eth
EndChar

StartChar: dcroat
Encoding: 273 273 206
Width: 611
Flags: HMW
LayerCount: 2
Fore
SplineSet
551 689 m 1
 560 729 l 1
 700 729 l 1
 691 689 l 1
 751 689 l 1
 732 596 l 1
 672 596 l 1
 545 0 l 1
 405 0 l 1
 417 55 l 1
 371 2 318 -23 251 -23 c 0
 147 -23 79 59 79 185 c 0
 79 267 108 357 157 428 c 0
 210 503 291 549 372 549 c 0
 440 549 482 524 505 470 c 1
 532 596 l 1
 392 596 l 1
 411 689 l 1
 551 689 l 1
380 437 m 0
 297 437 222 327 222 206 c 0
 222 134 256 89 309 89 c 0
 394 89 468 197 468 323 c 0
 468 392 434 437 380 437 c 0
EndSplineSet
Validated: 3073
Substitution2: "'smcp' lowercase to small caps in Latin-1" sc.eth
EndChar

StartChar: Eogonek
Encoding: 280 280 213
Width: 667
Flags: HMW
AnchorPoint: "above" 519 723 basechar 0
LayerCount: 2
Fore
SplineSet
395 -156 m 0
 395 -98 442 -37 551 0 c 1
 79 0 l 1
 234 729 l 1
 762 729 l 1
 735 604 l 1
 357 604 l 1
 322 439 l 1
 671 439 l 1
 645 314 l 1
 296 314 l 1
 256 125 l 1
 651 125 l 1
 624 0 l 1
 533 -51 495 -93 495 -143 c 0
 495 -170 512 -183 549 -183 c 0
 576 -183 598 -180 622 -172 c 1
 611 -224 l 1
 580 -231 559 -233 531 -233 c 0
 444 -233 395 -205 395 -156 c 0
EndSplineSet
Validated: 3073
MultipleSubs2: "'c2sc' caps to small caps in Latin pre-decompose-A" E ogonek.cmb
EndChar

StartChar: eogonek
Encoding: 281 281 214
Width: 556
Flags: HMW
AnchorPoint: "above" 381 550 basechar 0
LayerCount: 2
Fore
SplineSet
552 152 m 1
 488 19 321 -38 321 -140 c 0
 321 -168 339 -183 372 -183 c 0
 398 -183 423 -179 443 -172 c 1
 432 -224 l 1
 401 -230 380 -233 356 -233 c 0
 271 -233 222 -203 222 -152 c 0
 222 -101 249 -69 335 -17 c 1
 308 -22 295 -24 276 -24 c 0
 150 -24 64 61 64 184 c 0
 64 264 111 549 379 549 c 0
 507 549 591 467 591 351 c 0
 591 313 585 271 573 226 c 1
 210 226 l 1
 207 198 207 190 207 181 c 0
 207 126 245 89 302 89 c 0
 350 89 394 114 414 152 c 1
 552 152 l 1
448 334 m 2
 448 389 432 437 362 437 c 0
 282 437 245 379 228 319 c 1
 448 319 l 1
 448 334 l 2
EndSplineSet
Validated: 3073
MultipleSubs2: "'smcp' small caps in Latin pre-decompose-A" e ogonek.cmb
EndChar

StartChar: Hbar
Encoding: 294 294 227
Width: 722
Flags: HMW
LayerCount: 2
Fore
SplineSet
719 659 m 1
 779 659 l 1
 753 532 l 1
 693 532 l 1
 580 0 l 1
 430 0 l 1
 500 331 l 1
 211 331 l 1
 141 0 l 1
 -9 0 l 1
 104 532 l 1
 44 532 l 1
 70 659 l 1
 130 659 l 1
 145 729 l 1
 295 729 l 1
 280 659 l 1
 568 659 l 1
 583 729 l 1
 734 729 l 1
 719 659 l 1
542 532 m 1
 254 532 l 1
 237 456 l 1
 525 456 l 1
 542 532 l 1
EndSplineSet
Validated: 3073
Substitution2: "'c2sc' caps to small caps in Latin-1" sc.hbar
Substitution2: "'sups' superscript-Latin-D" Hbarsup
EndChar

StartChar: hbar
Encoding: 295 295 228
Width: 611
Flags: HMW
LayerCount: 2
Fore
SplineSet
482 549 m 0
 542 549 625 523 625 421 c 0
 625 403 623 384 618 362 c 2
 542 0 l 1
 402 0 l 1
 472 330 l 2
 475 346 477 358 477 367 c 0
 477 409 447 430 407 430 c 0
 344 430 290 386 276 324 c 2
 208 0 l 1
 68 0 l 1
 194 596 l 1
 135 596 l 1
 154 689 l 1
 213 689 l 1
 222 729 l 1
 362 729 l 1
 353 689 l 1
 487 689 l 1
 468 596 l 1
 334 596 l 1
 306 462 l 1
 357 521 413 549 482 549 c 0
EndSplineSet
Validated: 3073
Substitution2: "'smcp' lowercase to small caps in Latin-1" sc.hbar
EndChar

StartChar: Iogonek
Encoding: 302 302 235
Width: 278
Flags: HMW
AnchorPoint: "above" 297 723 basechar 0
LayerCount: 2
Fore
SplineSet
368 729 m 1
 213 0 l 1
 153 -32 104 -95 104 -139 c 0
 104 -167 121 -183 150 -183 c 0
 164 -183 192 -178 210 -172 c 1
 199 -224 l 1
 165 -231 151 -233 128 -233 c 0
 53 -233 7 -204 7 -155 c 0
 7 -98 49 -50 139 0 c 1
 63 0 l 1
 218 729 l 1
 368 729 l 1
EndSplineSet
Validated: 3073
MultipleSubs2: "'c2sc' caps to small caps in Latin pre-decompose-A" I ogonek.cmb
EndChar

StartChar: iogonek
Encoding: 303 303 236
Width: 278
Flags: HMW
AnchorPoint: "above" 279 723 basechar 0
LayerCount: 2
Fore
SplineSet
311 540 m 1
 196 0 l 1
 132 -45 96 -95 96 -140 c 0
 96 -167 112 -182 143 -182 c 0
 158 -182 163 -181 193 -172 c 1
 182 -224 l 1
 141 -233 138 -233 119 -233 c 0
 45 -233 0 -202 0 -150 c 0
 0 -98 36 -56 129 0 c 1
 56 0 l 1
 171 540 l 1
 311 540 l 1
351 729 m 1
 325 604 l 1
 185 604 l 1
 211 729 l 1
 351 729 l 1
EndSplineSet
Validated: 3073
MultipleSubs2: "subst. i-ogonek with dotless-i+-ogonek" dotlessi ogonek.cmb
MultipleSubs2: "'smcp' small caps in Latin pre-decompose-A" i ogonek.cmb
EndChar

StartChar: dotlessi
Encoding: 305 305 238
Width: 278
Flags: HMW
AnchorPoint: "ogonek" 177 0 basechar 0
AnchorPoint: "below" 140 0 basechar 0
AnchorPoint: "above" 261 550 basechar 0
LayerCount: 2
Fore
SplineSet
322 540 m 1
 207 0 l 1
 67 0 l 1
 182 540 l 1
 322 540 l 1
EndSplineSet
Validated: 3073
Substitution2: "'smcp' lowercase to small caps in Latin-1" sc.i
Substitution2: "'smcp' small to small caps in Latin for Turkish 1" sc.i
EndChar

StartChar: IJ
Encoding: 306 306 239
Width: 622
Flags: HMW
LayerCount: 2
Fore
SplineSet
368 729 m 1
 287 350 l 1
 137 350 l 1
 218 729 l 1
 368 729 l 1
286 -23 m 0
 199 -23 98 11 98 136 c 0
 98 155 100 175 105 198 c 2
 114 240 l 1
 264 240 l 1
 256 200 l 2
 253 186 251 173 251 162 c 0
 251 122 271 105 316 105 c 0
 368 105 403 135 415 190 c 2
 530 729 l 1
 680 729 l 1
 565 190 l 2
 536 54 435 -23 286 -23 c 0
EndSplineSet
Validated: 3073
Substitution2: "'c2sc' caps to small caps in Latin-1" sc.ij
Ligature2: "'liga' std. ligatures in Latin for Dutch-1" I J
EndChar

StartChar: kgreenlandic
Encoding: 312 312 245
Width: 529
Flags: HMW
LayerCount: 2
Fore
SplineSet
274 351 m 1
 476 540 l 1
 624 540 l 1
 358 296 l 1
 548 0 l 1
 366 0 l 1
 241 198 l 1
 199 0 l 1
 59 0 l 1
 174 540 l 1
 314 540 l 1
 274 351 l 1
EndSplineSet
Validated: 3073
EndChar

StartChar: Lslash
Encoding: 321 321 254
Width: 611
Flags: HMW
LayerCount: 2
Fore
SplineSet
338 421 m 1
 525 531 l 1
 505 437 l 1
 318 327 l 1
 275 125 l 1
 624 125 l 1
 597 0 l 1
 98 0 l 1
 154 262 l 1
 54 201 l 1
 74 295 l 1
 174 356 l 1
 253 729 l 1
 403 729 l 1
 338 421 l 1
EndSplineSet
Validated: 3073
Substitution2: "'c2sc' caps to small caps in Latin-1" sc.lslash
EndChar

StartChar: lslash
Encoding: 322 322 255
Width: 278
Flags: HMW
LayerCount: 2
Fore
SplineSet
296 435 m 1
 372 480 l 1
 355 398 l 1
 279 353 l 1
 204 0 l 1
 64 0 l 1
 126 294 l 1
 50 246 l 1
 67 329 l 1
 143 376 l 1
 219 729 l 1
 359 729 l 1
 296 435 l 1
EndSplineSet
Validated: 3073
Substitution2: "'smcp' lowercase to small caps in Latin-1" sc.lslash
EndChar

StartChar: OE
Encoding: 338 338 269
Width: 1000
Flags: HMW
LayerCount: 2
Fore
SplineSet
692 314 m 1
 652 125 l 1
 997 125 l 1
 971 0 l 1
 481 0 l 1
 493 59 l 1
 437 -1 393 -23 326 -23 c 0
 185 -23 90 84 90 245 c 0
 90 377 146 527 230 619 c 0
 303 700 388 741 482 741 c 0
 548 741 588 723 625 677 c 1
 636 729 l 1
 1107 729 l 1
 1080 604 l 1
 754 604 l 1
 719 439 l 1
 1017 439 l 1
 990 314 l 1
 692 314 l 1
482 613 m 0
 288 613 239 354 239 274 c 0
 239 168 292 105 383 105 c 0
 436 105 474 126 513 178 c 1
 590 540 l 1
 571 591 538 613 482 613 c 0
EndSplineSet
Validated: 3073
Substitution2: "'c2sc' caps to small caps in Latin-1" OEsmallcap
EndChar

StartChar: oe
Encoding: 339 339 270
Width: 962
Flags: HMW
AnchorPoint: "above" 614 552 basechar 0
AnchorPoint: "below" 499 0 basechar 0
LayerCount: 2
Fore
SplineSet
789 549 m 0
 919 549 997 461 997 351 c 0
 997 313 991 271 979 226 c 1
 617 226 l 1
 611 200 610 188 610 174 c 0
 610 124 649 89 706 89 c 0
 755 89 800 114 820 152 c 1
 958 152 l 1
 905 45 796 -23 677 -23 c 0
 603 -23 537 6 509 50 c 1
 457 4 380 -23 299 -23 c 0
 165 -23 82 53 82 176 c 0
 82 370 209 549 414 549 c 0
 493 549 560 522 594 477 c 1
 640 522 714 549 789 549 c 0
324 89 m 0
 458 89 491 265 491 320 c 0
 491 391 452 437 391 437 c 0
 301 437 225 332 225 205 c 0
 225 135 264 89 324 89 c 0
854 319 m 1
 854 347 l 2
 854 404 823 437 769 437 c 0
 705 437 659 396 638 319 c 1
 854 319 l 1
EndSplineSet
Validated: 3073
Substitution2: "'smcp' lowercase to small caps in Latin-1" OEsmallcap
Substitution2: "'sups' superscript-Latin-D" oesup
EndChar

StartChar: Scedilla
Encoding: 350 350 281
Width: 667
Flags: HMW
LayerCount: 2
Fore
SplineSet
151 472 m 0
 151 621 274 741 473 741 c 0
 631 741 725 677 725 569 c 0
 725 549 723 535 717 507 c 1
 577 507 l 1
 578 516 579 525 579 530 c 0
 579 584 532 613 447 613 c 0
 356 613 300 573 300 509 c 0
 300 471 327 455 421 436 c 2
 530 414 l 2
 632 394 687 342 687 265 c 0
 687 153 621 -20 347 -23 c 1
 320 -62 l 1
 335 -58 349 -56 364 -56 c 0
 403 -56 427 -77 427 -113 c 0
 427 -178 367 -220 277 -220 c 0
 232 -220 200 -213 144 -191 c 1
 174 -140 l 1
 221 -163 244 -170 273 -170 c 0
 310 -170 340 -150 340 -126 c 0
 340 -106 322 -93 296 -93 c 0
 279 -93 267 -96 243 -106 c 1
 298 -22 l 1
 153 0 76 55 76 174 c 0
 76 188 77 198 80 218 c 1
 226 218 l 1
 225 209 224 200 224 196 c 0
 224 138 276 105 367 105 c 0
 471 105 538 149 538 216 c 0
 538 262 509 283 418 301 c 2
 320 321 l 2
 201 345 151 389 151 472 c 0
EndSplineSet
Validated: 3073
MultipleSubs2: "'c2sc' caps to small caps in Latin pre-decompose-A" S cedilla.cmb
EndChar

StartChar: scedilla
Encoding: 351 351 282
Width: 556
Flags: HMW
LayerCount: 2
Fore
SplineSet
127 345 m 0
 127 460 231 549 387 549 c 0
 513 549 589 494 589 404 c 0
 589 393 588 384 584 366 c 1
 449 366 l 1
 451 375 452 379 452 385 c 0
 452 417 419 437 364 437 c 0
 311 437 276 416 276 384 c 0
 276 364 290 354 341 339 c 2
 437 311 l 2
 520 286 559 247 559 187 c 0
 559 60 454 -22 288 -22 c 1
 262 -62 l 1
 277 -58 290 -56 305 -56 c 0
 344 -56 368 -77 368 -113 c 0
 368 -178 308 -220 218 -220 c 0
 173 -220 142 -213 85 -191 c 1
 115 -140 l 1
 162 -163 185 -170 213 -170 c 0
 251 -170 281 -150 281 -126 c 0
 281 -106 263 -93 237 -93 c 0
 220 -93 208 -96 184 -106 c 1
 238 -21 l 1
 202 -21 60 16 60 127 c 0
 60 135 61 143 64 157 c 1
 201 157 l 1
 204 99 265 89 307 89 c 0
 368 89 411 112 411 144 c 0
 411 167 398 176 335 196 c 2
 256 221 l 2
 168 250 127 289 127 345 c 0
EndSplineSet
Validated: 3073
MultipleSubs2: "'smcp' small caps in Latin pre-decompose-A" s cedilla.cmb
EndChar

StartChar: Tcedilla
Encoding: 354 354 285
Width: 611
Flags: HM
LayerCount: 2
Fore
SplineSet
514 604 m 1
 385 0 l 1
 348 0 l 1
 308 -61 l 1
 324 -57 336 -55 351 -55 c 0
 391 -55 415 -76 415 -112 c 0
 415 -177 355 -219 265 -219 c 0
 220 -219 188 -212 132 -190 c 1
 162 -139 l 1
 209 -162 232 -169 260 -169 c 0
 298 -169 328 -149 328 -125 c 0
 328 -105 310 -92 284 -92 c 0
 267 -92 255 -95 231 -105 c 1
 298 0 l 1
 235 0 l 1
 364 604 l 1
 142 604 l 1
 169 729 l 1
 753 729 l 1
 726 604 l 1
 514 604 l 1
EndSplineSet
Validated: 3073
MultipleSubs2: "'c2sc' caps to small caps in Latin pre-decompose-A" T cedilla.cmb
EndChar

StartChar: tcedilla
Encoding: 355 355 286
Width: 333
Flags: HM
LayerCount: 2
Fore
SplineSet
414 529 m 1
 394 436 l 1
 316 436 l 1
 254 142 l 2
 250 125 248 113 248 108 c 0
 248 93 263 83 286 83 c 0
 297 83 305 84 319 86 c 1
 299 -12 l 1
 271 -20 247 -23 214 -23 c 0
 211 -23 208 -23 205 -23 c 1
 174 -70 l 1
 190 -66 202 -64 217 -64 c 0
 257 -64 281 -85 281 -121 c 0
 281 -186 221 -228 131 -228 c 0
 86 -228 54 -221 -2 -199 c 1
 28 -148 l 1
 75 -171 98 -178 126 -178 c 0
 164 -178 194 -158 194 -134 c 0
 194 -114 176 -101 150 -101 c 0
 133 -101 121 -104 97 -114 c 1
 160 -16 l 1
 121 -4 101 24 101 63 c 0
 101 76 103 90 106 104 c 2
 176 436 l 1
 107 436 l 1
 127 529 l 1
 196 529 l 1
 227 674 l 1
 367 674 l 1
 336 529 l 1
 414 529 l 1
EndSplineSet
Validated: 3073
MultipleSubs2: "'smcp' small caps in Latin pre-decompose-A" t cedilla.cmb
EndChar

StartChar: Uogonek
Encoding: 370 370 299
Width: 722
Flags: HMW
AnchorPoint: "above" 519 723 basechar 0
LayerCount: 2
Fore
SplineSet
569 -172 m 1
 558 -224 l 1
 528 -230 506 -233 482 -233 c 0
 393 -233 342 -205 342 -157 c 0
 342 -69 435 -27 473 -10 c 1
 423 -20 400 -23 368 -23 c 0
 215 -23 119 50 119 167 c 0
 119 189 123 222 130 255 c 2
 231 729 l 1
 381 729 l 1
 276 235 l 1
 273 219 271 205 271 190 c 0
 271 137 316 105 394 105 c 0
 485 105 535 145 554 235 c 2
 659 729 l 1
 809 729 l 1
 704 235 l 2
 659 38 553 45 474 -63 c 0
 452 -93 442 -117 442 -139 c 0
 442 -169 460 -183 498 -183 c 0
 524 -183 548 -179 569 -172 c 1
EndSplineSet
Validated: 3073
MultipleSubs2: "'c2sc' caps to small caps in Latin pre-decompose-A" U ogonek.cmb
EndChar

StartChar: uogonek
Encoding: 371 371 300
Width: 611
Flags: HMW
AnchorPoint: "above" 421 550 basechar 0
LayerCount: 2
Fore
SplineSet
656 540 m 1
 541 0 l 1
 461 -41 416 -92 416 -142 c 0
 416 -169 434 -183 469 -183 c 0
 491 -183 515 -179 537 -172 c 1
 526 -224 l 1
 483 -233 482 -233 456 -233 c 0
 364 -233 317 -206 317 -154 c 0
 317 -94 365 -45 466 0 c 1
 401 0 l 1
 416 68 l 1
 362 4 308 -23 234 -23 c 0
 146 -23 88 29 88 109 c 0
 88 127 90 145 94 164 c 2
 174 540 l 1
 314 540 l 1
 244 213 l 1
 240 190 238 178 238 164 c 0
 238 115 264 89 314 89 c 0
 379 89 431 141 448 222 c 0
 516 540 l 1
 656 540 l 1
EndSplineSet
Validated: 3073
MultipleSubs2: "'smcp' small caps in Latin pre-decompose-A" u ogonek.cmb
EndChar

StartChar: longs
Encoding: 383 383 312
Width: 333
Flags: HMW
LayerCount: 2
Fore
SplineSet
230 0 m 1
 90 0 l 1
 183 436 l 1
 106 436 l 1
 126 529 l 1
 202 529 l 1
 216 594 l 2
 236 687 289 729 387 729 c 0
 405 729 422 728 464 726 c 1
 442 621 l 1
 415 624 410 625 400 625 c 0
 375 625 360 611 354 582 c 0
 230 0 l 1
EndSplineSet
Validated: 3073
Substitution2: "'smcp' lowercase to small caps in Latin-1" sc.s
EndChar

StartChar: circumflex
Encoding: 710 710 317
Width: 333
Flags: HMW
LayerCount: 2
Fore
SplineSet
274 757 m 1
 382 757 l 1
 453 610 l 1
 375 610 l 1
 314 707 l 1
 211 610 l 1
 135 610 l 1
 274 757 l 1
EndSplineSet
Validated: 3073
EndChar

StartChar: caron
Encoding: 711 711 318
Width: 333
Flags: HMW
LayerCount: 2
Fore
SplineSet
346 610 m 1
 238 610 l 1
 167 757 l 1
 245 757 l 1
 306 660 l 1
 409 757 l 1
 485 757 l 1
 346 610 l 1
EndSplineSet
Validated: 3073
EndChar

StartChar: breve
Encoding: 728 728 319
Width: 333
Flags: HMW
LayerCount: 2
Fore
SplineSet
413 754 m 1
 455 754 l 1
 441 672 373 611 294 611 c 0
 231 611 188 653 188 715 c 0
 188 727 189 736 194 754 c 1
 236 754 l 1
 236 746 l 2
 236 710 263 689 310 689 c 0
 361 689 396 711 413 754 c 1
EndSplineSet
Validated: 3073
EndChar

StartChar: dotaccent
Encoding: 729 729 320
Width: 333
Flags: HMW
LayerCount: 2
Fore
SplineSet
377 741 m 1
 351 621 l 1
 241 621 l 1
 267 741 l 1
 377 741 l 1
EndSplineSet
Validated: 3073
EndChar

StartChar: ring
Encoding: 730 730 321
Width: 333
Flags: HMW
LayerCount: 2
Fore
SplineSet
326 773 m 0
 368 773 398 743 398 702 c 0
 398 645 344 593 286 593 c 0
 244 593 214 623 214 664 c 0
 214 721 268 773 326 773 c 0
316 723 m 0
 289 723 263 700 263 675 c 0
 263 657 277 643 297 643 c 0
 324 643 349 667 349 692 c 0
 349 710 335 723 316 723 c 0
EndSplineSet
Validated: 3073
EndChar

StartChar: ogonek
Encoding: 731 731 322
Width: 333
Flags: HMW
LayerCount: 2
Fore
SplineSet
23 -157 m 0
 23 -89 73 -42 174 0 c 1
 248 0 l 1
 217 -18 123 -68 123 -143 c 0
 123 -169 140 -183 173 -183 c 0
 199 -183 224 -179 244 -172 c 1
 234 -224 l 1
 202 -230 181 -233 157 -233 c 0
 74 -233 23 -204 23 -157 c 0
EndSplineSet
Validated: 3073
EndChar

StartChar: tilde
Encoding: 732 732 323
Width: 333
Flags: HMW
LayerCount: 2
Fore
SplineSet
486 744 m 1
 461 654 420 622 367 622 c 0
 322 622 286 652 252 652 c 0
 234 652 221 650 207 624 c 1
 143 624 l 1
 166 699 194 742 248 742 c 0
 299 742 338 713 372 713 c 0
 395 713 408 717 422 744 c 1
 486 744 l 1
EndSplineSet
Validated: 3073
EndChar

StartChar: hungarumlaut
Encoding: 733 733 324
Width: 333
Flags: HMW
LayerCount: 2
Fore
SplineSet
310 757 m 1
 152 610 l 1
 82 610 l 1
 184 757 l 1
 310 757 l 1
498 757 m 1
 340 610 l 1
 270 610 l 1
 372 757 l 1
 498 757 l 1
EndSplineSet
Validated: 3073
EndChar

StartChar: gravedbl.cmb
Encoding: 783 783 336
Width: 0
Flags: HMW
AnchorPoint: "cyr-above" -15 550 mark 0
AnchorPoint: "above" -30 560 mark 0
LayerCount: 2
Fore
SplineSet
-64 757 m 1
 55 757 l 1
 100 607 l 1
 37 607 l 1
 -64 757 l 1
-252 757 m 1
 -133 757 l 1
 -88 607 l 1
 -151 607 l 1
 -252 757 l 1
EndSplineSet
Validated: 3073
EndChar

StartChar: commaabv.cmb
Encoding: 787 787 338
Width: 0
Flags: HMW
AnchorPoint: "above" -165 538 mark 0
LayerCount: 2
Fore
SplineSet
-185 740 m 1
 -78 740 l 1
 -93 671 l 2
 -105 614 -163 583 -219 583 c 1
 -210 625 l 1
 -207 625 l 0
 -188 625 -169 626 -159 670 c 1
 -200 670 l 1
 -185 740 l 1
EndSplineSet
Validated: 3073
Substitution2: "'locl' local forms in Greek-diacritic equivalents-1" gk_psili.cmb
EndChar

StartChar: uni0374
Encoding: 884 884 340
Width: 208
Flags: HMW
LayerCount: 2
Fore
SplineSet
172 706 m 1
 40 575 l 1
 25 649 l 1
 113 789 l 1
 172 706 l 1
EndSplineSet
Validated: 3073
EndChar

StartChar: uni0375
Encoding: 885 885 341
Width: 247
Flags: HMW
LayerCount: 2
Fore
SplineSet
82 -182 m 1
 -1 -123 l 1
 139 -35 l 1
 213 -50 l 1
 82 -182 l 1
EndSplineSet
Validated: 3073
EndChar

StartChar: ypogegrammeni
Encoding: 890 890 342
Width: 364
Flags: HMW
LayerCount: 2
Fore
SplineSet
223 -163 m 0
 238 -163 246 -157 257 -139 c 1
 282 -139 l 1
 269 -199 218 -200 160 -200 c 0
 118 -200 100 -182 100 -149 c 0
 100 -140 101 -131 103 -121 c 2
 115 -61 l 1
 218 -61 l 1
 210 -107 209 -125 209 -145 c 0
 209 -154 213 -163 223 -163 c 0
EndSplineSet
Validated: 3073
EndChar

StartChar: Xi
Encoding: 926 926 348
Width: 730
Flags: HMW
AnchorPoint: "above" 519 723 basechar 0
LayerCount: 2
Fore
SplineSet
785 604 m 1
 218 604 l 1
 244 729 l 1
 812 729 l 1
 785 604 l 1
653 314 m 1
 203 314 l 1
 229 439 l 1
 679 439 l 1
 653 314 l 1
643 0 m 1
 59 0 l 1
 86 125 l 1
 670 125 l 1
 643 0 l 1
EndSplineSet
Validated: 3073
Substitution2: "'c2sc' caps to small caps in Greek-1" sc.xi
EndChar

StartChar: Pi
Encoding: 928 928 350
Width: 821
Flags: HMW
AnchorPoint: "above" 519 723 basechar 0
LayerCount: 2
Fore
SplineSet
680 1 m 1
 536 1 l 1
 663 604 l 1
 341 604 l 1
 213 1 l 1
 59 1 l 1
 221 729 l 1
 841 729 l 1
 680 1 l 1
EndSplineSet
Validated: 3073
Substitution2: "'c2sc' caps to small caps in Greek-1" sc.pi
EndChar

StartChar: Sigma
Encoding: 931 931 352
Width: 728
Flags: HMW
AnchorPoint: "above" 479 723 basechar 0
LayerCount: 2
Fore
SplineSet
594 0 m 1
 49 0 l 1
 70 98 l 1
 320 386 l 1
 182 625 l 1
 204 729 l 1
 732 729 l 1
 706 604 l 1
 372 604 l 1
 501 386 l 1
 260 125 l 1
 618 125 l 1
 594 0 l 1
EndSplineSet
Validated: 3073
Substitution2: "'c2sc' caps to small caps in Greek-1" sc.sigma
EndChar

StartChar: Phi
Encoding: 934 934 355
Width: 817
Flags: HMW
AnchorPoint: "above" 459 723 basechar 0
LayerCount: 2
Fore
SplineSet
520 662 m 1
 668 652 752 551 752 435 c 0
 752 271 632 63 397 49 c 1
 382 -25 l 1
 236 -25 l 1
 251 49 l 1
 109 58 26 149 26 269 c 0
 26 431 140 647 378 662 c 1
 394 745 l 1
 536 745 l 1
 520 662 l 1
428 171 m 1
 558 200 607 311 607 407 c 0
 607 484 552 523 500 536 c 1
 428 171 l 1
356 536 m 1
 215 505 172 393 172 303 c 0
 172 224 224 184 279 171 c 1
 356 536 l 1
EndSplineSet
Validated: 3073
Substitution2: "'c2sc' caps to small caps in Greek-1" sc.phi
EndChar

StartChar: Psi
Encoding: 936 936 357
Width: 845
Flags: HMW
AnchorPoint: "above" 499 723 basechar 0
LayerCount: 2
Fore
SplineSet
214 326 m 0
 214 280 232 246 324 246 c 1
 427 725 l 1
 566 725 l 1
 460 246 l 1
 564 246 613 283 634 380 c 2
 710 732 l 1
 852 746 l 1
 771 368 l 2
 719 127 467 121 435 121 c 1
 405 -27 l 1
 261 -27 l 1
 292 121 l 1
 153 121 68 153 68 288 c 0
 68 312 73 339 79 368 c 2
 163 746 l 1
 301 732 l 1
 222 380 l 2
 217 359 214 341 214 326 c 0
EndSplineSet
Validated: 3073
Substitution2: "'c2sc' caps to small caps in Greek-1" sc.psi
EndChar

StartChar: Omega
Encoding: 937 937 358
Width: 820
Flags: HMW
AnchorPoint: "above" 529 723 basechar 0
AnchorPoint: "below_gk" 345 -24 basechar 0
AnchorPoint: "above_gk" 526 716 basechar 0
LayerCount: 2
Fore
SplineSet
817 475 m 0
 817 325 748 208 623 126 c 1
 741 126 l 1
 710 0 l 1
 386 0 l 1
 416 121 l 1
 490 149 673 223 673 446 c 0
 673 518 634 616 500 616 c 0
 332 616 229 449 229 301 c 0
 229 195 282 152 344 122 c 1
 314 0 l 1
 0 0 l 1
 31 126 l 1
 153 126 l 1
 108 176 90 222 90 287 c 0
 90 483 258 742 529 742 c 0
 754 742 817 597 817 475 c 0
EndSplineSet
Validated: 3073
Substitution2: "'c2sc' caps to small caps in Greek-1" sc.omega
EndChar

StartChar: alpha
Encoding: 945 945 366
Width: 632
Flags: HMW
AnchorPoint: "above" 357 552 basechar 0
AnchorPoint: "below_gk" 240 -24 basechar 0
AnchorPoint: "above_gk" 364 578 basechar 0
LayerCount: 2
Fore
SplineSet
422 323 m 0
 422 376 401 424 331 424 c 0
 227 424 169 319 169 201 c 0
 169 144 194 106 262 106 c 0
 352 106 422 193 422 323 c 0
356 542 m 1
 425 540 462 525 493 492 c 1
 501 533 l 1
 624 533 l 1
 534 108 l 1
 573 130 l 1
 585 16 l 1
 535 -5 496 -15 467 -15 c 0
 432 -15 402 7 393 27 c 1
 347 0 296 -14 238 -14 c 0
 96 -14 35 53 35 169 c 0
 35 432 227 542 356 542 c 1
EndSplineSet
Validated: 3073
Substitution2: "'smcp' lowercase to small caps in Greek-1" sc.a
EndChar

StartChar: beta
Encoding: 946 946 367
Width: 600
Flags: HMW
AnchorPoint: "above" 389 723 basechar 0
LayerCount: 2
Fore
SplineSet
111 473 m 2
 140 610 206 721 386 721 c 0
 508 721 573 665 573 573 c 0
 573 474 501 405 473 386 c 1
 527 363 559 319 559 254 c 0
 559 93 425 -18 277 -18 c 0
 218 -18 176 -7 148 15 c 1
 105 -190 l 1
 -30 -190 l 1
 111 473 l 2
375 608 m 0
 292 608 265 566 245 472 c 2
 179 155 l 1
 185 121 214 97 284 97 c 0
 335 97 418 133 418 235 c 0
 418 278 391 309 301 309 c 2
 227 309 l 1
 251 424 l 1
 317 424 l 2
 413 424 449 491 449 545 c 0
 449 584 420 608 375 608 c 0
EndSplineSet
Validated: 3073
Substitution2: "'sups' superscript-phonetic" betasup
Substitution2: "'smcp' lowercase to small caps in Greek-1" sc.b
Substitution2: "'subs' subscript-phonetic" betasub
EndChar

StartChar: gamma
Encoding: 947 947 368
Width: 573
Flags: HMW
AnchorPoint: "above" 357 552 basechar 0
LayerCount: 2
Fore
SplineSet
627 536 m 1
 326 42 l 1
 275 -199 l 1
 140 -199 l 1
 191 41 l 1
 119 373 l 2
 109 420 105 427 97 427 c 0
 89 427 74 425 56 411 c 1
 69 511 l 2
 75 540 130 548 142 548 c 0
 193 548 236 513 249 446 c 2
 293 212 l 1
 488 536 l 1
 627 536 l 1
EndSplineSet
Validated: 3073
Substitution2: "'sups' superscript-phonetic" gammasup
Substitution2: "'smcp' lowercase to small caps in Greek-1" sc.gamma
Substitution2: "'subs' subscript-phonetic" gammasub
EndChar

StartChar: delta
Encoding: 948 948 369
Width: 622
Flags: HMW
AnchorPoint: "above" 419 723 basechar 0
LayerCount: 2
Fore
SplineSet
279 120 m 0
 411 120 456 223 456 313 c 0
 456 362 435 414 347 414 c 0
 254 414 181 325 181 214 c 0
 181 151 214 120 279 120 c 0
295 519 m 1
 159 624 l 1
 181 727 l 1
 629 727 l 1
 604 613 l 1
 387 613 l 1
 484 537 l 2
 520 509 597 458 597 338 c 0
 597 83 413 -3 252 -3 c 0
 166 -3 36 27 36 183 c 0
 36 419 236 508 295 519 c 1
EndSplineSet
Validated: 3073
Substitution2: "'sups' superscript-phonetic" deltasup
Substitution2: "'smcp' lowercase to small caps in Greek-1" sc.delta
EndChar

StartChar: epsilon
Encoding: 949 949 370
Width: 571
Flags: HMW
AnchorPoint: "above" 347 552 basechar 0
AnchorPoint: "below_gk" 220 -24 basechar 0
AnchorPoint: "above_gk" 354 572 basechar 0
LayerCount: 2
Fore
SplineSet
518 174 m 1
 483 79 429 -10 227 -10 c 0
 88 -10 18 31 18 113 c 0
 18 195 61 240 112 268 c 1
 84 288 68 313 68 350 c 0
 68 500 197 545 345 547 c 1
 354 547 l 2
 545 547 558 466 558 362 c 1
 431 362 l 1
 431 403 416 434 318 434 c 0
 244 434 201 415 201 364 c 0
 201 328 236 319 293 319 c 2
 364 319 l 1
 342 217 l 1
 271 217 l 2
 206 217 154 205 154 147 c 0
 154 118 186 103 248 103 c 0
 350 103 379 139 391 174 c 1
 518 174 l 1
EndSplineSet
Validated: 3073
Substitution2: "'smcp' lowercase to small caps in Greek-1" sc.e
EndChar

StartChar: zeta
Encoding: 950 950 371
Width: 512
Flags: HMW
AnchorPoint: "above" 379 723 basechar 0
LayerCount: 2
Fore
SplineSet
178 201 m 0
 178 50 440 160 440 6 c 0
 440 -6 438 -18 435 -33 c 0
 426 -74 398 -133 348 -214 c 1
 233 -169 l 1
 275 -109 296 -72 300 -55 c 0
 302 -48 303 -42 303 -37 c 0
 303 -22 294 -21 267 -21 c 0
 214 -21 31 7 31 169 c 0
 31 357 175 520 310 616 c 1
 137 616 l 1
 162 736 l 1
 568 736 l 1
 548 638 l 1
 407 567 178 407 178 201 c 0
EndSplineSet
Validated: 3073
Substitution2: "'smcp' lowercase to small caps in Greek-1" sc.z
EndChar

StartChar: eta
Encoding: 951 951 372
Width: 598
Flags: HMW
AnchorPoint: "above" 367 552 basechar 0
AnchorPoint: "below_gk" 80 -24 basechar 0
AnchorPoint: "above_gk" 374 568 basechar 0
LayerCount: 2
Fore
SplineSet
71 414 m 1
 72 528 l 1
 111 541 142 548 166 548 c 0
 221 548 237 505 240 488 c 1
 277 529 349 547 401 547 c 0
 519 547 567 499 567 407 c 0
 567 381 563 352 556 319 c 2
 445 -200 l 1
 315 -163 l 1
 417 315 l 2
 421 334 424 351 424 366 c 0
 424 402 408 424 357 424 c 0
 282 424 234 378 214 284 c 2
 151 -16 l 1
 13 -16 l 1
 103 410 l 2
 104 417 100 419 94 419 c 0
 86 419 76 416 71 414 c 1
EndSplineSet
Validated: 3073
Substitution2: "'smcp' lowercase to small caps in Greek-1" sc.h
EndChar

StartChar: theta
Encoding: 952 952 373
Width: 595
Flags: HMW
AnchorPoint: "above" 409 730 basechar 0
AnchorPoint: "below" 245 0 basechar 0
LayerCount: 2
Fore
SplineSet
403 729 m 0
 492 729 599 692 599 507 c 0
 599 232 490 -16 245 -16 c 0
 124 -16 46 35 46 193 c 0
 46 545 250 729 403 729 c 0
454 420 m 1
 460 453 463 481 463 505 c 0
 463 583 433 614 379 614 c 0
 285 614 242 509 220 420 c 1
 454 420 l 1
196 305 m 1
 189 267 186 235 186 209 c 0
 186 129 216 101 269 101 c 0
 370 101 405 204 430 305 c 1
 196 305 l 1
EndSplineSet
Validated: 3073
Substitution2: "'smcp' lowercase to small caps in Greek-1" sc.theta
EndChar

StartChar: iota
Encoding: 953 953 374
Width: 341
Flags: HMW
AnchorPoint: "above" 197 552 basechar 0
AnchorPoint: "above_gk" 206 568 basechar 0
LayerCount: 2
Fore
SplineSet
183 160 m 2
 181 153 179 143 179 135 c 0
 179 124 183 116 195 116 c 0
 204 116 229 125 263 141 c 1
 284 14 l 1
 230 -6 186 -17 155 -17 c 0
 98 -17 35 7 35 94 c 0
 35 109 37 125 41 144 c 2
 125 540 l 1
 264 540 l 1
 183 160 l 2
EndSplineSet
Validated: 3073
Substitution2: "'smcp' lowercase to small caps in Greek-1" sc.i
EndChar

StartChar: kappa
Encoding: 954 954 375
Width: 567
Flags: HMW
AnchorPoint: "above" 347 552 basechar 0
LayerCount: 2
Fore
SplineSet
505 -8 m 1
 337 -8 l 1
 228 236 l 1
 191 206 l 1
 145 -8 l 1
 8 -8 l 1
 125 543 l 1
 262 543 l 1
 226 374 l 1
 432 543 l 1
 616 543 l 1
 346 329 l 1
 505 -8 l 1
EndSplineSet
Validated: 3073
Substitution2: "'locl' local forms in Greek-1" kappasymbol
Substitution2: "'smcp' lowercase to small caps in Greek-1" sc.k
EndChar

StartChar: lambda
Encoding: 955 955 376
Width: 589
Flags: HMW
AnchorPoint: "above" 419 723 basechar 0
LayerCount: 2
Fore
SplineSet
347 334 m 1
 154 -2 l 1
 10 -2 l 1
 318 515 l 1
 317 527 l 2
 310 603 291 610 261 610 c 0
 230 610 226 603 179 599 c 1
 220 721 l 1
 256 733 281 739 300 739 c 0
 422 739 431 630 447 532 c 2
 510 143 l 2
 514 116 517 113 522 113 c 0
 535 113 568 131 574 134 c 1
 584 22 l 1
 533 -2 495 -13 469 -13 c 0
 405 -13 396 27 388 76 c 2
 388 76 349 323 347 334 c 1
EndSplineSet
Validated: 3073
Substitution2: "'smcp' lowercase to small caps in Greek-1" sc.lambda
EndChar

StartChar: uni03BC
Encoding: 956 956 377
Width: 613
Flags: HMW
AnchorPoint: "above" 367 552 basechar 0
LayerCount: 2
Fore
SplineSet
288 103 m 0
 328 103 391 120 412 218 c 2
 481 543 l 1
 617 543 l 1
 537 164 l 2
 534 151 533 141 533 133 c 0
 533 105 544.909 104.364 549 104 c 9
 571 36 l 1
 511 1 496 0 481 0 c 0
 478 0 l 0
 438 0 409 17 400 46 c 1
 366 15 313 -9 261 -9 c 0
 219 -9 193 -1 163 22 c 1
 115 -202 l 1
 -23 -202 l 1
 135 543 l 1
 273 543 l 1
 204 218 l 2
 202 208 201 198 201 189 c 0
 201 139 232 103 288 103 c 0
EndSplineSet
Validated: 3073
Substitution2: "'smcp' lowercase to small caps in Greek-1" sc.m
EndChar

StartChar: nu
Encoding: 957 957 378
Width: 566
Flags: HMW
AnchorPoint: "above" 357 552 basechar 0
LayerCount: 2
Fore
SplineSet
631 543 m 1
 296 -25 l 1
 180 -25 l 1
 85 543 l 1
 231 543 l 1
 283 188 l 25
 487 543 l 1
 631 543 l 1
EndSplineSet
Validated: 3073
Substitution2: "'smcp' lowercase to small caps in Greek-1" sc.n
EndChar

StartChar: xi
Encoding: 958 958 379
Width: 539
Flags: HMW
AnchorPoint: "above" 399 723 basechar 0
LayerCount: 2
Fore
SplineSet
280 494 m 0
 280 462 303 427 405 427 c 2
 513 427 l 1
 489 316 l 1
 353 316 l 2
 263 316 176 263 176 185 c 0
 176 135 226 102 295 102 c 0
 398 102 478 95 478 11 c 0
 478 0 476 -13 473 -27 c 0
 464 -70 435 -130 385 -209 c 1
 274 -165 l 1
 293 -133 338 -57 343 -34 c 0
 344 -31 344 -29 344 -27 c 0
 344 -16 333 -14 278 -14 c 0
 141 -14 35 19 35 139 c 0
 35 254 80 318 199 377 c 1
 181 388 150 418 150 474 c 0
 150 538 178 578 214 615 c 1
 153 615 l 1
 177 731 l 1
 603 731 l 1
 579 615 l 1
 386 615 l 2
 334 615 280 545 280 494 c 0
EndSplineSet
Validated: 3073
Substitution2: "'smcp' lowercase to small caps in Greek-1" sc.xi
EndChar

StartChar: pi
Encoding: 960 960 381
Width: 658
Flags: HMW
AnchorPoint: "above" 407 552 basechar 0
LayerCount: 2
Fore
SplineSet
545 95 m 1
 549 95 593 124 599 127 c 1
 605 10 l 1
 577 0 530 -18 496 -18 c 0
 430 -18 404 9 404 62 c 0
 404 79 407 99 412 122 c 2
 477 427 l 1
 293 427 l 1
 199 -13 l 1
 57 -13 l 1
 151 427 l 1
 82 427 l 1
 106 545 l 1
 702 545 l 1
 677 427 l 1
 614 427 l 1
 549 124 l 2
 546 108 544 98 545 95 c 1
EndSplineSet
Validated: 3073
Substitution2: "'smcp' lowercase to small caps in Greek-1" sc.pi
EndChar

StartChar: rho
Encoding: 961 961 382
Width: 634
Flags: HMW
AnchorPoint: "above" 407 552 basechar 0
AnchorPoint: "above_gk" 410 564 basechar 0
LayerCount: 2
Fore
SplineSet
283 -8 m 0
 230 -8 195 5 164 28 c 1
 115 -203 l 1
 -23 -203 l 1
 79 277 l 2
 126 499 291 555 403 555 c 0
 497 555 622 513 622 356 c 0
 622 89 403 -8 283 -8 c 0
209 216 m 0
 209 135 261 112 309 112 c 0
 373 112 478 179 478 328 c 0
 478 413 423 437 378 437 c 0
 320 437 209 376 209 216 c 0
EndSplineSet
Validated: 3073
Substitution2: "'smcp' lowercase to small caps in Greek-1" sc.p
Substitution2: "'subs' subscript-phonetic" rhosub
EndChar

StartChar: sigmafinal
Encoding: 962 962 383
Width: 593
Flags: HMW
AnchorPoint: "above" 377 552 basechar 0
LayerCount: 2
Fore
SplineSet
185 229 m 0
 185 48 502 183 502 15 c 0
 502 4 500 -9 497 -23 c 0
 489 -61 467 -98 402 -205 c 1
 277 -157 l 1
 305 -117 329 -73 354 -28 c 0
 355 -25 349 -24 337 -24 c 0
 306 -21 41 -13 41 206 c 0
 41 416 204 554 381 554 c 0
 471 554 575 517 575 376 c 0
 575 353 572 327 566 298 c 1
 430 298 l 1
 434 318 437 335 437 351 c 0
 437 400 413 429 346 429 c 0
 290 429 185 371 185 229 c 0
EndSplineSet
Validated: 3073
Substitution2: "'smcp' lowercase to small caps in Greek-1" sc.sigma
EndChar

StartChar: sigma
Encoding: 963 963 384
Width: 662
Flags: HMW
AnchorPoint: "above" 377 552 basechar 0
LayerCount: 2
Fore
SplineSet
257 -12 m 0
 86 -12 39 95 39 195 c 0
 39 458 252 551 377 551 c 0
 396 551 412 547 428 547 c 0
 718 547 l 1
 691 421 l 1
 576 421 l 1
 588 394 594 365 594 334 c 0
 594 134 440 -12 257 -12 c 0
352 435 m 0
 233 435 182 309 182 213 c 0
 182 150 212 106 283 106 c 0
 343 106 452 169 452 328 c 0
 452 411 400 435 352 435 c 0
EndSplineSet
Validated: 3073
Substitution2: "'smcp' lowercase to small caps in Greek-1" sc.sigma
EndChar

StartChar: tau
Encoding: 964 964 385
Width: 557
Flags: HMW
AnchorPoint: "above" 347 552 basechar 0
LayerCount: 2
Fore
SplineSet
308 -12 m 0
 211 -12 183 26 183 85 c 0
 183 106 186 130 192 156 c 2
 250 428 l 1
 81 428 l 1
 105 542 l 1
 622 542 l 1
 598 428 l 1
 392 428 l 1
 336 163 l 2
 333 148 331 138 331 131 c 0
 331 118 337 118 352 118 c 0
 358 118 381 122 408 128 c 1
 413 3 l 1
 391 -1 344 -12 308 -12 c 0
EndSplineSet
Validated: 3073
Substitution2: "'smcp' lowercase to small caps in Greek-1" sc.t
EndChar

StartChar: upsilon
Encoding: 965 965 386
Width: 608
Flags: HMW
AnchorPoint: "above" 367 552 basechar 0
AnchorPoint: "above_gk" 373 556 basechar 0
LayerCount: 2
Fore
SplineSet
543 212 m 2
 513 73 451 -16 254 -16 c 0
 92 -16 44 39 44 126 c 0
 44 152 48 181 55 212 c 2
 125 540 l 1
 263 540 l 1
 199 238 l 2
 193 209 189 185 189 167 c 0
 189 121 211 105 277 105 c 0
 368 105 389 135 412 244 c 2
 475 540 l 1
 613 540 l 1
 543 212 l 2
EndSplineSet
Validated: 3073
Substitution2: "'smcp' lowercase to small caps in Greek-1" sc.upsilon
EndChar

StartChar: phi
Encoding: 966 966 387
Width: 788
Flags: HMW
AnchorPoint: "above" 467 552 basechar 0
LayerCount: 2
Fore
SplineSet
442 112 m 1
 536 112 622 187 622 296 c 0
 622 362 581 411 505 411 c 1
 442 112 l 1
263 527 m 1
 323 427 l 1
 248 383 178 325 178 233 c 0
 178 166 226 112 309 112 c 1
 401 545 l 1
 510 545 l 2
 670 545 760 451 760 323 c 0
 760 141 622 -14 416 -14 c 1
 377 -196 l 1
 238 -196 l 1
 277 -14 l 1
 119 -14 38 74 38 195 c 0
 38 385 205 497 263 527 c 1
EndSplineSet
Validated: 3073
Substitution2: "'sups' superscript-phonetic" phisup
Substitution2: "'smcp' lowercase to small caps in Greek-1" sc.phi
Substitution2: "'subs' subscript-phonetic" phisub
EndChar

StartChar: chi
Encoding: 967 967 388
Width: 631
Flags: HMW
AnchorPoint: "above" 417 552 basechar 0
LayerCount: 2
Fore
SplineSet
573 -180 m 1
 537 -195 514 -199 488 -199 c 0
 431 -199 393 -157 375 -102 c 2
 331 48 l 1
 119 -188 l 1
 -40 -188 l 1
 281 179 l 1
 194 413 l 2
 184 434 185 437 167 437 c 0
 155 434 138 433 115 433 c 1
 140 552 l 1
 188 559 212 561 221 561 c 0
 294 561 314 513 322 492 c 2
 387 298 l 1
 573 542 l 1
 721 542 l 1
 441 178 l 1
 515 -49 l 2
 524 -71 527 -71 539 -71 c 0
 548 -71 580 -60 600 -54 c 1
 573 -180 l 1
EndSplineSet
Validated: 3073
Substitution2: "'sups' superscript-phonetic" chisup
Substitution2: "'smcp' lowercase to small caps in Greek-1" sc.x
Substitution2: "'subs' subscript-phonetic" chisub
EndChar

StartChar: psi
Encoding: 968 968 389
Width: 728
Flags: HMW
AnchorPoint: "above" 447 552 basechar 0
LayerCount: 2
Fore
SplineSet
425 108 m 1
 488 114 537 136 561 248 c 2
 623 540 l 1
 763 540 l 1
 695 221 l 2
 664 74 549 -6 399 -12 c 1
 358 -205 l 1
 222 -205 l 1
 263 -12 l 1
 136 -7 60 52 60 161 c 0
 60 180 62 199 67 221 c 2
 135 540 l 1
 275 540 l 1
 213 248 l 2
 208 225 205 205 205 188 c 0
 205 133 233 113 289 108 c 1
 377 523 l 1
 513 523 l 1
 425 108 l 1
EndSplineSet
Validated: 3073
Substitution2: "'smcp' lowercase to small caps in Greek-1" sc.psi
EndChar

StartChar: omega
Encoding: 969 969 390
Width: 798
Flags: HMW
AnchorPoint: "above" 477 552 basechar 0
AnchorPoint: "below_gk" 350 -24 basechar 0
AnchorPoint: "above_gk" 481 564 basechar 0
LayerCount: 2
Fore
SplineSet
521 101 m 1
 611 101 643 230 643 313 c 0
 643 391 610 444 564 504 c 1
 702 545 l 1
 761 488 778 397 778 325 c 0
 778 128 650 -15 500 -15 c 0
 435 -15 393 11 370 50 c 1
 331 11 276 -15 212 -15 c 0
 103 -15 43 55 43 166 c 0
 43 287 104 454 249 544 c 1
 369 505 l 1
 279 429 178 342 178 182 c 0
 178 139 192 101 238 101 c 0
 302 104 322 138 327 163 c 2
 377 399 l 1
 511 399 l 1
 461 163 l 2
 460 159 459 155 459 150 c 0
 459 129 471 103 521 101 c 1
EndSplineSet
Validated: 3073
Substitution2: "'smcp' lowercase to small caps in Greek-1" sc.omega
EndChar

StartChar: Djecyr
Encoding: 1026 1026 398
Width: 790
Flags: HMW
AnchorPoint: "cyr-above" 415 728 basechar 0
LayerCount: 2
Fore
SplineSet
627 504 m 2
 737 504 810 439 810 356 c 0
 810 341 808 329 807 323 c 2
 738 0 l 2
 715.998 -102.992 645.56 -165 489 -165 c 2
 413 -165 l 1
 433 -70 l 1
 493 -70 l 2
 542 -69 577 -52 588 0 c 2
 655 317 l 2
 656 322 657 327 657 332 c 0
 657 365.14 627 379 589 379 c 2
 414 379 l 1
 333 0 l 1
 182 0 l 1
 311 605 l 1
 123 605 l 1
 149 729 l 1
 671 729 l 1
 645 605 l 1
 461 605 l 1
 439 504 l 1
 627 504 l 2
EndSplineSet
Validated: 3073
Substitution2: "'c2sc' caps to small caps in Cyrillic-1" sc.cyr_dje
EndChar

StartChar: Yestcyr
Encoding: 1028 1028 400
Width: 731
Flags: HMW
AnchorPoint: "cyr-above" 533 728 basechar 0
LayerCount: 2
Fore
SplineSet
644 482 m 1
 642 550 622 613 516 613 c 0
 419 613 336 548 292 436 c 1
 583 436 l 1
 557 311 l 1
 265 311 l 1
 263 295 262 279 262 264 c 0
 262 161 311 103 403 103 c 0
 496 103 566 156 595 249 c 1
 741 249 l 1
 696 82 553 -23 372 -23 c 0
 205 -23 110 77 110 243 c 0
 110 539 308 741 538 741 c 0
 689 741 791 659 791 535 c 0
 791 519 790 502 787 482 c 1
 644 482 l 1
EndSplineSet
Validated: 3073
Substitution2: "'c2sc' caps to small caps in Cyrillic-invariant" yestcyr
EndChar

StartChar: Ljecyr
Encoding: 1033 1033 405
Width: 1067
Flags: HMW
AnchorPoint: "cyr-above" 689 728 basechar 0
LayerCount: 2
Fore
SplineSet
912 435 m 2
 1053 435 1088 339 1088 262 c 0
 1088 52 925 0 805 0 c 2
 483 0 l 1
 611 604 l 1
 389 604 l 1
 349 414 l 2
 310 235 230 0 22 0 c 1
 52 145 l 1
 146 145 190 375 209 461 c 2
 265 729 l 1
 787 729 l 1
 725 435 l 1
 912 435 l 2
819 125 m 2
 866 125 936 134 936 234 c 0
 936 280 908 310 854 310 c 2
 698 310 l 1
 659 125 l 1
 819 125 l 2
EndSplineSet
Validated: 3073
Substitution2: "'c2sc' caps to small caps in Cyrillic-invariant" ljecyr
EndChar

StartChar: Njecyr
Encoding: 1034 1034 406
Width: 1088
Flags: HMW
AnchorPoint: "cyr-above" 720 728 basechar 0
LayerCount: 2
Fore
SplineSet
1103 294 m 0
 1103 119 986 0 812 0 c 2
 490 0 l 1
 556 311 l 1
 267 311 l 1
 201 0 l 1
 51 0 l 1
 205 729 l 1
 355 729 l 1
 293 436 l 1
 581 436 l 1
 643 729 l 1
 794 729 l 1
 739 469 l 1
 926 469 l 2
 1038 469 1103 403 1103 294 c 0
806 125 m 2
 921 125 950 209 950 270 c 0
 950 320 919 344 853 344 c 2
 713 344 l 1
 666 125 l 1
 806 125 l 2
EndSplineSet
Validated: 3073
Substitution2: "'c2sc' caps to small caps in Cyrillic-invariant" njecyr
EndChar

StartChar: Tshecyr
Encoding: 1035 1035 407
Width: 790
Flags: HMW
AnchorPoint: "cyr-above" 416 728 basechar 0
LayerCount: 2
Fore
SplineSet
630 504 m 2
 740 504 813 439 813 356 c 0
 813 341 811 329 809 323 c 2
 741 0 l 1
 591 0 l 1
 658 317 l 2
 659 322 660 327 660 332 c 0
 660 365 630 379 591 379 c 2
 416 379 l 1
 336 0 l 1
 185 0 l 1
 313 605 l 1
 125 605 l 1
 151 729 l 1
 673 729 l 1
 647 605 l 1
 463 605 l 1
 442 504 l 1
 630 504 l 2
EndSplineSet
Validated: 3073
Substitution2: "'c2sc' caps to small caps in Cyrillic-1" sc.cyr_tshe
EndChar

StartChar: Dzhecyr
Encoding: 1039 1039 411
Width: 750
Flags: HMW
AnchorPoint: "cyr-above" 529 728 basechar 0
LayerCount: 2
Fore
SplineSet
440 0 m 1
 408 -150 l 1
 278 -150 l 1
 310 0 l 1
 80 0 l 1
 235 729 l 1
 385 729 l 1
 257 125 l 1
 547 125 l 1
 675 729 l 1
 825 729 l 1
 670 0 l 1
 440 0 l 1
EndSplineSet
Validated: 3073
EndChar

StartChar: Becyr
Encoding: 1041 1041 413
Width: 722
Flags: HMW
AnchorPoint: "cyr-above" 480 728 basechar 0
LayerCount: 2
Fore
SplineSet
488 439 m 2
 674 439 715 330 715 252 c 0
 715 175 666 96 605 53 c 0
 553 16 494 0 410 0 c 2
 82 0 l 1
 237 729 l 1
 749 729 l 1
 722 604 l 1
 360 604 l 1
 325 439 l 1
 488 439 l 2
438 125 m 2
 546 125 572 198 572 245 c 0
 572 290 540 314 478 314 c 2
 299 314 l 1
 259 125 l 1
 438 125 l 2
EndSplineSet
Validated: 3073
Substitution2: "'c2sc' caps to small caps in Cyrillic-1" sc.cyr_be
EndChar

StartChar: Gecyr
Encoding: 1043 1043 415
Width: 617
Flags: HMW
AnchorPoint: "cyr-above" 453 728 basechar 0
LayerCount: 2
Fore
SplineSet
230 0 m 1
 80 0 l 1
 235 729 l 1
 747 729 l 1
 720 604 l 1
 358 604 l 1
 230 0 l 1
EndSplineSet
Validated: 3073
Substitution2: "'c2sc' caps to small caps in Cyrillic-invariant-B" gecyr
EndChar

StartChar: Decyr
Encoding: 1044 1044 416
Width: 876
Flags: HMW
AnchorPoint: "cyr-above" 624 728 basechar 0
LayerCount: 2
Fore
SplineSet
148 108 m 2
 201 108 271 255 314 461 c 2
 371 729 l 1
 893 729 l 1
 761 108 l 1
 876 108 l 1
 822 -150 l 1
 692 -150 l 1
 723 0 l 1
 153 0 l 1
 122 -150 l 1
 -8 -150 l 1
 46 108 l 1
 148 108 l 2
346 125 m 1
 615 125 l 1
 717 604 l 1
 495 604 l 1
 454 414 l 2
 434 319 404 209 346 125 c 1
EndSplineSet
Validated: 3073
Substitution2: "'c2sc' caps to small caps in Cyrillic-invariant" decyr
EndChar

StartChar: Zhecyr
Encoding: 1046 1046 418
Width: 1100
Flags: HMW
AnchorPoint: "cyr-above" 701 728 basechar 0
LayerCount: 2
Fore
SplineSet
536 285 m 1
 201 0 l 1
 22 0 l 1
 459 378 l 1
 221 729 l 1
 385 729 l 1
 571 450 l 1
 630 729 l 1
 780 729 l 1
 721 450 l 1
 1025 729 l 1
 1189 729 l 1
 801 378 l 1
 1078 0 l 1
 899 0 l 1
 686 285 l 1
 625 0 l 1
 475 0 l 1
 536 285 l 1
EndSplineSet
Validated: 3073
Substitution2: "'c2sc' caps to small caps in Cyrillic-invariant" zhecyr
EndChar

StartChar: Zecyr
Encoding: 1047 1047 419
Width: 670
Flags: HMW
AnchorPoint: "cyr-above" 481 728 basechar 0
LayerCount: 2
Fore
SplineSet
364 97 m 0
 435 97 534 122 534 223 c 0
 534 270 504 308 419 308 c 2
 317 308 l 1
 342 428 l 1
 418 428 l 2
 548 428 580 504 580 549 c 0
 580 593 539 621 471 621 c 0
 376 621 315 581 294 507 c 1
 154 507 l 1
 167 569 221 741 490 741 c 0
 641 741 724 680 724 571 c 0
 724 495 691 419 625 377 c 1
 666 352 685 317 685 268 c 0
 685 99 547 -23 330 -23 c 0
 164 -23 75 45 75 170 c 0
 75 185 76 201 79 218 c 1
 225 218 l 1
 224 211 223 204 223 197 c 0
 223 132 272 97 364 97 c 0
EndSplineSet
Validated: 3073
Substitution2: "'c2sc' caps to small caps in Cyrillic-invariant" zecyr
EndChar

StartChar: Iicyr
Encoding: 1048 1048 420
Width: 757
Flags: HMW
AnchorPoint: "cyr-above" 523 728 basechar 0
LayerCount: 2
Fore
SplineSet
232 0 m 1
 82 0 l 1
 237 729 l 1
 387 729 l 1
 282 233 l 1
 676 729 l 1
 830 729 l 1
 675 0 l 1
 525 0 l 1
 632 504 l 1
 232 0 l 1
EndSplineSet
Validated: 3073
Substitution2: "'c2sc' caps to small caps in Cyrillic-invariant-B" iicyr
EndChar

StartChar: Elcyr
Encoding: 1051 1051 423
Width: 715
Flags: HMW
AnchorPoint: "cyr-above" 517 728 basechar 0
LayerCount: 2
Fore
SplineSet
611 604 m 1
 389 604 l 1
 349 414 l 2
 311 237 234 0 22 0 c 1
 52 145 l 1
 124 145 166 258 209 461 c 2
 265 729 l 1
 787 729 l 1
 633 0 l 1
 483 0 l 1
 611 604 l 1
EndSplineSet
Validated: 3073
Substitution2: "'c2sc' caps to small caps in Cyrillic-invariant-B" elcyr
EndChar

StartChar: Encyr
Encoding: 1053 1053 425
Width: 753
Flags: HMW
AnchorPoint: "cyr-above" 529 728 basechar 0
LayerCount: 2
Fore
SplineSet
587 311 m 1
 298 311 l 1
 232 0 l 1
 82 0 l 1
 237 729 l 1
 387 729 l 1
 325 436 l 1
 613 436 l 1
 675 729 l 1
 826 729 l 1
 671 0 l 1
 521 0 l 1
 587 311 l 1
EndSplineSet
Validated: 3073
Substitution2: "'c2sc' caps to small caps in Cyrillic-invariant-B" encyr
EndChar

StartChar: Pecyr
Encoding: 1055 1055 427
Width: 753
Flags: HMW
AnchorPoint: "cyr-above" 522 728 basechar 0
LayerCount: 2
Fore
SplineSet
649 604 m 1
 360 604 l 1
 232 0 l 1
 82 0 l 1
 237 729 l 1
 826 729 l 1
 671 0 l 1
 521 0 l 1
 649 604 l 1
EndSplineSet
Validated: 3073
Substitution2: "'c2sc' caps to small caps in Cyrillic-invariant-B" pecyr
EndChar

StartChar: Ucyr
Encoding: 1059 1059 431
Width: 698
Flags: HMW
AnchorPoint: "cyr-above" 485 728 basechar 0
LayerCount: 2
Fore
SplineSet
317 0 m 1
 143 0 l 1
 305 226 l 1
 159 729 l 1
 322 729 l 1
 421 384 l 1
 666 729 l 1
 840 729 l 1
 317 0 l 1
EndSplineSet
Validated: 3073
Substitution2: "'c2sc' caps to small caps in Cyrillic-1" sc.cyr_u
EndChar

StartChar: Efcyr
Encoding: 1060 1060 432
Width: 909
Flags: HMW
AnchorPoint: "cyr-above" 609 728 basechar 0
LayerCount: 2
Fore
SplineSet
959 450 m 0
 959 321 891 94 584 94 c 0
 570 94 558 94 550 94 c 1
 530 0 l 1
 380 0 l 1
 400 94 l 1
 392 94 380 94 366 94 c 0
 280 94 109 107 109 292 c 0
 109 422 165 638 487 638 c 0
 497 638 507 638 515 638 c 1
 535 729 l 1
 685 729 l 1
 665 638 l 1
 673 638 683 638 693 638 c 0
 786 638 959 629 959 450 c 0
478 540 m 0
 277 540 244 396 244 307 c 0
 244 197 327 188 387 188 c 0
 399 188 411 188 420 188 c 1
 494 540 l 1
 489 540 484 540 478 540 c 0
603 188 m 0
 777 188 821 332 821 422 c 0
 821 535 717 540 660 540 c 0
 654 540 649 540 644 540 c 1
 570 188 l 1
 579 188 591 188 603 188 c 0
EndSplineSet
Validated: 3073
Substitution2: "'c2sc' caps to small caps in Cyrillic-1" sc.phi
EndChar

StartChar: Khacyr
Encoding: 1061 1061 433
Width: 657
Flags: HMW
AnchorPoint: "cyr-above" 479 728 basechar 0
LayerCount: 2
Fore
SplineSet
491 372 m 1
 646 0 l 1
 468 0 l 1
 382 253 l 1
 189 0 l 1
 15 0 l 1
 323 367 l 1
 178 729 l 1
 356 729 l 1
 433 489 l 1
 618 729 l 1
 792 729 l 1
 491 372 l 1
EndSplineSet
Validated: 3073
Substitution2: "'c2sc' caps to small caps in Cyrillic-invariant-B" khacyr
EndChar

StartChar: Tsecyr
Encoding: 1062 1062 434
Width: 845
Flags: HMW
AnchorPoint: "cyr-above" 530 728 basechar 0
LayerCount: 2
Fore
SplineSet
548 125 m 1
 676 729 l 1
 826 729 l 1
 694 108 l 1
 834 108 l 1
 779 -150 l 1
 649 -150 l 1
 681 0 l 1
 82 0 l 1
 237 729 l 1
 387 729 l 1
 259 125 l 1
 548 125 l 1
EndSplineSet
Validated: 3073
Substitution2: "'c2sc' caps to small caps in Cyrillic-invariant-B" tsecyr
EndChar

StartChar: Checyr
Encoding: 1063 1063 435
Width: 688
Flags: HMW
AnchorPoint: "cyr-above" 480 728 basechar 0
LayerCount: 2
Fore
SplineSet
514 274 m 1
 268 274 l 2
 198 275 141 313 141 371 c 0
 141 378 141 385 143 392 c 2
 215 729 l 1
 365 729 l 1
 295 399 l 1
 540 399 l 1
 610 729 l 1
 761 729 l 1
 606 0 l 1
 456 0 l 1
 514 274 l 1
EndSplineSet
Validated: 3073
Substitution2: "'c2sc' caps to small caps in Cyrillic-invariant-B" checyr
EndChar

StartChar: Shacyr
Encoding: 1064 1064 436
Width: 1132
Flags: HMW
AnchorPoint: "cyr-above" 725 728 basechar 0
LayerCount: 2
Fore
SplineSet
1050 0 m 1
 82 0 l 1
 237 729 l 1
 387 729 l 1
 259 125 l 1
 518 125 l 1
 646 729 l 1
 796 729 l 1
 668 125 l 1
 927 125 l 1
 1055 729 l 1
 1205 729 l 1
 1050 0 l 1
EndSplineSet
Validated: 3073
Substitution2: "'c2sc' caps to small caps in Cyrillic-invariant-B" shacyr
EndChar

StartChar: Shchacyr
Encoding: 1065 1065 437
Width: 1217
Flags: HMW
AnchorPoint: "cyr-above" 719 728 basechar 0
LayerCount: 2
Fore
SplineSet
1060 0 m 1
 82 0 l 1
 237 729 l 1
 387 729 l 1
 259 125 l 1
 518 125 l 1
 646 729 l 1
 796 729 l 1
 668 125 l 1
 927 125 l 1
 1055 729 l 1
 1205 729 l 1
 1073 108 l 1
 1213 108 l 1
 1158 -150 l 1
 1028 -150 l 1
 1060 0 l 1
EndSplineSet
Validated: 3073
Substitution2: "'c2sc' caps to small caps in Cyrillic-invariant-B" shchacyr
EndChar

StartChar: Hardsigncyr
Encoding: 1066 1066 438
Width: 835
Flags: HMW
AnchorPoint: "cyr-above" 636 728 basechar 0
LayerCount: 2
Fore
SplineSet
856 296 m 0
 856 120 740 0 565 0 c 2
 243 0 l 1
 372 604 l 1
 142 605 l 1
 168 729 l 1
 548 729 l 1
 493 469 l 1
 680 469 l 2
 792 469 856 403 856 296 c 0
560 125 m 2
 675 125 704 210 704 270 c 0
 704 320 672 344 606 344 c 2
 466 344 l 1
 420 125 l 1
 560 125 l 2
EndSplineSet
Validated: 3073
Substitution2: "'c2sc' caps to small caps in Cyrillic-invariant-B" hardsigncyr
EndChar

StartChar: Yericyr
Encoding: 1067 1067 439
Width: 980
Flags: HMW
AnchorPoint: "cyr-above" 653 728 basechar 0
LayerCount: 2
Fore
SplineSet
1053 729 m 1
 898 0 l 1
 748 0 l 1
 903 729 l 1
 1053 729 l 1
695 296 m 0
 695 120 579 0 404 0 c 2
 82 0 l 1
 237 729 l 1
 387 729 l 1
 332 469 l 1
 519 469 l 2
 631 469 695 403 695 296 c 0
399 125 m 2
 514 125 543 210 543 270 c 0
 543 320 511 344 445 344 c 2
 305 344 l 1
 259 125 l 1
 399 125 l 2
EndSplineSet
Validated: 3073
Substitution2: "'c2sc' caps to small caps in Cyrillic-invariant-B" yericyr
EndChar

StartChar: Softsigncyr
Encoding: 1068 1068 440
Width: 678
Flags: HMW
AnchorPoint: "cyr-above" 506 728 basechar 0
LayerCount: 2
Fore
SplineSet
695 296 m 0
 695 120 579 0 404 0 c 2
 82 0 l 1
 237 729 l 1
 387 729 l 1
 332 469 l 1
 519 469 l 2
 631 469 695 403 695 296 c 0
399 125 m 2
 514 125 543 210 543 270 c 0
 543 320 511 344 445 344 c 2
 305 344 l 1
 259 125 l 1
 399 125 l 2
EndSplineSet
Validated: 3073
Substitution2: "'c2sc' caps to small caps in Cyrillic-invariant-B" softsigncyr
EndChar

StartChar: Ecyr
Encoding: 1069 1069 441
Width: 735
Flags: HMW
AnchorPoint: "cyr-above" 503 728 basechar 0
LayerCount: 2
Fore
SplineSet
151 482 m 1
 193 621 315 741 510 741 c 0
 680 741 776 641 776 473 c 0
 776 437 772 399 763 358 c 0
 713 124 555 -23 352 -23 c 0
 191 -23 95 60 95 197 c 0
 95 213 96 231 99 249 c 1
 245 249 l 1
 244 240 243 232 243 224 c 0
 243 146 291 103 375 103 c 0
 479 103 561 179 601 311 c 1
 309 311 l 1
 336 436 l 1
 627 436 l 1
 627 445 l 0
 627 551 572 613 478 613 c 0
 400 613 338 578 294 482 c 1
 151 482 l 1
EndSplineSet
Validated: 3073
Substitution2: "'c2sc' caps to small caps in Cyrillic-invariant-B" ecyr
EndChar

StartChar: IUcyr
Encoding: 1070 1070 442
Width: 1142
Flags: HMW
AnchorPoint: "cyr-above" 641 728 basechar 0
LayerCount: 2
Fore
SplineSet
751 -23 m 0
 527 -23 471 137 471 258 c 0
 471 275 472 293 474 311 c 1
 298 311 l 1
 231 0 l 1
 81 0 l 1
 236 729 l 1
 386 729 l 1
 324 436 l 1
 503 436 l 1
 535 521 651 741 912 741 c 0
 1137 741 1193 584 1193 457 c 0
 1193 200 1000 -23 751 -23 c 0
886 613 m 0
 675 613 622 358 622 280 c 0
 622 172 679 105 778 105 c 0
 917 105 1042 250 1042 439 c 0
 1042 548 985 613 886 613 c 0
EndSplineSet
Validated: 3073
Substitution2: "'c2sc' caps to small caps in Cyrillic-invariant-B" iucyr
EndChar

StartChar: IAcyr
Encoding: 1071 1071 443
Width: 708
Flags: HMW
AnchorPoint: "cyr-above" 513 728 basechar 0
LayerCount: 2
Fore
SplineSet
168 435 m 0
 168 608 282 729 459 729 c 2
 781 729 l 1
 626 0 l 1
 476 0 l 1
 531 260 l 1
 498 260 l 1
 194 0 l 1
 15 0 l 1
 316 261 l 1
 224 270 168 334 168 435 c 0
464 604 m 2
 349 604 320 519 320 459 c 0
 320 409 352 385 418 385 c 2
 558 385 l 1
 604 604 l 1
 464 604 l 2
EndSplineSet
Validated: 3073
Substitution2: "'c2sc' caps to small caps in Cyrillic-invariant-B" iacyr
EndChar

StartChar: becyr
Encoding: 1073 1073 445
Width: 591
Flags: HMW
AnchorPoint: "cyr-above" 431 752 basechar 0
LayerCount: 2
Fore
SplineSet
627 342 m 0
 627 264 578 -23 298 -23 c 0
 170 -23 94 23 94 162 c 0
 94 199 99 242 110 292 c 0
 139 428 194 603 339 684 c 0
 390 712 471 716 538 724 c 0
 586 730 601 776 601 776 c 1
 705 777 l 1
 696 736 686 690 648 666 c 0
 552 606 481 655 387 592 c 0
 334 557 287 470 287 470 c 1
 332 524 385 549 452 549 c 0
 526 549 627 508 627 342 c 0
325 94 m 0
 450 94 485 269 485 319 c 0
 485 388 452 432 397 432 c 0
 270 432 236 256 236 206 c 0
 236 137 269 94 325 94 c 0
EndSplineSet
Validated: 3073
Substitution2: "'locl' local. forms for South Slavic-1" cyr_serb_be
Substitution2: "'smcp' lowercase to small caps in Cyrillic-1" sc.cyr_be
EndChar

StartChar: vecyr
Encoding: 1074 1074 446
Width: 574
Flags: HMW
AnchorPoint: "cyr-above" 374 545 basechar 0
LayerCount: 2
Fore
SplineSet
576 182 m 0
 576 83 488 0 351 0 c 2
 60 0 l 1
 175 540 l 1
 463 540 l 2
 589 540 612 470 612 423 c 0
 612 341 540 302 512 286 c 1
 555 257 576 223 576 182 c 0
387 333 m 2
 437 333 473 342 473 395 c 0
 473 423 451 430 407 430 c 2
 291 430 l 1
 271 333 l 1
 387 333 l 2
345 110 m 2
 397 110 439 128 439 188 c 0
 439 218 415 223 369 223 c 2
 247 223 l 1
 223 110 l 1
 345 110 l 2
EndSplineSet
Validated: 3073
EndChar

StartChar: gecyr
Encoding: 1075 1075 447
Width: 429
Flags: HMW
AnchorPoint: "cyr-above" 342 545 basechar 0
LayerCount: 2
Fore
SplineSet
523 540 m 1
 499 427 l 1
 291 427 l 1
 200 0 l 1
 60 0 l 1
 175 540 l 1
 523 540 l 1
EndSplineSet
Validated: 3073
EndChar

StartChar: decyr
Encoding: 1076 1076 448
Width: 745
Flags: HMW
AnchorPoint: "cyr-above" 527 545 basechar 0
LayerCount: 2
Fore
SplineSet
654 101 m 1
 746 101 l 1
 698 -125 l 1
 588 -125 l 1
 615 0 l 1
 131 0 l 1
 104 -125 l 1
 -6 -125 l 1
 42 101 l 1
 138 101 l 2
 192 102 246 252 276 388 c 2
 309 540 l 1
 748 540 l 1
 654 101 l 1
319 113 m 1
 517 113 l 1
 584 427 l 1
 425 427 l 1
 414 376 l 2
 389 259 359 174 319 113 c 1
EndSplineSet
Validated: 3073
EndChar

StartChar: zhecyr
Encoding: 1078 1078 450
Width: 792
Flags: HMW
AnchorPoint: "cyr-above" 505 545 basechar 0
LayerCount: 2
Fore
SplineSet
368 198 m 1
 189 0 l 1
 10 0 l 1
 286 296 l 1
 161 540 l 1
 309 540 l 1
 401 351 l 1
 441 540 l 1
 581 540 l 1
 541 351 l 1
 713 540 l 1
 861 540 l 1
 632 296 l 1
 782 0 l 1
 603 0 l 1
 508 198 l 1
 466 0 l 1
 326 0 l 1
 368 198 l 1
EndSplineSet
Validated: 3073
EndChar

StartChar: zecyr
Encoding: 1079 1079 451
Width: 554
Flags: HMW
AnchorPoint: "cyr-above" 397 545 basechar 0
LayerCount: 2
Fore
SplineSet
298 87 m 0
 387 87 416 120 416 163 c 0
 416 185 405 208 345 208 c 2
 253 208 l 1
 277 318 l 1
 371 318 l 2
 438 318 452 371 452 397 c 0
 452 422 425 439 380 439 c 0
 313 439 275 415 264 366 c 1
 129 366 l 1
 155 480 258 549 403 549 c 0
 523 549 591 496 591 409 c 0
 591 354 567 298 522 271 c 1
 548 252 561 229 561 196 c 0
 561 73 449 -23 282 -23 c 0
 137 -23 62 26 62 119 c 0
 62 131 63 143 66 157 c 1
 203 157 l 1
 203 112.717 216.821 87 298 87 c 0
EndSplineSet
Validated: 3073
EndChar

StartChar: iicyr
Encoding: 1080 1080 452
Width: 603
Flags: HMW
AnchorPoint: "cyr-above" 418 545 basechar 0
LayerCount: 2
Fore
SplineSet
175 540 m 1
 315 540 l 1
 242 197 l 1
 503 540 l 1
 658 540 l 1
 543 0 l 1
 403 0 l 1
 476 343 l 1
 215 0 l 1
 60 0 l 1
 175 540 l 1
EndSplineSet
Validated: 3073
EndChar

StartChar: kacyr
Encoding: 1082 1082 454
Width: 559
Flags: HMW
AnchorPoint: "cyr-above" 382 545 basechar 0
LayerCount: 2
Fore
SplineSet
275 351 m 1
 477 540 l 1
 625 540 l 1
 359 296 l 1
 549 0 l 1
 367 0 l 1
 242 198 l 1
 200 0 l 1
 60 0 l 1
 175 540 l 1
 315 540 l 1
 275 351 l 1
EndSplineSet
Validated: 3073
EndChar

StartChar: elcyr
Encoding: 1083 1083 455
Width: 583
Flags: HMW
AnchorPoint: "cyr-above" 421 545 basechar 0
LayerCount: 2
Fore
SplineSet
199 540 m 1
 638 540 l 1
 524 0 l 1
 384 0 l 1
 474 427 l 1
 315 427 l 1
 305 376 l 2
 248 112 163 0 10 0 c 1
 38 135 l 1
 112 136 138 252 167 388 c 2
 199 540 l 1
EndSplineSet
Validated: 3073
EndChar

StartChar: emcyr
Encoding: 1084 1084 456
Width: 664
Flags: HMW
AnchorPoint: "cyr-above" 441 545 basechar 0
LayerCount: 2
Fore
SplineSet
313 74 m 1
 255 257 l 1
 200 0 l 1
 60 0 l 1
 175 540 l 1
 315 540 l 1
 394 289 l 1
 579 540 l 1
 719 540 l 1
 604 0 l 1
 464 0 l 1
 519 257 l 1
 383 74 l 1
 313 74 l 1
EndSplineSet
Validated: 3073
EndChar

StartChar: encyr
Encoding: 1085 1085 457
Width: 603
Flags: HMW
AnchorPoint: "cyr-above" 419 545 basechar 0
LayerCount: 2
Fore
SplineSet
175 540 m 1
 315 540 l 1
 275 352 l 1
 478 352 l 1
 518 540 l 1
 658 540 l 1
 543 0 l 1
 403 0 l 1
 456 237 l 1
 253 237 l 1
 200 0 l 1
 60 0 l 1
 175 540 l 1
EndSplineSet
Validated: 3073
Substitution2: "'sups' superscript-phonetic" encyrsup
EndChar

StartChar: pecyr
Encoding: 1087 1087 459
Width: 603
Flags: HMW
AnchorPoint: "cyr-above" 407 545 basechar 0
LayerCount: 2
Fore
SplineSet
175 540 m 1
 658 540 l 1
 543 0 l 1
 403 0 l 1
 494 427 l 1
 291 427 l 1
 200 0 l 1
 60 0 l 1
 175 540 l 1
EndSplineSet
Validated: 3073
EndChar

StartChar: tecyr
Encoding: 1090 1090 462
Width: 440
Flags: HMW
AnchorPoint: "cyr-above" 325 545 basechar 0
LayerCount: 2
Fore
SplineSet
540 540 m 1
 516 427 l 1
 381 427 l 1
 290 0 l 1
 150 0 l 1
 241 427 l 1
 106 427 l 1
 130 540 l 1
 540 540 l 1
EndSplineSet
Validated: 3073
EndChar

StartChar: ucyr
Encoding: 1091 1091 463
Width: 541
Flags: HMW
AnchorPoint: "cyr-above" 379 545 basechar 0
LayerCount: 2
Fore
SplineSet
505 540 m 1
 649 540 l 1
 291 -99 l 2
 251 -169 212 -219 86 -219 c 0
 69 -219 57 -218 37 -215 c 1
 59 -110 l 1
 76 -115 84 -116 95 -116 c 0
 144 -116 190 -77 201 -26 c 1
 120 540 l 1
 274 540 l 1
 309 147 l 1
 505 540 l 1
EndSplineSet
Validated: 3073
Substitution2: "'smcp' lowercase to small caps in Cyrillic-1" sc.cyr_u
EndChar

StartChar: efcyr
Encoding: 1092 1092 464
Width: 948
Flags: HMW
AnchorPoint: "cyr-above" 623 695 basechar 0
LayerCount: 2
Fore
SplineSet
985 346 m 0
 985 112 809 -24 689 -24 c 0
 621 -24 579 4 558 64 c 1
 498 -218 l 1
 358 -218 l 1
 418 64 l 1
 371 4 317 -24 249 -24 c 0
 142 -24 75 59 75 181 c 0
 75 312 184 549 371 549 c 0
 439 549 481 520 502 460 c 1
 557 719 l 1
 697 719 l 1
 642 460 l 1
 689 520 743 549 811 549 c 0
 885 549 985 508 985 346 c 0
306 93 m 0
 433 93 466 269 466 319 c 0
 466 388 434 432 378 432 c 0
 252 432 218 255 218 205 c 0
 218 137 251 93 306 93 c 0
754 432 m 0
 627 432 594 254 594 205 c 0
 594 136 626 93 682 93 c 0
 764 93 842 195 842 318 c 0
 842 388 811 432 754 432 c 0
EndSplineSet
Validated: 3073
Substitution2: "'smcp' lowercase to small caps in Cyrillic-1" sc.phi
EndChar

StartChar: khacyr
Encoding: 1093 1093 465
Width: 539
Flags: HMW
AnchorPoint: "cyr-above" 384 545 basechar 0
LayerCount: 2
Fore
SplineSet
407 272 m 1
 529 0 l 1
 361 0 l 1
 306 168 l 1
 178 0 l 1
 10 0 l 1
 248 272 l 1
 129 540 l 1
 297 540 l 1
 350 377 l 1
 472 540 l 1
 640 540 l 1
 407 272 l 1
EndSplineSet
Validated: 3073
EndChar

StartChar: tsecyr
Encoding: 1094 1094 466
Width: 690
Flags: HMW
AnchorPoint: "cyr-above" 417 545 basechar 0
LayerCount: 2
Fore
SplineSet
60 0 m 1
 175 540 l 1
 315 540 l 1
 224 113 l 1
 427 113 l 1
 518 540 l 1
 658 540 l 1
 564 101 l 1
 684 101 l 1
 636 -125 l 1
 526 -125 l 1
 553 0 l 1
 60 0 l 1
EndSplineSet
Validated: 3073
EndChar

StartChar: checyr
Encoding: 1095 1095 467
Width: 564
Flags: HMW
AnchorPoint: "cyr-above" 387 545 basechar 0
LayerCount: 2
Fore
SplineSet
161 540 m 1
 301 540 l 1
 245 278 l 1
 423 278 l 1
 479 540 l 1
 619 540 l 1
 504 0 l 1
 364 0 l 1
 399 165 l 1
 221 165 l 2
 159 165 103 181 103 248 c 0
 103 258 104 268 106 279 c 2
 161 540 l 1
EndSplineSet
Validated: 3073
EndChar

StartChar: shacyr
Encoding: 1096 1096 468
Width: 901
Flags: HMW
AnchorPoint: "cyr-above" 564 545 basechar 0
LayerCount: 2
Fore
SplineSet
841 0 m 1
 60 0 l 1
 175 540 l 1
 315 540 l 1
 224 113 l 1
 403 113 l 1
 494 540 l 1
 634 540 l 1
 543 113 l 1
 725 113 l 1
 816 540 l 1
 956 540 l 1
 841 0 l 1
EndSplineSet
Validated: 3073
EndChar

StartChar: shchacyr
Encoding: 1097 1097 469
Width: 987
Flags: HMW
AnchorPoint: "cyr-above" 563 545 basechar 0
LayerCount: 2
Fore
SplineSet
851 0 m 1
 60 0 l 1
 174 540 l 1
 314 540 l 1
 224 113 l 1
 403 113 l 1
 493 540 l 1
 633 540 l 1
 543 113 l 1
 725 113 l 1
 815 540 l 1
 955 540 l 1
 862 101 l 1
 982 101 l 1
 934 -125 l 1
 824 -125 l 1
 851 0 l 1
EndSplineSet
Validated: 3073
EndChar

StartChar: hardsigncyr
Encoding: 1098 1098 470
Width: 692
Flags: HMW
AnchorPoint: "cyr-above" 498 545 basechar 0
LayerCount: 2
Fore
SplineSet
699 202 m 0
 699 126 653 0 472 0 c 2
 181 0 l 1
 271 427 l 1
 100 427 l 1
 124 540 l 1
 435 540 l 1
 391 333 l 1
 507 333 l 2
 633 333 699 288 699 202 c 0
457 110 m 2
 544 110 560 154 560 184 c 0
 560 217 529 223 481 223 c 2
 368 223 l 1
 344 110 l 1
 457 110 l 2
EndSplineSet
Validated: 3073
EndChar

StartChar: yericyr
Encoding: 1099 1099 471
Width: 806
Flags: HMW
AnchorPoint: "cyr-above" 527 545 basechar 0
LayerCount: 2
Fore
SplineSet
861 540 m 1
 746 0 l 1
 606 0 l 1
 721 540 l 1
 861 540 l 1
577 196 m 0
 577 125 532 0 351 0 c 2
 60 0 l 1
 175 540 l 1
 315 540 l 1
 271 333 l 1
 387 333 l 2
 515 333 577 283 577 196 c 0
346 110 m 2
 401 110 439 129 439 188 c 0
 439 218 416 223 370 223 c 2
 248 223 l 1
 224 110 l 1
 346 110 l 2
EndSplineSet
Validated: 3073
EndChar

StartChar: softsigncyr
Encoding: 1100 1100 472
Width: 572
Flags: HMW
AnchorPoint: "cyr-above" 404 545 basechar 0
LayerCount: 2
Fore
SplineSet
577 196 m 0
 577 78 487 0 351 0 c 2
 60 0 l 1
 175 540 l 1
 315 540 l 1
 271 333 l 1
 387 333 l 2
 515 333 577 283 577 196 c 0
345 110 m 2
 401 110 439 130 439 188 c 0
 439 218 415 223 369 223 c 2
 247 223 l 1
 223 110 l 1
 345 110 l 2
EndSplineSet
Validated: 3073
EndChar

StartChar: ecyr
Encoding: 1101 1101 473
Width: 546
Flags: HMW
AnchorPoint: "cyr-above" 386 545 basechar 0
LayerCount: 2
Fore
SplineSet
585 351 m 0
 585 151 461 -23 262 -23 c 0
 142 -23 70 45 70 155 c 0
 70 165 71 176 72 187 c 1
 206 187 l 1
 209 117 231 90 285 90 c 0
 344 90 393 133 421 207 c 1
 245 207 l 1
 269 320 l 1
 443 320 l 1
 443 324 443 329 443 333 c 0
 443 396 426 436 359 436 c 0
 302 436 269 409 238 338 c 1
 104 338 l 1
 142 470 247 549 382 549 c 0
 514 549 585 478 585 351 c 0
EndSplineSet
Validated: 3073
EndChar

StartChar: iucyr
Encoding: 1102 1102 474
Width: 893
Flags: HMW
AnchorPoint: "cyr-above" 507 545 basechar 0
LayerCount: 2
Fore
SplineSet
931 347 m 0
 931 156 804 -23 594 -23 c 0
 455 -23 379 53 379 181 c 0
 379 189 379 198 380 207 c 1
 244 207 l 1
 200 0 l 1
 60 0 l 1
 175 540 l 1
 315 540 l 1
 268 320 l 1
 404 320 l 1
 454 463 568 549 715 549 c 0
 855 549 931 476 931 347 c 0
618 90 m 0
 753 90 788 267 788 321 c 0
 788 392 753 436 692 436 c 0
 558 436 522 259 522 207 c 0
 522 135 557 90 618 90 c 0
EndSplineSet
Validated: 3073
EndChar

StartChar: iacyr
Encoding: 1103 1103 475
Width: 586
Flags: HMW
AnchorPoint: "cyr-above" 421 545 basechar 0
LayerCount: 2
Fore
SplineSet
123 344 m 0
 123 458 212 540 350 540 c 2
 641 540 l 1
 526 0 l 1
 386 0 l 1
 430 207 l 1
 386 207 l 1
 199 0 l 1
 20 0 l 1
 222 218 l 1
 157 237 123 284 123 344 c 0
356 430 m 2
 300 430 262 410 262 352 c 0
 262 322 286 317 332 317 c 2
 454 317 l 1
 478 430 l 1
 356 430 l 2
EndSplineSet
Validated: 3073
EndChar

StartChar: djecyr
Encoding: 1106 1106 478
Width: 616
Flags: HMW
LayerCount: 2
Fore
SplineSet
418 421 m 0
 350 421 300 374 287 315 c 2
 220 0 l 1
 80 0 l 1
 203 578 l 1
 133 578 l 1
 153 671 l 1
 223 671 l 1
 235 729 l 1
 375 729 l 1
 363 671 l 1
 533 671 l 1
 513 578 l 1
 343 578 l 1
 316 453 l 1
 367 511 427 540 494 540 c 0
 561 540 638 513 638 410 c 0
 638 393 635 375 631 354 c 2
 584 132 l 2
 546 -45 318 -173 246 -173 c 0
 236 -173 225 -172 220 -171 c 1
 233 -110 l 1
 289 -108 406 -25 440 112 c 2
 484 322 l 2
 487 334 488 345 488 355 c 0
 488 410 448 421 418 421 c 0
EndSplineSet
Validated: 3073
Substitution2: "'smcp' lowercase to small caps in Cyrillic-1" sc.cyr_dje
EndChar

StartChar: yestcyr
Encoding: 1108 1108 480
Width: 549
Flags: HMW
AnchorPoint: "cyr-above" 395 545 basechar 0
LayerCount: 2
Fore
SplineSet
72 172 m 0
 72 366 197 549 399 549 c 0
 520 549 590 485 590 377 c 0
 590 365 589 352 587 338 c 1
 453 338 l 1
 452 409 431 436 374 436 c 0
 294 436 261 376 240 320 c 1
 414 320 l 1
 390 207 l 1
 215 207 l 1
 215 133.823 238.853 90 300 90 c 0
 354 90 388 117 421 187 c 1
 555 187 l 1
 514 58 406 -23 275 -23 c 0
 143 -23 72 47 72 172 c 0
EndSplineSet
Validated: 3073
EndChar

StartChar: ljecyr
Encoding: 1113 1113 485
Width: 888
Flags: HMW
AnchorPoint: "cyr-above" 569 545 basechar 0
LayerCount: 2
Fore
SplineSet
709 319 m 2
 823 319 894 267 894 199 c 0
 894 89 813 0 677 0 c 2
 394 0 l 1
 484 427 l 1
 325 427 l 1
 315 376 l 2
 278 204 216 11 36 0 c 2
 20 0 l 1
 48 135 l 1
 123 136 152 269 177 388 c 2
 209 540 l 1
 648 540 l 1
 601 319 l 1
 709 319 l 2
765 173 m 0
 765 193 746 209 682 209 c 2
 578 209 l 1
 557 110 l 1
 666 110 l 2
 738 110 765 119 765 173 c 0
EndSplineSet
Validated: 3073
EndChar

StartChar: njecyr
Encoding: 1114 1114 486
Width: 897
Flags: HMW
AnchorPoint: "cyr-above" 586 545 basechar 0
LayerCount: 2
Fore
SplineSet
718 319 m 2
 832 319 903 267 903 199 c 0
 903 89 822 0 686 0 c 2
 403 0 l 1
 447 207 l 1
 244 207 l 1
 200 0 l 1
 60 0 l 1
 174 540 l 1
 314 540 l 1
 268 320 l 1
 471 320 l 1
 517 540 l 1
 657 540 l 1
 610 319 l 1
 718 319 l 2
774 173 m 0
 774 193 755 209 691 209 c 2
 587 209 l 1
 566 110 l 1
 675 110 l 2
 747 110 774 119 774 173 c 0
EndSplineSet
Validated: 3073
EndChar

StartChar: tshecyr
Encoding: 1115 1115 487
Width: 629
Flags: HMW
LayerCount: 2
Fore
SplineSet
424 421 m 0
 356 421 305 373 293 315 c 2
 226 0 l 1
 86 0 l 1
 209 578 l 1
 139 578 l 1
 159 671 l 1
 229 671 l 1
 241 729 l 1
 381 729 l 1
 369 671 l 1
 539 671 l 1
 519 578 l 1
 349 578 l 1
 322 453 l 1
 373 511 433 540 500 540 c 0
 566 540 642 513 642 411 c 0
 642 394 639 375 635 354 c 2
 560 0 l 1
 420 0 l 1
 489 321 l 2
 492 334 493 345 493 355 c 0
 493 410 454 421 424 421 c 0
EndSplineSet
Validated: 3073
Substitution2: "'smcp' lowercase to small caps in Cyrillic-1" sc.cyr_tshe
EndChar

StartChar: dzhecyr
Encoding: 1119 1119 491
Width: 614
Flags: HMW
AnchorPoint: "cyr-above" 428 545 basechar 0
LayerCount: 2
Fore
SplineSet
362 0 m 1
 335 -125 l 1
 225 -125 l 1
 252 0 l 1
 65 0 l 1
 180 540 l 1
 320 540 l 1
 229 113 l 1
 433 113 l 1
 524 540 l 1
 664 540 l 1
 549 0 l 1
 362 0 l 1
EndSplineSet
Validated: 3073
EndChar

StartChar: Semisoftcyr
Encoding: 1164 1164 492
Width: 639
Flags: HMW
LayerCount: 2
Fore
SplineSet
289 344 m 1
 243 125 l 1
 383 125 l 2
 476 125 527 188 527 270 c 0
 527 320 495 344 429 344 c 2
 289 344 l 1
350 631 m 1
 425 631 l 1
 408 551 l 1
 333 551 l 1
 316 469 l 1
 503 469 l 2
 615 469 679 403 679 296 c 0
 679 127 562 0 388 0 c 2
 66 0 l 1
 183 551 l 1
 108 551 l 1
 125 631 l 1
 200 631 l 1
 221 729 l 1
 371 729 l 1
 350 631 l 1
EndSplineSet
Validated: 3073
Substitution2: "'c2sc' caps to small caps in Cyrillic-invariant" semisoftcry
EndChar

StartChar: semisoftcry
Encoding: 1165 1165 493
Width: 581
Flags: HMW
LayerCount: 2
Fore
SplineSet
282 223 m 1
 258 110 l 1
 355 110 l 2
 417 110 449 140 449 188 c 0
 449 218 425 223 379 223 c 2
 282 223 l 1
337 478 m 1
 420 478 l 1
 405 398 l 1
 320 398 l 1
 306 333 l 1
 397 333 l 2
 525 333 587 283 587 196 c 0
 587 76 495 0 361 0 c 2
 95 0 l 1
 180 398 l 1
 107 398 l 1
 122 478 l 1
 197 478 l 1
 210 540 l 1
 350 540 l 1
 337 478 l 1
EndSplineSet
Validated: 3073
EndChar

StartChar: Ertickcyr
Encoding: 1166 1166 494
Width: 670
Flags: HMW
LayerCount: 2
Fore
SplineSet
571 439 m 1
 582 457 596 494 596 529 c 0
 596 580 564 604 498 604 c 2
 358 604 l 1
 311 385 l 1
 451 385 l 2
 471 385 489 387 505 392 c 1
 446 451 l 1
 515 495 l 1
 571 439 l 1
751 568 m 0
 751 524 736 419 665 345 c 1
 727 283 l 1
 658 239 l 1
 603 294 l 1
 564 272 520 260 472 260 c 2
 285 260 l 1
 230 0 l 1
 80 0 l 1
 235 729 l 1
 557 729 l 2
 684 729 751 673 751 568 c 0
EndSplineSet
Validated: 3073
EndChar

StartChar: ertickcyr
Encoding: 1167 1167 495
Width: 649
Flags: HMW
LayerCount: 2
Fore
SplineSet
411 432 m 0
 284 432 250 254 250 205 c 0
 250 136 283 93 339 93 c 0
 372 93 403 108 429 135 c 1
 360 204 l 1
 429 248 l 1
 474 203 l 1
 483 225 499 267 499 320 c 0
 499 389 467 432 411 432 c 0
642 345 m 0
 642 233 594 148 568 109 c 1
 641 36 l 1
 572 -8 l 1
 516 48 l 1
 466 3 407 -24 346 -24 c 0
 278 -24 236 4 214 64 c 1
 154 -218 l 1
 14 -218 l 1
 176 540 l 1
 316 540 l 1
 299 460 l 1
 345 520 400 549 468 549 c 0
 540 549 642 508 642 345 c 0
EndSplineSet
Validated: 3073
EndChar

StartChar: Gheupturncyr
Encoding: 1168 1168 496
Width: 623
Flags: HMW
LayerCount: 2
Fore
SplineSet
230 0 m 1
 80 0 l 1
 235 729 l 1
 597 728 l 1
 626 864 l 1
 776 864 l 1
 721 604 l 1
 359 604 l 1
 230 0 l 1
EndSplineSet
Validated: 3073
Substitution2: "'c2sc' caps to small caps in Cyrillic-invariant" gheupturncyr
EndChar

StartChar: gheupturncyr
Encoding: 1169 1169 497
Width: 450
Flags: HMW
LayerCount: 2
Fore
SplineSet
550 666 m 1
 499 427 l 1
 291 427 l 1
 200 0 l 1
 60 0 l 1
 175 540 l 1
 395 540 l 1
 422 666 l 1
 550 666 l 1
EndSplineSet
Validated: 3073
EndChar

StartChar: Ghestrokecyr
Encoding: 1170 1170 498
Width: 623
Flags: HMW
LayerCount: 2
Fore
SplineSet
335 469 m 1
 409 469 l 1
 392 389 l 1
 318 389 l 1
 236 0 l 1
 86 0 l 1
 169 389 l 1
 92 389 l 1
 109 469 l 1
 186 469 l 1
 241 729 l 1
 753 729 l 1
 726 604 l 1
 364 604 l 1
 335 469 l 1
EndSplineSet
Validated: 3073
Substitution2: "'c2sc' caps to small caps in Cyrillic-invariant" ghestrokecyr
EndChar

StartChar: ghestrokecyr
Encoding: 1171 1171 499
Width: 472
Flags: HMW
LayerCount: 2
Fore
SplineSet
174 344 m 1
 216 540 l 1
 564 540 l 1
 540 427 l 1
 332 427 l 1
 314 344 l 1
 392 344 l 1
 375 264 l 1
 297 264 l 1
 241 0 l 1
 101 0 l 1
 157 264 l 1
 75 264 l 1
 92 344 l 1
 174 344 l 1
EndSplineSet
Validated: 3073
EndChar

StartChar: Ghemidhookcyr
Encoding: 1172 1172 500
Width: 674
Flags: HMW
LayerCount: 2
Fore
SplineSet
230 0 m 1
 80 0 l 1
 235 729 l 1
 747 729 l 1
 720 604 l 1
 358 604 l 1
 326 455 l 1
 470 455 l 2
 623 455 679 390 679 289 c 0
 679 266 676 241 671 215 c 2
 625 0 l 2
 605 -92 569 -166 416 -166 c 2
 312 -166 l 1
 334 -59 l 1
 389 -59 l 2
 456 -59 468 -34 475 0 c 2
 523 224 l 2
 526 241 529 257 529 271 c 0
 529 307 510 330 443 330 c 2
 300 330 l 1
 230 0 l 1
EndSplineSet
Validated: 3073
Substitution2: "'c2sc' caps to small caps in Cyrillic-invariant" ghemidhookcyr
EndChar

StartChar: ghemidhookcyr
Encoding: 1173 1173 501
Width: 528
Flags: HMW
LayerCount: 2
Fore
SplineSet
291 427 m 1
 266 299 l 1
 374 299 l 2
 461 299 519 246 519 167 c 0
 519 149 517 131 513 112 c 2
 489 0 l 2
 473 -75 431 -132 344 -132 c 2
 263 -132 l 1
 281 -44 l 1
 328 -44 342 -26 352 22 c 2
 370 94 l 2
 374 115 375 115 375 128 c 0
 375 177 342 187 314 187 c 2
 240 187 l 1
 200 0 l 1
 60 0 l 1
 175 540 l 1
 523 540 l 1
 499 427 l 1
 291 427 l 1
EndSplineSet
Validated: 3073
EndChar

StartChar: Zhedesccyr
Encoding: 1174 1174 502
Width: 1091
Flags: HMW
LayerCount: 2
Fore
SplineSet
992 108 m 1
 1094 108 l 1
 1039 -150 l 1
 909 -150 l 1
 941 0 l 1
 892 0 l 1
 679 285 l 1
 618 0 l 1
 468 0 l 1
 529 285 l 1
 194 0 l 1
 15 0 l 1
 452 378 l 1
 214 729 l 1
 378 729 l 1
 564 450 l 1
 623 729 l 1
 773 729 l 1
 714 450 l 1
 1018 729 l 1
 1182 729 l 1
 794 378 l 1
 992 108 l 1
EndSplineSet
Validated: 3073
Substitution2: "'c2sc' caps to small caps in Cyrillic-invariant" zhedesccyr
EndChar

StartChar: zhedesccyr
Encoding: 1175 1175 503
Width: 803
Flags: HMW
LayerCount: 2
Fore
SplineSet
732 101 m 1
 804 101 l 1
 756 -125 l 1
 646 -125 l 1
 673 0 l 1
 604 0 l 1
 509 198 l 1
 467 0 l 1
 327 0 l 1
 369 198 l 1
 190 0 l 1
 11 0 l 1
 287 296 l 1
 162 540 l 1
 310 540 l 1
 402 351 l 1
 442 540 l 1
 582 540 l 1
 542 351 l 1
 714 540 l 1
 862 540 l 1
 633 296 l 1
 732 101 l 1
EndSplineSet
Validated: 3073
EndChar

StartChar: Zedesccyr
Encoding: 1176 1176 504
Width: 659
Flags: HMW
LayerCount: 2
Fore
SplineSet
360 -22 m 1
 388 -35 462 -81 462 -157 c 0
 462 -204 411 -233 328 -233 c 0
 304 -233 283 -230 251 -224 c 1
 241 -172 l 1
 261 -179 286 -183 312 -183 c 0
 345 -183 362 -169 362 -143 c 0
 362 -116 345 -64 273 -21 c 1
 138 -8 67 59 67 170 c 0
 67 185 68 201 71 218 c 1
 217 218 l 1
 216 211 215 204 215 197 c 0
 215 132 268 97 356 97 c 0
 455 97 526 142 526 223 c 0
 526 270 496 308 411 308 c 2
 309 308 l 1
 334 428 l 1
 410 428 l 2
 522 428 572 483 572 542 c 0
 572 586 531 621 463 621 c 0
 368 621 307 581 286 507 c 1
 146 507 l 1
 159 569 213 741 482 741 c 0
 633 741 716 680 716 571 c 0
 716 487 674 413 617 377 c 1
 658 352 677 317 677 268 c 0
 677 70 539 -12 360 -22 c 1
EndSplineSet
Validated: 3073
Substitution2: "'c2sc' caps to small caps in Cyrillic-invariant" zedesccyr
EndChar

StartChar: zedesccyr
Encoding: 1177 1177 505
Width: 548
Flags: HMW
LayerCount: 2
Fore
SplineSet
316 -21 m 1
 347 -38 419 -80 419 -157 c 0
 419 -204 368 -233 285 -233 c 0
 261 -233 240 -230 208 -224 c 1
 198 -172 l 1
 218 -179 243 -183 269 -183 c 0
 302 -183 319 -169 319 -143 c 0
 319 -116 302 -64 230 -21 c 1
 115 -11 56 38 56 119 c 0
 56 131 57 143 60 157 c 1
 197 157 l 1
 197 149 l 2
 197 92 247 87 292 87 c 0
 365 87 410 109 410 163 c 0
 410 185 399 208 339 208 c 2
 247 208 l 1
 271 318 l 1
 360 318 l 2
 433 318 441 361 441 391 c 0
 441 416 414 439 369 439 c 0
 302 439 269 415 258 366 c 1
 123 366 l 1
 149 480 247 549 392 549 c 0
 512 549 580 496 580 409 c 0
 580 349 557 296 516 271 c 1
 542 252 555 229 555 196 c 0
 555 75 452 -8 316 -21 c 1
EndSplineSet
Validated: 3073
EndChar

StartChar: Kadesccyr
Encoding: 1178 1178 506
Width: 739
Flags: HMW
LayerCount: 2
Fore
SplineSet
632 108 m 1
 742 108 l 1
 687 -150 l 1
 557 -150 l 1
 589 0 l 1
 540 0 l 1
 291 285 l 1
 230 0 l 1
 80 0 l 1
 235 729 l 1
 385 729 l 1
 326 450 l 1
 670 729 l 1
 847 729 l 1
 406 378 l 1
 632 108 l 1
EndSplineSet
Validated: 3073
Substitution2: "'c2sc' caps to small caps in Cyrillic-invariant" kadesccyr
EndChar

StartChar: kadesccyr
Encoding: 1179 1179 507
Width: 569
Flags: HMW
LayerCount: 2
Fore
SplineSet
484 101 m 1
 570 101 l 1
 522 -125 l 1
 412 -125 l 1
 439 0 l 1
 367 0 l 1
 242 198 l 1
 200 0 l 1
 60 0 l 1
 175 540 l 1
 315 540 l 1
 275 351 l 1
 477 540 l 1
 625 540 l 1
 359 296 l 1
 484 101 l 1
EndSplineSet
Validated: 3073
EndChar

StartChar: Kavertstrokecyr
Encoding: 1180 1180 508
Width: 742
Flags: HMW
LayerCount: 2
Fore
SplineSet
316 256 m 1
 291 285 l 1
 230 0 l 1
 80 0 l 1
 235 729 l 1
 385 729 l 1
 326 450 l 1
 364 481 l 1
 398 640 l 1
 508 640 l 1
 497 589 l 1
 670 729 l 1
 847 729 l 1
 462 422 l 1
 443 335 l 1
 731 0 l 1
 544 0 l 1
 405 157 l 1
 393 100 l 1
 283 100 l 1
 316 256 l 1
EndSplineSet
Validated: 3073
Substitution2: "'c2sc' caps to small caps in Cyrillic-invariant" kavertstrokecyr
EndChar

StartChar: kavertstrokecyr
Encoding: 1181 1181 509
Width: 560
Flags: HMW
LayerCount: 2
Fore
SplineSet
262 166 m 1
 242 198 l 1
 200 0 l 1
 60 0 l 1
 175 540 l 1
 315 540 l 1
 275 351 l 1
 308 382 l 1
 336 511 l 1
 426 511 l 1
 421 487 l 1
 477 540 l 1
 625 540 l 1
 385 320 l 1
 375 271 l 1
 549 0 l 1
 367 0 l 1
 330 59 l 1
 325 38 l 1
 235 38 l 1
 262 166 l 1
EndSplineSet
Validated: 3073
EndChar

StartChar: Kastrokecyr
Encoding: 1182 1182 510
Width: 737
Flags: HMW
LayerCount: 2
Fore
SplineSet
371 662 m 1
 448 662 l 1
 431 582 l 1
 354 582 l 1
 326 450 l 1
 670 729 l 1
 847 729 l 1
 406 378 l 1
 731 0 l 1
 544 0 l 1
 291 285 l 1
 230 0 l 1
 80 0 l 1
 204 582 l 1
 131 582 l 1
 148 662 l 1
 221 662 l 1
 235 729 l 1
 385 729 l 1
 371 662 l 1
EndSplineSet
Validated: 3073
Substitution2: "'c2sc' caps to small caps in Cyrillic-invariant" kastrokecyr
EndChar

StartChar: kastrokecyr
Encoding: 1183 1183 511
Width: 559
Flags: HMW
LayerCount: 2
Fore
SplineSet
307 502 m 1
 348 502 l 1
 331 422 l 1
 290 422 l 1
 275 351 l 1
 477 540 l 1
 625 540 l 1
 359 296 l 1
 549 0 l 1
 367 0 l 1
 242 198 l 1
 200 0 l 1
 60 0 l 1
 150 422 l 1
 100 422 l 1
 117 502 l 1
 167 502 l 1
 175 540 l 1
 315 540 l 1
 307 502 l 1
EndSplineSet
Validated: 3073
EndChar

StartChar: Kabashkircyr
Encoding: 1184 1184 512
Width: 900
Flags: HMW
LayerCount: 2
Fore
SplineSet
243 0 m 1
 371 604 l 1
 142 604 l 1
 168 729 l 1
 548 729 l 1
 489 450 l 1
 833 729 l 1
 1010 729 l 1
 569 378 l 1
 894 0 l 1
 707 0 l 1
 454 285 l 1
 393 0 l 1
 243 0 l 1
EndSplineSet
Validated: 3073
Substitution2: "'c2sc' caps to small caps in Cyrillic-invariant" kabashkircyr
EndChar

StartChar: kabashkircyr
Encoding: 1185 1185 513
Width: 679
Flags: HMW
LayerCount: 2
Fore
SplineSet
181 0 m 1
 271 427 l 1
 100 427 l 1
 124 540 l 1
 435 540 l 1
 395 351 l 1
 597 540 l 1
 745 540 l 1
 479 296 l 1
 669 0 l 1
 487 0 l 1
 362 198 l 1
 320 0 l 1
 181 0 l 1
EndSplineSet
Validated: 3073
EndChar

StartChar: Endesccyr
Encoding: 1186 1186 514
Width: 808
Flags: HMW
LayerCount: 2
Fore
SplineSet
681 108 m 1
 812 108 l 1
 757 -150 l 1
 627 -150 l 1
 659 0 l 1
 509 0 l 1
 575 311 l 1
 286 311 l 1
 220 0 l 1
 70 0 l 1
 225 729 l 1
 375 729 l 1
 313 436 l 1
 601 436 l 1
 663 729 l 1
 814 729 l 1
 681 108 l 1
EndSplineSet
Validated: 3073
Substitution2: "'c2sc' caps to small caps in Cyrillic-invariant" entailcyr
EndChar

StartChar: endesccyr
Encoding: 1187 1187 515
Width: 673
Flags: HMW
LayerCount: 2
Fore
SplineSet
564 101 m 1
 674 101 l 1
 626 -125 l 1
 516 -125 l 1
 543 0 l 1
 403 0 l 1
 456 237 l 1
 253 237 l 1
 200 0 l 1
 60 0 l 1
 175 540 l 1
 315 540 l 1
 275 352 l 1
 478 352 l 1
 518 540 l 1
 658 540 l 1
 564 101 l 1
EndSplineSet
Validated: 3073
EndChar

StartChar: Enghecyr
Encoding: 1188 1188 516
Width: 1004
Flags: HMW
LayerCount: 2
Fore
SplineSet
667 0 m 1
 519 0 l 1
 585 311 l 1
 296 311 l 1
 230 0 l 1
 80 0 l 1
 235 729 l 1
 385 729 l 1
 323 436 l 1
 611 436 l 1
 672 729 l 1
 1134 729 l 1
 1107 604 l 1
 795 604 l 1
 667 0 l 1
EndSplineSet
Validated: 3073
Substitution2: "'c2sc' caps to small caps in Cyrillic-invariant" enghecyr
EndChar

StartChar: enghecyr
Encoding: 1189 1189 517
Width: 761
Flags: HMW
LayerCount: 2
Fore
SplineSet
542 0 m 1
 403 0 l 1
 456 237 l 1
 253 237 l 1
 200 0 l 1
 60 0 l 1
 175 540 l 1
 315 540 l 1
 275 352 l 1
 478 352 l 1
 517 540 l 1
 855 540 l 1
 831 427 l 1
 633 427 l 1
 542 0 l 1
EndSplineSet
Validated: 3073
EndChar

StartChar: Pemidhookcyr
Encoding: 1190 1190 518
Width: 1114
Flags: HMW
LayerCount: 2
Fore
SplineSet
824 729 m 1
 766 455 l 1
 910 455 l 2
 1063 455 1119 390 1119 289 c 0
 1119 266 1116 241 1111 215 c 2
 1065 0 l 2
 1045 -92 1009 -166 856 -166 c 2
 752 -166 l 1
 774 -59 l 1
 829 -59 l 2
 896 -59 908 -34 915 0 c 2
 963 224 l 2
 966 241 969 257 969 271 c 0
 969 307 950 330 883 330 c 2
 740 330 l 1
 670 0 l 1
 519 0 l 1
 647 604 l 1
 358 604 l 1
 230 0 l 1
 80 0 l 1
 235 729 l 1
 824 729 l 1
EndSplineSet
Validated: 3073
Substitution2: "'c2sc' caps to small caps in Cyrillic-invariant" pemidhookcyr
EndChar

StartChar: pemidhookcyr
Encoding: 1191 1191 519
Width: 876
Flags: HMW
LayerCount: 2
Fore
SplineSet
609 299 m 1
 717 299 l 2
 804 299 862 246 862 167 c 0
 862 149 860 131 856 112 c 2
 832 0 l 2
 816 -75 774 -132 687 -132 c 2
 606 -132 l 1
 624 -44 l 1
 671 -44 685 -26 695 22 c 2
 713 94 l 2
 717 115 718 115 718 128 c 0
 718 177 685 187 657 187 c 2
 583 187 l 1
 543 0 l 1
 403 0 l 1
 494 427 l 1
 291 427 l 1
 200 0 l 1
 60 0 l 1
 175 540 l 1
 658 540 l 1
 609 299 l 1
EndSplineSet
Validated: 3073
EndChar

StartChar: Esdesccyr
Encoding: 1194 1194 520
Width: 724
Flags: HMW
LayerCount: 2
Fore
SplineSet
403 -21 m 1
 434 -38 506 -80 506 -157 c 0
 506 -204 455 -233 372 -233 c 0
 348 -233 327 -230 295 -224 c 1
 285 -172 l 1
 305 -179 330 -183 356 -183 c 0
 389 -183 406 -169 406 -143 c 0
 406 -120 393 -67 316 -20 c 1
 178 -3 100 93 100 243 c 0
 100 522 289 741 528 741 c 0
 680 741 781 658 781 535 c 0
 781 519 779 501 777 482 c 1
 634 482 l 1
 632 550 612 613 506 613 c 0
 362 613 251 452 251 264 c 0
 251 161 302 103 392 103 c 0
 485 103 556 156 585 249 c 1
 731 249 l 1
 689 95 564 -7 403 -21 c 1
EndSplineSet
Validated: 3073
Substitution2: "'c2sc' caps to small caps in Cyrillic-invariant" esdesccyr
EndChar

StartChar: esdesccyr
Encoding: 1195 1195 521
Width: 554
Flags: HMW
LayerCount: 2
Fore
SplineSet
322 -20 m 1
 352 -35 427 -80 427 -157 c 0
 427 -204 376 -233 293 -233 c 0
 269 -233 248 -230 216 -224 c 1
 206 -172 l 1
 226 -179 251 -183 277 -183 c 0
 310 -183 327 -169 327 -143 c 0
 327 -96 287 -50 236 -20 c 1
 133 -4 77 67 77 173 c 0
 77 376 218 549 404 549 c 0
 525 549 595 485 595 377 c 0
 595 365 594 352 592 338 c 1
 458 338 l 1
 457 409 436 436 379 436 c 0
 244 436 220 243 220 197 c 0
 220 129 248 90 306 90 c 0
 360 90 393 117 426 187 c 1
 560 187 l 1
 524 72 434 -5 322 -20 c 1
EndSplineSet
Validated: 3073
EndChar

StartChar: Tedesccyr
Encoding: 1196 1196 522
Width: 611
Flags: HMW
LayerCount: 2
Fore
SplineSet
407 108 m 1
 538 108 l 1
 483 -150 l 1
 353 -150 l 1
 385 0 l 1
 235 0 l 1
 363 604 l 1
 142 604 l 1
 169 729 l 1
 753 729 l 1
 726 604 l 1
 513 604 l 1
 407 108 l 1
EndSplineSet
Validated: 3073
Substitution2: "'c2sc' caps to small caps in Cyrillic-invariant" tedesccyr
EndChar

StartChar: tedesccyr
Encoding: 1197 1197 523
Width: 454
Flags: HMW
LayerCount: 2
Fore
SplineSet
306 101 m 1
 416 101 l 1
 368 -125 l 1
 258 -125 l 1
 285 0 l 1
 145 0 l 1
 236 427 l 1
 101 427 l 1
 125 540 l 1
 535 540 l 1
 511 427 l 1
 376 427 l 1
 306 101 l 1
EndSplineSet
Validated: 3073
EndChar

StartChar: Ustraightcyr
Encoding: 1198 1198 524
Width: 667
Flags: HMW
LayerCount: 2
Fore
SplineSet
477 270 m 1
 419 0 l 1
 269 0 l 1
 327 270 l 1
 182 729 l 1
 349 729 l 1
 431 414 l 1
 638 729 l 1
 805 729 l 1
 477 270 l 1
EndSplineSet
Validated: 3073
Substitution2: "'c2sc' caps to small caps in Cyrillic-1" sc.y
EndChar

StartChar: ustraightcyr
Encoding: 1199 1199 525
Width: 584
Flags: HMW
LayerCount: 2
Fore
SplineSet
422 81 m 1
 384 -189 l 1
 234 -189 l 1
 272 81 l 1
 125 540 l 1
 292 540 l 1
 366 218 l 1
 520 540 l 1
 688 540 l 1
 422 81 l 1
EndSplineSet
Validated: 3073
Substitution2: "'smcp' lowercase to small caps in Cyrillic-1" sc.y
EndChar

StartChar: Ustraightstrokecyr
Encoding: 1200 1200 526
Width: 652
Flags: HMW
LayerCount: 2
Fore
SplineSet
295 145 m 1
 95 145 l 1
 117 249 l 1
 317 249 l 1
 321 270 l 1
 175 729 l 1
 342 729 l 1
 424 407 l 1
 630 729 l 1
 798 729 l 1
 471 270 l 1
 467 249 l 1
 667 249 l 1
 645 145 l 1
 445 145 l 1
 415 0 l 1
 265 0 l 1
 295 145 l 1
EndSplineSet
Validated: 3073
Substitution2: "'c2sc' caps to small caps in Cyrillic-B" sc.uk_precherknuty
EndChar

StartChar: ustraightstrokecyr
Encoding: 1201 1201 527
Width: 632
Flags: HMW
LayerCount: 2
Fore
SplineSet
409 -23 m 1
 385 -189 l 1
 235 -189 l 1
 259 -23 l 1
 59 -23 l 1
 73 81 l 1
 273 81 l 1
 125 540 l 1
 292 540 l 1
 366 218 l 1
 520 540 l 1
 688 540 l 1
 423 81 l 1
 623 81 l 1
 609 -23 l 1
 409 -23 l 1
EndSplineSet
Validated: 3073
Substitution2: "'smcp' lowercase to small caps in Cyrillic-B" sc.uk_precherknuty
EndChar

StartChar: Hadesccyr
Encoding: 1202 1202 528
Width: 667
Flags: HMW
LayerCount: 2
Fore
SplineSet
602 108 m 1
 670 108 l 1
 615 -150 l 1
 485 -150 l 1
 517 0 l 1
 469 0 l 1
 383 253 l 1
 190 0 l 1
 16 0 l 1
 324 367 l 1
 179 729 l 1
 357 729 l 1
 434 489 l 1
 619 729 l 1
 793 729 l 1
 492 372 l 1
 602 108 l 1
EndSplineSet
Validated: 3073
Substitution2: "'c2sc' caps to small caps in Cyrillic-invariant" hadesccyr
EndChar

StartChar: hadesccyr
Encoding: 1203 1203 529
Width: 550
Flags: HMW
LayerCount: 2
Fore
SplineSet
483 101 m 1
 551 101 l 1
 503 -125 l 1
 393 -125 l 1
 420 0 l 1
 361 0 l 1
 306 168 l 1
 178 0 l 1
 10 0 l 1
 248 272 l 1
 129 540 l 1
 297 540 l 1
 350 377 l 1
 472 540 l 1
 640 540 l 1
 407 272 l 1
 483 101 l 1
EndSplineSet
Validated: 3073
EndChar

StartChar: Tetsecyr
Encoding: 1204 1204 530
Width: 951
Flags: HMW
LayerCount: 2
Fore
SplineSet
481 604 m 1
 379 125 l 1
 668 125 l 1
 796 729 l 1
 946 729 l 1
 814 108 l 1
 954 108 l 1
 899 -150 l 1
 769 -150 l 1
 801 0 l 1
 203 0 l 1
 331 604 l 1
 142 604 l 1
 167 729 l 1
 689 729 l 1
 664 604 l 1
 481 604 l 1
EndSplineSet
Validated: 3073
Substitution2: "'c2sc' caps to small caps in Cyrillic-invariant" tetsecyr
EndChar

StartChar: tetsecyr
Encoding: 1205 1205 531
Width: 748
Flags: HMW
LayerCount: 2
Fore
SplineSet
356 427 m 1
 289 113 l 1
 492 113 l 1
 583 540 l 1
 723 540 l 1
 629 101 l 1
 749 101 l 1
 701 -125 l 1
 591 -125 l 1
 618 0 l 1
 125 0 l 1
 216 427 l 1
 101 427 l 1
 125 540 l 1
 495 540 l 1
 471 427 l 1
 356 427 l 1
EndSplineSet
Validated: 3073
EndChar

StartChar: Chedesccyr
Encoding: 1206 1206 532
Width: 759
Flags: HMW
LayerCount: 2
Fore
SplineSet
612 108 m 1
 752 108 l 1
 697 -150 l 1
 567 -150 l 1
 599 0 l 1
 439 0 l 1
 497 274 l 1
 353 274 l 2
 200 274 144 339 144 440 c 0
 144 463 147 488 152 514 c 2
 198 729 l 1
 348 729 l 1
 300 505 l 2
 297 488 294 472 294 458 c 0
 294 422 313 399 380 399 c 2
 523 399 l 1
 593 729 l 1
 744 729 l 1
 612 108 l 1
EndSplineSet
Validated: 3073
Substitution2: "'c2sc' caps to small caps in Cyrillic-invariant" chedesccyr
EndChar

StartChar: chedesccyr
Encoding: 1207 1207 533
Width: 630
Flags: HMW
LayerCount: 2
Fore
SplineSet
512 101 m 1
 631 101 l 1
 583 -125 l 1
 473 -125 l 1
 500 0 l 1
 350 0 l 1
 385 165 l 1
 300 165 l 2
 166 165 104 214 104 309 c 0
 104 327 106 347 111 369 c 2
 147 540 l 1
 287 540 l 1
 249 363 l 2
 246 349 244 337 244 326 c 0
 244 295 261 278 316 278 c 2
 409 278 l 1
 465 540 l 1
 605 540 l 1
 512 101 l 1
EndSplineSet
Validated: 3073
EndChar

StartChar: Chevertstrokecyr
Encoding: 1208 1208 534
Width: 669
Flags: HMW
LayerCount: 2
Fore
SplineSet
359 400 m 1
 390 550 l 1
 489 550 l 1
 457 399 l 1
 523 399 l 1
 593 729 l 1
 744 729 l 1
 589 0 l 1
 439 0 l 1
 497 274 l 1
 431 274 l 1
 400 130 l 1
 301 130 l 1
 332 274 l 1
 195 280 144 344 144 440 c 0
 144 463 147 488 152 514 c 2
 198 729 l 1
 348 729 l 1
 300 505 l 2
 297 488 294 472 294 458 c 0
 294 426 309 405 359 400 c 1
EndSplineSet
Validated: 3073
Substitution2: "'c2sc' caps to small caps in Cyrillic-invariant" chevertstrokecyr
EndChar

StartChar: chevertstrokecyr
Encoding: 1209 1209 535
Width: 580
Flags: HMW
LayerCount: 2
Fore
SplineSet
268 167 m 1
 163 177 114 225 114 309 c 0
 114 327 116 347 121 369 c 2
 157 540 l 1
 297 540 l 1
 259 363 l 2
 256 349 254 337 254 326 c 0
 254 303 264 287 292 281 c 1
 311 370 l 1
 390 370 l 1
 370 278 l 1
 419 278 l 1
 475 540 l 1
 615 540 l 1
 500 0 l 1
 360 0 l 1
 395 165 l 1
 346 165 l 1
 326 70 l 1
 247 70 l 1
 268 167 l 1
EndSplineSet
Validated: 3073
EndChar

StartChar: Shhacyr
Encoding: 1210 1210 536
Width: 672
Flags: HMW
LayerCount: 2
Fore
SplineSet
327 455 m 1
 471 455 l 2
 624 455 680 390 680 289 c 0
 680 266 677 241 671 215 c 2
 626 0 l 1
 476 0 l 1
 523 224 l 2
 527 241 529 257 529 271 c 0
 529 307 511 330 444 330 c 2
 301 330 l 1
 231 0 l 1
 80 0 l 1
 235 729 l 1
 385 729 l 1
 327 455 l 1
EndSplineSet
Validated: 3073
Substitution2: "'c2sc' caps to small caps in Cyrillic-invariant" shhacyr
EndChar

StartChar: shhacyr
Encoding: 1211 1211 537
Width: 576
Flags: HMW
LayerCount: 2
Fore
SplineSet
528 0 m 1
 388 0 l 1
 426 177 l 2
 429 191 431 203 431 214 c 0
 431 245 414 262 359 262 c 2
 266 262 l 1
 210 0 l 1
 70 0 l 1
 185 540 l 1
 325 540 l 1
 290 375 l 1
 375 375 l 2
 509 375 571 326 571 231 c 0
 571 213 569 193 564 171 c 2
 528 0 l 1
EndSplineSet
Validated: 3073
EndChar

StartChar: Cheabkhazcyr
Encoding: 1212 1212 538
Width: 977
Flags: HMW
LayerCount: 2
Fore
SplineSet
562 469 m 1
 894 469 l 1
 895 478 895 486 895 494 c 0
 895 572 848 615 764 615 c 0
 677 615 606 562 562 469 c 1
137 495 m 0
 137 612 201 745 346 745 c 0
 417 745 472 714 472 648 c 0
 472 639 470 629 468 618 c 1
 358 618 l 1
 359 621 359 624 359 627 c 0
 359 644 348 656 326 656 c 0
 286 656 278 628 266 571 c 0
 263 557 262 544 262 533 c 0
 262 493 281 469 315 469 c 2
 409 469 l 1
 479 639 618 741 787 741 c 0
 935 741 1032 660 1032 489 c 0
 1032 451 1027 409 1017 363 c 1
 526 363 l 1
 519 328 515 296 515 268 c 0
 515 162 566 105 660 105 c 0
 785 105 827 199 844 236 c 1
 987 236 l 1
 939 72 793 -23 628 -23 c 0
 458 -23 363 76 363 245 c 0
 363 281 367 321 376 363 c 1
 204 363 137 396 137 495 c 0
EndSplineSet
Validated: 3073
Substitution2: "'c2sc' caps to small caps in Cyrillic-invariant" cheabkhazcyr
EndChar

StartChar: cheabkhazcyr
Encoding: 1213 1213 539
Width: 752
Flags: HMW
LayerCount: 2
Fore
SplineSet
459 356 m 1
 655 356 l 1
 651 414 629 436 577 436 c 0
 498 436 469 375 459 356 c 1
108 366 m 0
 108 495 201 549 264 549 c 0
 312 549 358 518 358 466 c 0
 358 459 358 452 356 445 c 1
 272 445 l 1
 273 447 272 450 272 452 c 0
 272 465 263 474 248 474 c 0
 205 474 197 407 197 397 c 0
 197 367 220 356 244 356 c 2
 316 356 l 1
 370 480 472 549 602 549 c 0
 723 549 793 485 793 377 c 0
 793 365 792 352 790 338 c 2
 773 260 l 1
 425 260 l 1
 420 235 417 213 417 193 c 0
 417 126 447 90 503 90 c 0
 557 90 591 117 624 187 c 1
 758 187 l 1
 718 58 609 -23 478 -23 c 0
 346 -23 275 48 275 172 c 0
 275 199 278 228 285 260 c 1
 161 260 108 287 108 366 c 0
EndSplineSet
Validated: 3073
EndChar

StartChar: Chedescabkhazcyr
Encoding: 1214 1214 540
Width: 993
Flags: HMW
LayerCount: 2
Fore
SplineSet
562 469 m 1
 894 469 l 1
 894 475 894 481 894 487 c 0
 894 569 845 615 758 615 c 0
 671 615 602 562 562 469 c 1
136 504 m 0
 136 646 214 745 336 745 c 0
 409 745 465 713 465 644 c 0
 465 636 465 627 463 618 c 1
 353 618 l 1
 353 621 354 624 354 626 c 0
 354 643 343 656 320 656 c 0
 272 656 260 568 260 538 c 0
 260 494 279 469 315 469 c 2
 409 469 l 1
 473 639 608 741 777 741 c 0
 930 741 1031 655 1031 472 c 0
 1031 439 1028 402 1021 363 c 1
 530 363 l 1
 525 333 522 306 522 281 c 0
 522 167 576 105 674 105 c 0
 799 105 837 199 853 236 c 1
 996 236 l 1
 958 86 835 -6 687 -21 c 1
 656 -197 l 1
 564 -197 l 1
 595 -20 l 1
 451 -2 371 100 371 261 c 0
 371 293 374 327 380 363 c 1
 203 363 136 398 136 504 c 0
EndSplineSet
Validated: 3073
Substitution2: "'c2sc' caps to small caps in Cyrillic-invariant" chedescabkhazcyr
EndChar

StartChar: chedescabkhazcyr
Encoding: 1215 1215 541
Width: 761
Flags: HMW
LayerCount: 2
Fore
SplineSet
102 373 m 0
 102 503 193 549 251 549 c 0
 300 549 348 516 348 462 c 0
 348 456 347 451 346 445 c 1
 262 445 l 1
 262 447 263 449 263 451 c 0
 263 465 254 474 238 474 c 0
 199 474 190 416 190 399 c 0
 190 367 213 356 238 356 c 2
 310 356 l 1
 360 480 459 549 589 549 c 0
 714 549 786 481 786 367 c 0
 786 357 786 348 785 338 c 2
 771 260 l 1
 423 260 l 1
 419 239 417 219 417 202 c 0
 417 130 449 90 507 90 c 0
 561 90 594 117 624 187 c 1
 758 187 l 1
 727 75 643 -1 536 -19 c 1
 504 -197 l 1
 412 -197 l 1
 443 -20 l 1
 334 -6 276 67 276 184 c 0
 276 208 278 233 283 260 c 1
 156 260 102 289 102 373 c 0
453 356 m 1
 649 356 l 1
 643 414 620 436 568 436 c 0
 489 436 462 375 453 356 c 1
EndSplineSet
Validated: 3073
EndChar

StartChar: Palochka
Encoding: 1216 1216 542
Width: 318
Flags: HMW
LayerCount: 2
Fore
SplineSet
385 729 m 1
 230 0 l 1
 80 0 l 1
 235 729 l 1
 385 729 l 1
EndSplineSet
Validated: 3073
Substitution2: "'c2sc' caps to small caps in Cyrillic-invariant" sc.i
EndChar

StartChar: Kahookcyr
Encoding: 1219 1219 545
Width: 726
Flags: HMW
LayerCount: 2
Fore
SplineSet
491 253 m 2
 284 253 l 1
 230 0 l 1
 80 0 l 1
 235 729 l 1
 385 729 l 1
 326 450 l 1
 670 729 l 1
 847 729 l 1
 406 378 l 1
 518 378 l 2
 671 378 727 313 727 212 c 0
 727 189 724 164 719 138 c 2
 690 3 l 2
 670 -89 634 -163 481 -163 c 2
 377 -163 l 1
 399 -56 l 1
 454 -56 l 2
 521 -56 533 -31 540 3 c 2
 571 147 l 2
 574 164 577 180 577 194 c 0
 577 230 558 253 491 253 c 2
EndSplineSet
Validated: 3073
Substitution2: "'c2sc' caps to small caps in Cyrillic-invariant" kahookcyr
EndChar

StartChar: kahookcyr
Encoding: 1220 1220 546
Width: 530
Flags: HMW
LayerCount: 2
Fore
SplineSet
375 297 m 2
 462 297 520 246 520 167 c 0
 520 149 518 131 514 112 c 2
 490 0 l 2
 474 -75 432 -132 345 -132 c 2
 264 -132 l 1
 282 -44 l 1
 329 -44 343 -26 353 22 c 2
 371 94 l 2
 375 115 376 115 376 128 c 0
 376 177 343 187 315 187 c 2
 241 187 l 1
 201 0 l 1
 60 0 l 1
 175 540 l 1
 315 540 l 1
 275 351 l 1
 477 540 l 1
 625 540 l 1
 359 296 l 1
 375 297 l 2
EndSplineSet
Validated: 3073
EndChar

StartChar: Enhookcyr
Encoding: 1223 1223 547
Width: 749
Flags: HMW
LayerCount: 2
Fore
SplineSet
519 0 m 2
 585 311 l 1
 296 311 l 1
 230 0 l 1
 80 0 l 1
 235 729 l 1
 385 729 l 1
 323 436 l 1
 611 436 l 1
 673 729 l 1
 824 729 l 1
 669 0 l 2
 649 -92 613 -166 460 -166 c 2
 356 -166 l 1
 378 -59 l 1
 433 -59 l 2
 500 -59 512 -34 519 0 c 2
EndSplineSet
Validated: 3073
Substitution2: "'c2sc' caps to small caps in Cyrillic-invariant" enhookcyr
EndChar

StartChar: enhookcyr
Encoding: 1224 1224 548
Width: 603
Flags: HMW
LayerCount: 2
Fore
SplineSet
403 0 m 2
 456 237 l 1
 253 237 l 1
 200 0 l 1
 60 0 l 1
 175 540 l 1
 315 540 l 1
 275 352 l 1
 478 352 l 1
 518 540 l 1
 658 540 l 1
 543 0 l 2
 527 -75 487 -132 400 -132 c 2
 319 -132 l 1
 337 -44 l 1
 384 -44 398 -23 403 0 c 2
EndSplineSet
Validated: 3073
EndChar

StartChar: Chekhakasscyr
Encoding: 1227 1227 549
Width: 675
Flags: HMW
LayerCount: 2
Fore
SplineSet
435 0 m 1
 403 -150 l 1
 273 -150 l 1
 328 108 l 1
 468 108 l 1
 503 274 l 1
 359 274 l 2
 206 274 150 339 150 440 c 0
 150 463 153 488 158 514 c 2
 204 729 l 1
 354 729 l 1
 306 505 l 2
 303 488 300 472 300 458 c 0
 300 422 319 399 386 399 c 2
 529 399 l 1
 599 729 l 1
 750 729 l 1
 595 0 l 1
 435 0 l 1
EndSplineSet
Validated: 3073
Substitution2: "'c2sc' caps to small caps in Cyrillic-invariant" chekhakasscyr
EndChar

StartChar: chekhakasscyr
Encoding: 1228 1228 550
Width: 573
Flags: HMW
LayerCount: 2
Fore
SplineSet
383 101 m 1
 397 165 l 1
 312 165 l 2
 178 165 116 214 116 309 c 0
 116 327 118 347 123 369 c 2
 159 540 l 1
 299 540 l 1
 261 363 l 2
 258 349 256 337 256 326 c 0
 256 295 273 278 328 278 c 2
 421 278 l 1
 477 540 l 1
 617 540 l 1
 502 0 l 1
 352 0 l 1
 325 -125 l 1
 215 -125 l 1
 263 101 l 1
 383 101 l 1
EndSplineSet
Validated: 3073
EndChar

StartChar: Schwacyr
Encoding: 1240 1240 559
Width: 738
Flags: HMW
AnchorPoint: "cyr-above" 527 728 basechar 0
LayerCount: 2
Fore
SplineSet
363 -23 m 0
 205 -23 105 68 105 200 c 0
 105 287 110 320 118 353 c 1
 629 353 l 1
 636 385 640 419 640 454 c 0
 640 557 589 615 499 615 c 0
 406 615 335 562 306 469 c 1
 160 469 l 1
 205 636 348 741 529 741 c 0
 696 741 791 641 791 475 c 0
 791 196 602 -23 363 -23 c 0
257 236 m 1
 259 168 279 105 385 105 c 0
 467 105 538 157 584 236 c 1
 257 236 l 1
EndSplineSet
Validated: 3073
Substitution2: "'c2sc' caps to small caps in Cyrillic-invariant" schwacyr
EndChar

StartChar: schwacyr
Encoding: 1241 1241 560
Width: 561
Flags: HMW
AnchorPoint: "cyr-above" 407 545 basechar 0
LayerCount: 2
Fore
SplineSet
77 172 m 0
 77 192 78 239 92 280 c 1
 454 280 l 1
 462 299 463 325 463 344 c 0
 463 350 463 356 463 360 c 0
 463 416 424 442 375 442 c 0
 324 442 280 417 253 374 c 1
 115 374 l 1
 169 480 282 549 403 549 c 0
 529 549 600 477 600 354 c 0
 600 154 457 -23 278 -23 c 0
 159 -23 77 43 77 172 c 0
429 187 m 1
 220 187 l 1
 219 181 219 174 219 167 c 0
 219 129 232 84 303 84 c 0
 365 84 401 124 429 187 c 1
EndSplineSet
Validated: 3073
EndChar

StartChar: hiriqhebrew
Encoding: 1460 1460 593
Width: 0
Flags: HMW
AnchorPoint: "heb-vowel-low" 360 0 mark 0
AnchorPoint: "vowel_below_yiddish" 361 0 mark 0
LayerCount: 2
Fore
SplineSet
310 -60 m 1
 393 -60 l 1
 375 -142 l 1
 293 -142 l 1
 310 -60 l 1
EndSplineSet
Validated: 3073
EndChar

StartChar: patahhebrew
Encoding: 1463 1463 596
Width: 0
Flags: HMW
AnchorPoint: "heb-vowel-low" 370 -0 mark 0
AnchorPoint: "vowel_below_yiddish" 371 -0 mark 0
LayerCount: 2
Fore
SplineSet
266 -60 m 1
 466 -60 l 1
 449 -142 l 1
 249 -142 l 1
 266 -60 l 1
EndSplineSet
Validated: 3073
EndChar

StartChar: qamatshebrew
Encoding: 1464 1464 597
Width: 0
Flags: HMW
AnchorPoint: "heb-vowel-low" 360 0 mark 0
AnchorPoint: "vowel_below_yiddish" 361 0 mark 0
LayerCount: 2
Fore
SplineSet
377 -142 m 1
 363 -205 l 1
 281 -205 l 1
 295 -142 l 1
 236 -142 l 1
 253 -60 l 1
 453 -60 l 1
 436 -142 l 1
 377 -142 l 1
EndSplineSet
Validated: 3073
EndChar

StartChar: holamhebrew
Encoding: 1465 1465 598
Width: 0
Flags: HMW
AnchorPoint: "heb-vowel-left" 237 600 mark 0
LayerCount: 2
Fore
SplineSet
222 742 m 1
 304 742 l 1
 287 660 l 1
 204 660 l 1
 222 742 l 1
EndSplineSet
Validated: 3073
EndChar

StartChar: siluqhebrew
Encoding: 1469 1469 601
Width: 0
Flags: HMW
LayerCount: 2
Fore
SplineSet
350 -60 m 1
 310 -248 l 1
 227 -248 l 1
 267 -60 l 1
 350 -60 l 1
EndSplineSet
Validated: 3073
EndChar

StartChar: maqafhebrew
Encoding: 1470 1470 602
Width: 596
Flags: HMW
AnchorPoint: "heb-point-abv" 470 600 basechar 0
LayerCount: 2
Fore
SplineSet
259 485 m 1
 283 600 l 1
 665 600 l 1
 640 485 l 1
 259 485 l 1
EndSplineSet
Validated: 3073
EndChar

StartChar: paseqhebrew
Encoding: 1472 1472 604
Width: 377
Flags: HMW
LayerCount: 2
Fore
SplineSet
18 -100 m 1
 188 700 l 1
 327 700 l 1
 157 -100 l 1
 18 -100 l 1
EndSplineSet
Validated: 3073
EndChar

StartChar: shindothebrew
Encoding: 1473 1473 605
Width: 0
Flags: HMW
LayerCount: 2
Fore
SplineSet
763 721 m 1
 845 721 l 1
 828 639 l 1
 745 639 l 1
 763 721 l 1
EndSplineSet
Validated: 3073
EndChar

StartChar: alefhebrew
Encoding: 1488 1488 609
Width: 714
Flags: HMW
AnchorPoint: "heb-dagesh" 320 -42 basechar 0
AnchorPoint: "heb-vowel-left" 237 600 basechar 0
AnchorPoint: "heb-point-abv" 440 600 basechar 0
AnchorPoint: "heb-vowel-low" 320 0 basechar 0
LayerCount: 2
Fore
SplineSet
306 285 m 1
 257 237 245 207 219 148 c 1
 188 0 l 1
 49 0 l 1
 82 158 l 2
 139 302 205 357 254 388 c 1
 149 600 l 1
 310 600 l 1
 452 315 l 1
 500 362 511 389 536 444 c 1
 570 600 l 1
 709 600 l 1
 673 433 l 2
 619 297 549 241 503 212 c 1
 610 0 l 1
 447 0 l 1
 306 285 l 1
EndSplineSet
Validated: 3073
EndChar

StartChar: bethebrew
Encoding: 1489 1489 610
Width: 651
Flags: HMW
AnchorPoint: "heb-dagesh" 252 306 basechar 0
AnchorPoint: "heb-vowel-left" 200 600 basechar 0
AnchorPoint: "heb-point-abv" 380 600 basechar 0
AnchorPoint: "heb-vowel-low" 340 0 basechar 0
LayerCount: 2
Fore
SplineSet
346 600 m 2
 502 581 562 489 562 410 c 0
 562 398 561 385 558 374 c 2
 503 115 l 1
 595 115 l 1
 570 0 l 1
 37 0 l 1
 61 115 l 1
 364 115 l 1
 418 365 l 2
 416 446 416 464 310 485 c 2
 140 485 l 1
 164 600 l 1
 346 600 l 2
EndSplineSet
Validated: 3073
EndChar

StartChar: gimelhebrew
Encoding: 1490 1490 611
Width: 557
Flags: HMW
AnchorPoint: "heb-dagesh" 194 306 basechar 0
AnchorPoint: "heb-vowel-left" 235 600 basechar 0
AnchorPoint: "heb-point-abv" 370 600 basechar 0
AnchorPoint: "heb-vowel-low" 286 0 basechar 0
LayerCount: 2
Fore
SplineSet
288 600 m 2
 479 578 497 501 500 378 c 2
 463 0 l 1
 323 0 l 1
 337 138 l 1
 180 0 l 1
 7 0 l 1
 225 194 l 1
 342 194 l 1
 359 361 l 2
 354 451 360 464 251 485 c 2
 179 485 l 1
 203 600 l 1
 288 600 l 2
EndSplineSet
Validated: 3073
EndChar

StartChar: dalethebrew
Encoding: 1491 1491 612
Width: 638
Flags: HMW
AnchorPoint: "heb-dagesh" 232 306 basechar 0
AnchorPoint: "heb-vowel-left" 198 600 basechar 0
AnchorPoint: "heb-point-abv" 400 600 basechar 0
AnchorPoint: "heb-vowel-low" 164 0 basechar 0
LayerCount: 2
Fore
SplineSet
407 485 m 1
 126 485 l 1
 150 600 l 1
 653 600 l 1
 629 485 l 1
 546 485 l 1
 443 0 l 1
 304 0 l 1
 407 485 l 1
EndSplineSet
Validated: 3073
EndChar

StartChar: hehebrew
Encoding: 1492 1492 613
Width: 682
Flags: HMW
AnchorPoint: "heb-dagesh" 371 306 basechar 0
AnchorPoint: "heb-vowel-left" 220 600 basechar 0
AnchorPoint: "heb-point-abv" 420 600 basechar 0
AnchorPoint: "heb-vowel-low" 315 0 basechar 0
LayerCount: 2
Fore
SplineSet
439 600 m 2
 526 590 652 562 652 406 c 0
 652 396 652 386 651 374 c 1
 572 0 l 1
 433 0 l 1
 511 365 l 2
 508 453 506 465 403 485 c 2
 142 485 l 1
 167 600 l 1
 439 600 l 2
39 0 m 1
 114 349 l 1
 253 349 l 1
 178 0 l 1
 39 0 l 1
EndSplineSet
Validated: 3073
EndChar

StartChar: vavhebrew
Encoding: 1493 1493 614
Width: 297
Flags: HMW
AnchorPoint: "heb-dagesh" 50 306 basechar 0
AnchorPoint: "heb-vowel-left" 154 600 basechar 0
AnchorPoint: "heb-point-abv" 237 600 basechar 0
AnchorPoint: "heb-vowel-low" 2 0 basechar 0
LayerCount: 2
Fore
SplineSet
39 0 m 1
 167 600 l 1
 306 600 l 1
 178 0 l 1
 39 0 l 1
EndSplineSet
Validated: 3073
EndChar

StartChar: zayinhebrew
Encoding: 1494 1494 615
Width: 443
Flags: HMW
AnchorPoint: "heb-dagesh" 101 306 basechar 0
AnchorPoint: "heb-vowel-left" 139 600 basechar 0
AnchorPoint: "heb-point-abv" 300 600 basechar 0
AnchorPoint: "heb-vowel-low" 40 0 basechar 0
LayerCount: 2
Fore
SplineSet
212 485 m 1
 127 485 l 1
 151 600 l 1
 458 600 l 1
 434 485 l 1
 351 485 l 1
 248 0 l 1
 109 0 l 1
 212 485 l 1
EndSplineSet
Validated: 3073
EndChar

StartChar: hethebrew
Encoding: 1495 1495 616
Width: 682
Flags: HMW
AnchorPoint: "heb-dagesh" 373 306 basechar 0
AnchorPoint: "heb-vowel-left" 222 600 basechar 0
AnchorPoint: "heb-point-abv" 420 600 basechar 0
AnchorPoint: "heb-vowel-low" 315 0 basechar 0
LayerCount: 2
Fore
SplineSet
439 600 m 2
 606 592 655 479 655 406 c 0
 655 394 653 383 651 374 c 2
 572 0 l 1
 433 0 l 1
 511 365 l 2
 508 453 507 465 403 485 c 2
 281 485 l 1
 178 0 l 1
 39 0 l 1
 167 600 l 1
 439 600 l 2
EndSplineSet
Validated: 3073
EndChar

StartChar: tethebrew
Encoding: 1496 1496 617
Width: 670
Flags: HMW
AnchorPoint: "heb-dagesh" 369 306 basechar 0
AnchorPoint: "heb-vowel-left" 233 600 basechar 0
AnchorPoint: "heb-point-abv" 450 600 basechar 0
AnchorPoint: "heb-vowel-low" 306 0 basechar 0
LayerCount: 2
Fore
SplineSet
403 485 m 0
 376 485 354 473 354 473 c 1
 380 595 l 1
 394 597 398 600 433 600 c 0
 602 600 650 480 650 402 c 0
 650 392 650 382 648 374 c 2
 617 226 l 1
 553 52 463 0 302 0 c 0
 132 0 82 121 82 199 c 0
 82 209 83 218 84 226 c 2
 163 600 l 1
 302 600 l 1
 225 235 l 1
 225 223 l 2
 225 149 268 117 327 115 c 1
 422 118 456 179 480 235 c 2
 508 365 l 1
 506 443 475 485 403 485 c 0
EndSplineSet
Validated: 3073
EndChar

StartChar: yodhebrew
Encoding: 1497 1497 618
Width: 284
Flags: HMW
AnchorPoint: "heb-dagesh" 39 306 basechar 0
AnchorPoint: "heb-vowel-left" 146 600 basechar 0
AnchorPoint: "heb-point-abv" 235 600 basechar 0
AnchorPoint: "heb-vowel-low" 126 0 basechar 0
AnchorPoint: "vowel_below_yiddish" 161 221 basechar 0
LayerCount: 2
Fore
SplineSet
243 333 m 1
 92 276 l 1
 161 600 l 1
 300 600 l 1
 243 333 l 1
EndSplineSet
Validated: 3073
EndChar

StartChar: finalkafhebrew
Encoding: 1498 1498 619
Width: 590
Flags: HMW
AnchorPoint: "heb-dagesh" 246 306 basechar 0
AnchorPoint: "heb-vowel-left" 191 600 basechar 0
AnchorPoint: "heb-point-abv" 360 600 basechar 0
AnchorPoint: "heb-vowel-low" 220 0 basechar 0
LayerCount: 2
Fore
SplineSet
347 600 m 2
 527 580 562 477 562 409 c 0
 562 396 561 384 559 374 c 2
 437 -200 l 1
 298 -200 l 1
 419 365 l 2
 417 446 417 464 311 485 c 2
 125 485 l 1
 150 600 l 1
 347 600 l 2
EndSplineSet
Validated: 3073
EndChar

StartChar: kafhebrew
Encoding: 1499 1499 620
Width: 595
Flags: HMW
AnchorPoint: "heb-dagesh" 262 306 basechar 0
AnchorPoint: "heb-vowel-left" 213 600 basechar 0
AnchorPoint: "heb-point-abv" 360 600 basechar 0
AnchorPoint: "heb-vowel-low" 286 0 basechar 0
LayerCount: 2
Fore
SplineSet
361 600 m 2
 542 579 576 477 576 409 c 0
 576 396 575 384 573 374 c 2
 542 226 l 2
 498 108 428 21 233 0 c 2
 36 0 l 1
 61 115 l 1
 246 115 l 2
 340 132 363 139 405 235 c 2
 433 365 l 2
 430 446 431 464 325 485 c 2
 139 485 l 1
 164 600 l 1
 361 600 l 2
EndSplineSet
Validated: 3073
EndChar

StartChar: lamedhebrew
Encoding: 1500 1500 621
Width: 667
Flags: HMW
AnchorPoint: "heb-dagesh" 260 306 basechar 0
AnchorPoint: "heb-vowel-left" 85 600 basechar 0
AnchorPoint: "heb-point-abv" 420 600 basechar 0
AnchorPoint: "heb-vowel-low" 224 0 basechar 0
LayerCount: 2
Fore
SplineSet
391 101 m 2
 370 0 l 1
 231 0 l 1
 254 107 l 2
 264.368 155.233 275 188 317 233 c 0
 379 299 443 312 465 337 c 0
 490 365 496 379 505 419 c 2
 519 485 l 1
 125 485 l 1
 182 750 l 1
 321 750 l 1
 289 600 l 1
 683 600 l 1
 643 412 l 2
 586 224 470 219 432 183 c 0
 405 157 400 141 391 101 c 2
EndSplineSet
Validated: 3073
EndChar

StartChar: finalmemhebrew
Encoding: 1501 1501 622
Width: 683
Flags: HMW
AnchorPoint: "heb-dagesh" 379 306 basechar 0
AnchorPoint: "heb-vowel-left" 223 600 basechar 0
AnchorPoint: "heb-point-abv" 420 600 basechar 0
AnchorPoint: "heb-vowel-low" 305 0 basechar 0
LayerCount: 2
Fore
SplineSet
434 600 m 2
 567 600 656 517 656 411 c 0
 656 397 654 383 651 369 c 2
 573 0 l 1
 40 0 l 1
 167 600 l 1
 434 600 l 2
514 389 m 0
 514 448 470 483 410 485 c 2
 282 485 l 1
 203 115 l 1
 458 115 l 1
 512 369 l 2
 513 376 514 382 514 389 c 0
EndSplineSet
Validated: 3073
EndChar

StartChar: memhebrew
Encoding: 1502 1502 623
Width: 694
Flags: HMW
AnchorPoint: "heb-dagesh" 407 306 basechar 0
AnchorPoint: "heb-vowel-left" 212 600 basechar 0
AnchorPoint: "heb-point-abv" 430 600 basechar 0
AnchorPoint: "heb-vowel-low" 350 0 basechar 0
LayerCount: 2
Fore
SplineSet
536 397 m 0
 536 416 520 485 430 485 c 2
 361 485 l 1
 186 0 l 1
 46 0 l 1
 221 485 l 1
 130 485 l 1
 155 600 l 1
 454 600 l 2
 588 600 677 519 677 419 c 0
 677 400 674 383 671 369 c 2
 593 0 l 1
 323 0 l 1
 347 115 l 1
 478 115 l 1
 532 369 l 2
 535 380 536 389 536 397 c 0
EndSplineSet
Validated: 3073
EndChar

StartChar: finalnunhebrew
Encoding: 1503 1503 624
Width: 297
Flags: HMW
AnchorPoint: "heb-vowel-low" 0 0 basechar 0
AnchorPoint: "heb-dagesh" 49 306 basechar 0
AnchorPoint: "heb-point-abv" 228 600 basechar 0
LayerCount: 2
Fore
SplineSet
-4 -200 m 1
 167 600 l 1
 306 600 l 1
 135 -200 l 1
 -4 -200 l 1
EndSplineSet
Validated: 3073
EndChar

StartChar: nunhebrew
Encoding: 1504 1504 625
Width: 429
Flags: HMW
AnchorPoint: "heb-dagesh" 151 306 basechar 0
AnchorPoint: "heb-vowel-left" 207 600 basechar 0
AnchorPoint: "heb-point-abv" 320 600 basechar 0
AnchorPoint: "heb-vowel-low" 181 0 basechar 0
LayerCount: 2
Fore
SplineSet
172 600 m 1
 299 600 402 528 402 412 c 0
 402 400 401 388 398 374 c 2
 319 0 l 1
 33 0 l 1
 57 115 l 1
 204 115 l 1
 258 365 l 2
 257 417 255 440 228 461 c 0
 207 475 176 485 147 485 c 1
 172 600 l 1
EndSplineSet
Validated: 3073
EndChar

StartChar: samekhhebrew
Encoding: 1505 1505 626
Width: 670
Flags: HMW
AnchorPoint: "heb-dagesh" 364 306 basechar 0
AnchorPoint: "heb-vowel-left" 214 600 basechar 0
AnchorPoint: "heb-point-abv" 450 600 basechar 0
AnchorPoint: "heb-vowel-low" 315 0 basechar 0
LayerCount: 2
Fore
SplineSet
436 600 m 2
 612 591 650 474 650 403 c 0
 650 392 650 382 648 374 c 2
 617 226 l 2
 579.305 46.0332 464 0 306 0 c 0
 181 0 80 74 80 189 c 0
 80 200 81 213 84 226 c 2
 163 600 l 1
 436 600 l 2
508 365 m 2
 505 446 506 464 400 485 c 2
 278 485 l 1
 225 235 l 1
 225 223 l 2
 225 149 268 117 327 115 c 0
 423 115 455 179 480 235 c 2
 508 365 l 2
EndSplineSet
Validated: 3073
EndChar

StartChar: ayinhebrew
Encoding: 1506 1506 627
Width: 653
Flags: HMW
AnchorPoint: "heb-dagesh" 410 340 basechar 0
AnchorPoint: "heb-vowel-left" 260 600 basechar 0
AnchorPoint: "heb-point-abv" 445 600 basechar 0
AnchorPoint: "heb-vowel-low" 370 0 basechar 0
LayerCount: 2
Fore
SplineSet
335 136 m 1
 424 169 427 195 456 262 c 2
 528 600 l 1
 667 600 l 1
 593 252 l 2
 545 132 515 83 341 21 c 2
 9 -55 l 1
 34 65 l 1
 194 101 l 1
 187 600 l 1
 328 600 l 1
 335 136 l 1
EndSplineSet
Validated: 3073
EndChar

StartChar: finalpehebrew
Encoding: 1507 1507 628
Width: 661
Flags: HMW
AnchorPoint: "heb-dagesh" 380 415 basechar 0
AnchorPoint: "heb-vowel-left" 203 600 basechar 0
AnchorPoint: "heb-point-abv" 370 600 basechar 0
AnchorPoint: "heb-vowel-low" 278 0 basechar 0
LayerCount: 2
Fore
SplineSet
415 601 m 2
 550 597 634 518 634 424 c 0
 634 406 632 389 629 373 c 2
 507 -200 l 1
 368 -200 l 1
 489 367 l 2
 491.602 379.194 492 390.333 492 404 c 0
 492 432 471 458 439 476 c 0
 421 486 322 486 274 486 c 1
 258 407 l 2
 255 396 254 386 254 379 c 0
 254 360 267 356 301 356 c 2
 355 356 l 1
 330 241 l 1
 265 241 l 2
 180 241 112 278 112 358 c 0
 112 373 115 387 117 398 c 2
 160 601 l 1
 415 601 l 2
EndSplineSet
Validated: 3073
EndChar

StartChar: pehebrew
Encoding: 1508 1508 629
Width: 660
Flags: HMW
AnchorPoint: "heb-dagesh" 400 410 basechar 0
AnchorPoint: "heb-vowel-left" 234 600 basechar 0
AnchorPoint: "heb-point-abv" 410 600 basechar 0
AnchorPoint: "heb-vowel-low" 338 0 basechar 0
LayerCount: 2
Fore
SplineSet
422 600 m 2
 561 596 641 513 641 421 c 0
 641 404 640 388 636 372 c 2
 605 228 l 2
 548 50 419.402 0 295 0 c 2
 39 0 l 1
 64 115 l 1
 311 115 l 2
 367.32 115 449 143 468 234 c 2
 496 366 l 2
 499.758 383.717 500 394 500 402 c 0
 500 417 491 449 445 475 c 0
 428 485 329 485 281 485 c 1
 264 406 l 2
 262 395 261 386 261 379 c 0
 261 358 273 355 308 355 c 2
 361 355 l 1
 337 240 l 1
 272 240 l 2
 210.478 240 118 271 118 358 c 0
 118 373 121 386 123 397 c 2
 167 600 l 1
 422 600 l 2
EndSplineSet
Validated: 3073
EndChar

StartChar: finaltsadihebrew
Encoding: 1509 1509 630
Width: 616
Flags: HMW
AnchorPoint: "heb-vowel-low" 80 0 basechar 0
AnchorPoint: "heb-dagesh" 139 306 basechar 0
AnchorPoint: "heb-vowel-left" 180 600 basechar 0
AnchorPoint: "heb-point-abv" 387 600 basechar 0
LayerCount: 2
Fore
SplineSet
374 362 m 1
 408 365 437 384 459 444 c 2
 493 600 l 1
 632 600 l 1
 596 433 l 2
 579 389 523 270 380 249 c 1
 284 -200 l 1
 145 -200 l 1
 249 286 l 1
 114 600 l 1
 272 600 l 1
 374 362 l 1
EndSplineSet
Validated: 3073
EndChar

StartChar: tsadihebrew
Encoding: 1510 1510 631
Width: 671
Flags: HMW
AnchorPoint: "heb-dagesh" 177 306 basechar 0
AnchorPoint: "heb-vowel-left" 227 600 basechar 0
AnchorPoint: "heb-point-abv" 430 600 basechar 0
AnchorPoint: "heb-vowel-low" 310 0 basechar 0
LayerCount: 2
Fore
SplineSet
410 362 m 1
 444 365 462 383 494 444 c 2
 528 600 l 1
 667 600 l 1
 631 433 l 2
 598 349 534 281 455 258 c 1
 566 0 l 1
 46 0 l 1
 70 115 l 1
 359 115 l 1
 148 600 l 1
 306 600 l 1
 410 362 l 1
EndSplineSet
Validated: 3073
EndChar

StartChar: qofhebrew
Encoding: 1511 1511 632
Width: 672
Flags: HMW
AnchorPoint: "heb-dagesh" 362 306 basechar 0
AnchorPoint: "heb-vowel-left" 231 600 basechar 0
AnchorPoint: "heb-point-abv" 430 600 basechar 0
AnchorPoint: "heb-vowel-low" 386 0 basechar 0
LayerCount: 2
Fore
SplineSet
305 49 m 1
 330 165 l 1
 389.764 165 467.174 219.164 481 285 c 2
 523 485 l 1
 143 485 l 1
 167 600 l 1
 687 600 l 1
 618 276 l 2
 584.355 118.013 459 54 305 49 c 1
258 371 m 1
 136 -200 l 1
 -3 -200 l 1
 119 371 l 1
 258 371 l 1
EndSplineSet
Validated: 3073
EndChar

StartChar: reshhebrew
Encoding: 1512 1512 633
Width: 600
Flags: HMW
AnchorPoint: "heb-dagesh" 252 306 basechar 0
AnchorPoint: "heb-vowel-left" 198 600 basechar 0
AnchorPoint: "heb-point-abv" 380 600 basechar 0
AnchorPoint: "heb-vowel-low" 200 0 basechar 0
LayerCount: 2
Fore
SplineSet
357 600 m 2
 450 600 570 562 570 406 c 0
 570 396 570 374 569 371 c 2
 490 0 l 1
 351 0 l 1
 429 365 l 2
 431 375 432 384 432 393 c 0
 432 443 401 485 321 485 c 2
 126 485 l 1
 150 600 l 1
 357 600 l 2
EndSplineSet
Validated: 3073
EndChar

StartChar: shinhebrew
Encoding: 1513 1513 634
Width: 840
Flags: HMW
AnchorPoint: "heb-dagesh" 581 306 basechar 0
AnchorPoint: "heb-vowel-left" 229 600 basechar 0
AnchorPoint: "heb-point-abv" 510 600 basechar 0
AnchorPoint: "heb-vowel-low" 389 0 basechar 0
LayerCount: 2
Fore
SplineSet
342 0 m 2
 127 0 87 175 87 218 c 0
 87 234 89 249 92 265 c 2
 163 600 l 1
 302 600 l 1
 244 323 l 1
 312 323 l 2
 360 323 388 357 394 387 c 2
 439 600 l 1
 578 600 l 1
 533 387 l 2
 523 340 454 208 298 208 c 2
 234 208 l 1
 246 178 278 115 366 115 c 2
 445 115 l 2
 532 115 630 194 643 265 c 2
 715 600 l 1
 854 600 l 1
 782 265 l 2
 764.038 181.429 618.744 0 421 0 c 2
 342 0 l 2
EndSplineSet
Validated: 3073
EndChar

StartChar: tavhebrew
Encoding: 1514 1514 635
Width: 756
Flags: HMW
AnchorPoint: "heb-dagesh" 473 306 basechar 0
AnchorPoint: "heb-vowel-left" 270 600 basechar 0
AnchorPoint: "heb-point-abv" 490 600 basechar 0
AnchorPoint: "heb-vowel-low" 389 0 basechar 0
LayerCount: 2
Fore
SplineSet
585 366 m 2
 582 455 573 485 477 485 c 2
 392 485 l 1
 337 229 l 1
 312 146 231 0 48 0 c 0
 37 0 23 5 23 5 c 1
 48 121 l 1
 48 121 64 115 76 115 c 0
 118 115 148 136 165 153 c 1
 183 174 189 185 199 233 c 0
 253 485 l 1
 187 485 l 1
 211 600 l 1
 513 600 l 2
 657 583 730 507 730 413 c 0
 730 400 729 387 726 374 c 2
 646 0 l 1
 507 0 l 1
 585 366 l 2
EndSplineSet
Validated: 3073
EndChar

StartChar: vavvavhebrew
Encoding: 1520 1520 636
Width: 554
Flags: HMW
AnchorPoint: "heb-vowel-left" 250 600 basechar 0
AnchorPoint: "heb-point-abv" 358 600 basechar 0
AnchorPoint: "heb-vowel-low" 4 0 basechar 0
LayerCount: 2
Fore
SplineSet
296 0 m 1
 424 600 l 1
 563 600 l 1
 435 0 l 1
 296 0 l 1
39 0 m 1
 167 600 l 1
 306 600 l 1
 178 0 l 1
 39 0 l 1
EndSplineSet
Validated: 3073
EndChar

StartChar: vavyodhebrew
Encoding: 1521 1521 637
Width: 550
Flags: HMW
AnchorPoint: "heb-vowel-left" 251 600 basechar 0
AnchorPoint: "heb-point-abv" 360 600 basechar 0
AnchorPoint: "heb-vowel-low" 103 0 basechar 0
LayerCount: 2
Fore
SplineSet
292 0 m 1
 420 600 l 1
 559 600 l 1
 431 0 l 1
 292 0 l 1
243 333 m 1
 92 276 l 1
 161 600 l 1
 300 600 l 1
 243 333 l 1
EndSplineSet
Validated: 3073
EndChar

StartChar: yodyodhebrew
Encoding: 1522 1522 638
Width: 542
Flags: HMW
AnchorPoint: "heb-vowel-left" 226 600 basechar 0
AnchorPoint: "heb-point-abv" 353 600 basechar 0
AnchorPoint: "heb-vowel-low" 249 0 basechar 0
AnchorPoint: "vowel_below_yiddish" 276 221 basechar 0
LayerCount: 2
Fore
SplineSet
501 333 m 1
 350 276 l 1
 419 600 l 1
 558 600 l 1
 501 333 l 1
243 333 m 1
 92 276 l 1
 161 600 l 1
 300 600 l 1
 243 333 l 1
EndSplineSet
Validated: 3073
EndChar

StartChar: gereshhebrew
Encoding: 1523 1523 639
Width: 238
Flags: HMW
LayerCount: 2
Fore
SplineSet
303 729 m 1
 275 599 l 1
 206 470 l 1
 150 470 l 1
 137 599 l 1
 165 729 l 1
 303 729 l 1
EndSplineSet
Validated: 3073
EndChar

StartChar: gershayimhebrew
Encoding: 1524 1524 640
Width: 474
Flags: HMW
LayerCount: 2
Fore
SplineSet
303 729 m 1
 275 599 l 1
 206 470 l 1
 150 470 l 1
 137 599 l 1
 165 729 l 1
 303 729 l 1
539 729 m 1
 511 599 l 1
 442 470 l 1
 386 470 l 1
 373 599 l 1
 401 729 l 1
 539 729 l 1
EndSplineSet
Validated: 3073
EndChar

StartChar: psili
Encoding: 8127 8127 817
Width: 150
Flags: HMW
LayerCount: 2
Fore
SplineSet
156 753 m 1
 286 753 l 1
 270 679 l 2
 263 644 238 576 114 563 c 1
 124 610 l 1
 189 622 200 658 203 673 c 1
 139 673 l 1
 156 753 l 1
EndSplineSet
Validated: 3073
EndChar

StartChar: dialytikavaria
Encoding: 8173 8173 856
Width: 353
Flags: HMW
LayerCount: 2
Fore
SplineSet
347 796 m 1
 381 604 l 1
 311 604 l 1
 221 796 l 1
 347 796 l 1
233 700 m 1
 212 604 l 1
 124 604 l 1
 145 700 l 1
 233 700 l 1
510 700 m 1
 489 604 l 1
 401 604 l 1
 422 700 l 1
 510 700 l 1
EndSplineSet
Validated: 3073
EndChar

StartChar: dasia
Encoding: 8190 8190 867
Width: 278
Flags: HMW
LayerCount: 2
Fore
SplineSet
341 753 m 1
 324 673 l 1
 263 673 l 1
 262 669 261 662 261 655 c 0
 261 636 270 613 313 610 c 1
 303 563 l 1
 214 565 192 609 192 650 c 0
 192 660 193 670 195 679 c 2
 211 753 l 1
 341 753 l 1
EndSplineSet
Validated: 3073
EndChar

StartChar: dieresistonos
Encoding: 901 901 869
Width: 446
Flags: HMW
LayerCount: 2
Fore
SplineSet
485 782 m 1
 340 590 l 1
 270 590 l 1
 359 782 l 1
 485 782 l 1
257 686 m 1
 236 590 l 1
 148 590 l 1
 169 686 l 1
 257 686 l 1
534 686 m 1
 513 590 l 1
 425 590 l 1
 446 686 l 1
 534 686 l 1
EndSplineSet
Validated: 3073
EndChar

StartChar: anoteleia
Encoding: 903 903 871
Width: 333
Flags: HMW
LayerCount: 2
Fore
SplineSet
374 520 m 1
 343 374 l 1
 193 374 l 1
 224 520 l 1
 374 520 l 1
EndSplineSet
Validated: 3073
EndChar

StartChar: Gamma
Encoding: 915 915 881
Width: 682
Flags: HMW
AnchorPoint: "above" 489 723 basechar 0
LayerCount: 2
Fore
SplineSet
715 604 m 1
 337 604 l 1
 209 0 l 1
 59 0 l 1
 214 729 l 1
 742 729 l 1
 715 604 l 1
EndSplineSet
Validated: 3073
Substitution2: "'c2sc' caps to small caps in Greek-1" sc.gamma
EndChar

StartChar: Delta
Encoding: 916 916 882
Width: 784
Flags: HMW
AnchorPoint: "above" 549 723 basechar 0
LayerCount: 2
Fore
SplineSet
746 0 m 1
 1 0 l 1
 488 741 l 1
 623 741 l 1
 746 0 l 1
512 539 m 1
 490 499 251 125 251 125 c 1
 567 125 l 1
 567 125 514 521 512 539 c 1
EndSplineSet
Validated: 3073
Substitution2: "'c2sc' caps to small caps in Greek-1" sc.delta
EndChar

StartChar: Theta
Encoding: 920 920 886
Width: 850
Flags: HMW
AnchorPoint: "above" 499 723 basechar 0
LayerCount: 2
Fore
SplineSet
498 741 m 0
 681 741 788 635 788 455 c 0
 788 255 646 -23 355 -23 c 0
 177 -23 66 86 66 261 c 0
 66 454 208 741 498 741 c 0
379 105 m 0
 598 105 639 371 639 437 c 0
 639 547 579 613 479 613 c 0
 259 613 215 351 215 282 c 0
 215 173 278 105 379 105 c 0
564 303 m 1
 268 303 l 1
 301 437 l 1
 597 437 l 1
 564 303 l 1
EndSplineSet
Validated: 3073
Substitution2: "'c2sc' caps to small caps in Greek-1" sc.theta
EndChar

StartChar: endash
Encoding: 8211 8211 888
Width: 500
Flags: HMW
LayerCount: 2
Fore
SplineSet
541 342 m 1
 512 207 l 1
 70 207 l 1
 99 342 l 1
 541 342 l 1
EndSplineSet
Validated: 3073
EndChar

StartChar: emdash
Encoding: 8212 8212 889
Width: 1000
Flags: HMW
LayerCount: 2
Fore
SplineSet
1031 342 m 1
 1002 207 l 1
 70 207 l 1
 99 342 l 1
 1031 342 l 1
EndSplineSet
Validated: 3073
EndChar

StartChar: quoteleft
Encoding: 8216 8216 890
Width: 250
Flags: HMW
LayerCount: 2
Fore
SplineSet
250 469 m 1
 115 469 l 1
 141 592 l 2
 165 704 250 726 305 729 c 1
 296 683 l 1
 216 669 203 624 197 594 c 1
 277 594 l 1
 250 469 l 1
EndSplineSet
Validated: 3073
EndChar

StartChar: quoteright
Encoding: 8217 8217 891
Width: 250
Flags: HMW
LayerCount: 2
Fore
SplineSet
170 729 m 1
 305 729 l 1
 279 606 l 2
 255 494 170 472 115 469 c 1
 124 515 l 1
 204 529 217 574 223 604 c 1
 143 604 l 1
 170 729 l 1
EndSplineSet
Validated: 3073
EndChar

StartChar: quotesinglbase
Encoding: 8218 8218 892
Width: 250
Flags: HMW
LayerCount: 2
Fore
SplineSet
72 125 m 1
 207 125 l 1
 181 2 l 2
 157 -110 72 -132 17 -135 c 1
 26 -89 l 1
 106 -75 119 -30 125 0 c 1
 45 0 l 1
 72 125 l 1
EndSplineSet
Validated: 3073
EndChar

StartChar: dagger
Encoding: 8224 8224 896
Width: 556
Flags: HMW
LayerCount: 2
Fore
SplineSet
626 485 m 1
 601 369 l 1
 422 369 l 1
 303 -194 l 1
 169 -194 l 1
 288 369 l 1
 109 369 l 1
 134 485 l 1
 313 485 l 1
 361 709 l 1
 494 709 l 1
 447 485 l 1
 626 485 l 1
EndSplineSet
Validated: 3073
EndChar

StartChar: daggerdbl
Encoding: 8225 8225 897
Width: 556
Flags: HMW
LayerCount: 2
Fore
SplineSet
623 485 m 1
 598 369 l 1
 420 369 l 1
 372 146 l 1
 551 146 l 1
 526 30 l 1
 348 30 l 1
 300 -194 l 1
 166 -194 l 1
 214 30 l 1
 35 30 l 1
 60 146 l 1
 238 146 l 1
 286 369 l 1
 107 369 l 1
 132 485 l 1
 310 485 l 1
 358 709 l 1
 492 709 l 1
 444 485 l 1
 623 485 l 1
EndSplineSet
Validated: 3073
EndChar

StartChar: bullet
Encoding: 8226 8226 898
Width: 500
Flags: HMW
LayerCount: 2
Fore
SplineSet
298.8 438 m 0
 391.2 438 462 366 462 273.6 c 0
 462 187.2 388.8 114 300 114 c 0
 210 114 138 186 138 277.2 c 0
 138 366 208.8 438 298.8 438 c 0
EndSplineSet
Validated: 3073
EndChar

StartChar: perthousand
Encoding: 8240 8240 900
Width: 1000
Flags: HMW
LayerCount: 2
Fore
SplineSet
654 738 m 1
 721 738 l 1
 138 -21 l 1
 72 -21 l 1
 654 738 l 1
316 739 m 0
 388 739 440 690 440 622 c 0
 440 528 353 443 257 443 c 0
 187 443 134 493 134 560 c 0
 134 653 222 739 316 739 c 0
299 661 m 0
 255 661 214 620 214 575 c 0
 214 545 240 521 275 521 c 0
 319 521 360 561 360 604 c 0
 360 637 334 661 299 661 c 0
528 276 m 0
 600 276 652 227 652 159 c 0
 652 66 565 -20 469 -20 c 0
 399 -20 347 30 347 97 c 0
 347 190 434 276 528 276 c 0
512 198 m 0
 468 198 427 157 427 112 c 0
 427 82 453 58 487 58 c 0
 531 58 572 98 572 141 c 0
 572 174 546 198 512 198 c 0
897 276 m 0
 969 276 1021 227 1021 159 c 0
 1021 66 934 -20 838 -20 c 0
 768 -20 716 30 716 97 c 0
 716 190 803 276 897 276 c 0
881 198 m 0
 837 198 796 157 796 112 c 0
 796 82 822 58 856 58 c 0
 900 58 941 98 941 141 c 0
 941 174 915 198 881 198 c 0
EndSplineSet
Validated: 3073
EndChar

StartChar: guilsinglleft
Encoding: 8249 8249 901
Width: 333
Flags: HMW
LayerCount: 2
Fore
SplineSet
128 218 m 1
 152 332 l 1
 351 481 l 1
 326 364 l 1
 206 275 l 1
 288 186 l 1
 264 72 l 1
 128 218 l 1
EndSplineSet
Validated: 3073
EndChar

StartChar: guilsinglright
Encoding: 8250 8250 902
Width: 333
Flags: HMW
LayerCount: 2
Fore
SplineSet
319 335 m 1
 295 220 l 1
 96 72 l 1
 121 189 l 1
 241 278 l 1
 159 367 l 1
 183 481 l 1
 319 335 l 1
EndSplineSet
Validated: 3073
EndChar

StartChar: fraction
Encoding: 8260 8260 903
Width: 167
Flags: HMW
LayerCount: 2
Fore
SplineSet
404 715 m 1
 489 715 l 1
 -92 -20 l 1
 -177 -20 l 1
 404 715 l 1
EndSplineSet
Validated: 3073
EndChar

StartChar: sheqel
Encoding: 8362 8362 907
Width: 1049
Flags: HMW
LayerCount: 2
Fore
SplineSet
617 115 m 2
 687 121 739 141 769 231 c 2
 848 600 l 1
 987 600 l 1
 908 231 l 2
 897 180 861 84 722 25 c 0
 680 6 637 0 602 0 c 0
 593 0 l 2
 216 0 l 1
 296 378 l 1
 435 378 l 1
 379 115 l 1
 617 115 l 2
547 600 m 2
 641 600 704 550 704 476 c 0
 704 462 702 449 700 438 c 2
 653 218 l 1
 514 218 l 1
 561 438 l 2
 563 445 563 451 563 456 c 0
 563 478 539 485 523 485 c 2
 202 485 l 1
 99 0 l 1
 -40 0 l 1
 88 600 l 1
 547 600 l 2
EndSplineSet
Validated: 3073
EndChar

StartChar: Euro
Encoding: 8364 8364 908
Width: 640
Flags: HMW
LayerCount: 2
Fore
SplineSet
172 318 m 1
 173 339 181 373 185 386 c 1
 118 386 l 1
 157 454 l 1
 205 454 l 1
 278 625 401 739 595 739 c 0
 660 739 698 736 751 693 c 1
 680 569 l 1
 644 611 606 613 566 613 c 0
 474 613 402 546 358 454 c 1
 615 454 l 1
 575 386 l 1
 336 386 l 1
 325 353 321 332 321 318 c 1
 536 318 l 1
 497 250 l 1
 317 250 l 1
 324 159 369 103 451 103 c 0
 491 103 532 105 609 160 c 1
 577 11 l 1
 492 -23 457 -23 418 -23 c 0
 326 -23 166 21 166 241 c 0
 166 244 166 247 166 250 c 1
 89 250 l 1
 128 318 l 1
 172 318 l 1
EndSplineSet
Validated: 3073
EndChar

StartChar: trademark
Encoding: 8482 8482 909
Width: 1000
Flags: HMW
LayerCount: 2
Fore
SplineSet
445 649 m 1
 365 273 l 1
 270 273 l 1
 350 649 l 1
 213 649 l 1
 230 729 l 1
 595 729 l 1
 578 649 l 1
 445 649 l 1
816 273 m 1
 722 273 l 1
 712 622 l 1
 637 273 l 1
 546 273 l 1
 643 729 l 1
 781 729 l 1
 792 378 l 1
 950 729 l 1
 1087 729 l 1
 990 273 l 1
 899 273 l 1
 973 622 l 1
 816 273 l 1
EndSplineSet
Validated: 3073
EndChar

StartChar: partialdiff
Encoding: 8706 8706 910
Width: 608
Flags: HMW
LayerCount: 2
Fore
SplineSet
442 709 m 0
 522 709 653 682 653 477 c 0
 653 433 646 382 633 321 c 0
 590 125 492 -23 290 -23 c 0
 159 -23 83 55 83 166 c 0
 83 185 85 205 89 225 c 0
 118 359 236 454 381 454 c 0
 448 454 498 434 532 396 c 1
 537 426 539 452 539 476 c 0
 539 541 518 605 430 605 c 0
 369 605 318 569 289 506 c 2
 286 498 l 1
 164 498 l 1
 170 515 l 2
 214 636 318 709 442 709 c 0
375 350 m 0
 290 350 224 299 203 213 c 0
 200 201 199 190 199 179 c 0
 199 121 239 81 307 81 c 0
 388 81 466 140 486 223 c 0
 489 235 490 245 490 255 c 0
 490 314 447 350 375 350 c 0
EndSplineSet
Validated: 3073
EndChar

StartChar: Delta.math
Encoding: 8710 8710 911
Width: 729
Flags: HMW
LayerCount: 2
Fore
SplineSet
8 0 m 1
 444 729 l 1
 590 729 l 1
 721 0 l 1
 8 0 l 1
230 125 m 1
 549 125 l 1
 483 564 l 1
 230 125 l 1
EndSplineSet
Validated: 3073
EndChar

StartChar: summation
Encoding: 8721 8721 912
Width: 806
VWidth: 2048
Flags: HMW
LayerCount: 2
Fore
SplineSet
201 730 m 1
 876 730 l 1
 850 608 l 1
 371 608 l 1
 599 314 l 1
 234 21 l 1
 738 21 l 1
 713 -100 l 1
 10 -100 l 1
 29 -8 l 1
 424 312 l 1
 179 627 l 1
 201 730 l 1
EndSplineSet
Validated: 3073
EndChar

StartChar: minus
Encoding: 8722 8722 913
Width: 584
Flags: HMW
LayerCount: 2
Fore
SplineSet
596 292 m 1
 571 172 l 1
 87 172 l 1
 112 292 l 1
 596 292 l 1
EndSplineSet
Validated: 3073
Substitution2: "'numr' numerators-1" minussuperior
Substitution2: "'dnom' denominators-1" minusinferior
Substitution2: "'subs' subscript-numeric" minusinferior
Substitution2: "'sups' superscript-numeric" minussuperior
EndChar

StartChar: radical
Encoding: 8730 8730 914
Width: 637
Flags: HMW
LayerCount: 2
Fore
SplineSet
754 900 m 1
 826 899 l 1
 230 -75 l 1
 192 430 l 1
 75 382 l 1
 69 454 l 1
 279 538 l 1
 303 178 l 1
 754 900 l 1
EndSplineSet
Validated: 3073
EndChar

StartChar: notequal
Encoding: 8800 8800 915
Width: 584
Flags: HMW
LayerCount: 2
Fore
SplineSet
129 52 m 1
 61 52 l 1
 86 172 l 1
 220 172 l 1
 313 292 l 1
 112 292 l 1
 137 412 l 1
 405 412 l 1
 507 544 l 1
 602 481 l 1
 549 412 l 1
 622 412 l 1
 597 292 l 1
 457 292 l 1
 364 172 l 1
 571 172 l 1
 546 52 l 1
 273 52 l 1
 176 -74 l 1
 81 -11 l 1
 129 52 l 1
EndSplineSet
Validated: 3073
EndChar

StartChar: lessequal
Encoding: 8804 8804 916
Width: 584
Flags: HMW
LayerCount: 2
Fore
SplineSet
546 104 m 1
 524 0 l 1
 35 0 l 1
 57 104 l 1
 546 104 l 1
657 624 m 1
 629 495 l 1
 290 382 l 1
 582 271 l 1
 554 140 l 1
 104 322 l 1
 129 443 l 1
 657 624 l 1
EndSplineSet
Validated: 3073
EndChar

StartChar: greaterequal
Encoding: 8805 8805 917
Width: 584
Flags: HMW
LayerCount: 2
Fore
SplineSet
555 104 m 1
 533 0 l 1
 44 0 l 1
 66 104 l 1
 555 104 l 1
74 140 m 1
 102 269 l 1
 441 382 l 1
 149 493 l 1
 177 624 l 1
 627 442 l 1
 601 321 l 1
 74 140 l 1
EndSplineSet
Validated: 3073
EndChar

StartChar: lozenge
Encoding: 9674 9674 918
Width: 541
Flags: HMW
LayerCount: 2
Fore
SplineSet
344 748 m 1
 551 363 l 1
 344 -22 l 1
 257 -22 l 1
 50 363 l 1
 257 748 l 1
 344 748 l 1
142 376 m 1
 302 92 l 1
 460 376 l 1
 302 660 l 1
 142 376 l 1
EndSplineSet
Validated: 3073
EndChar

StartChar: uniFB1E
Encoding: 64286 64286 920
Width: 0
Flags: HMW
AnchorPoint: "heb-point-abv" 378 600 mark 0
LayerCount: 2
Fore
SplineSet
404 750 m 0
 444 750 462 779 469 803 c 1
 569 803 l 1
 550.5 714.7 481.938 650 383 650 c 0
 302.5 650 263 706.5 263 803 c 1
 363 803 l 1
 363 778.5 369 750 404 750 c 0
EndSplineSet
Validated: 3073
EndChar

StartChar: ayinaltonehebrew
Encoding: 64288 64288 922
Width: 653
Flags: HMW
AnchorPoint: "heb-dagesh" 390 340 basechar 0
AnchorPoint: "heb-vowel-left" 227 600 basechar 0
AnchorPoint: "heb-point-abv" 400 600 basechar 0
AnchorPoint: "heb-vowel-low" 350 0 basechar 0
LayerCount: 2
Fore
SplineSet
315 118 m 1
 341 122 409 153 429 231 c 2
 508 600 l 1
 647 600 l 1
 568 231 l 2
 535 56 339 0 276 0 c 2
 26 0 l 1
 51 115 l 1
 173 115 l 1
 167 600 l 1
 308 600 l 1
 315 118 l 1
EndSplineSet
Validated: 3073
EndChar

StartChar: uniFB21
Encoding: 64289 64289 923
Width: 964
Flags: HMW
AnchorPoint: "heb-dagesh" 410 -4 basechar 0
AnchorPoint: "heb-vowel-left" 237 600 basechar 0
AnchorPoint: "heb-point-abv" 560 600 basechar 0
AnchorPoint: "heb-vowel-low" 420 0 basechar 0
LayerCount: 2
Fore
SplineSet
354 337 m 1
 285 287 223 261 199 148 c 2
 168 0 l 1
 29 0 l 1
 62 158 l 2
 109 275 162 350 282 421 c 1
 129 600 l 1
 324 600 l 1
 618 258 l 1
 702 324 749 365 766 444 c 2
 800 600 l 1
 939 600 l 1
 903 433 l 2
 860 325 790 230 683 183 c 1
 840 0 l 1
 640 0 l 1
 354 337 l 1
EndSplineSet
Validated: 3073
EndChar

StartChar: uniFB22
Encoding: 64290 64290 924
Width: 888
Flags: HMW
AnchorPoint: "heb-dagesh" 390 306 basechar 0
AnchorPoint: "heb-vowel-left" 197 600 basechar 0
AnchorPoint: "heb-point-abv" 520 600 basechar 0
AnchorPoint: "heb-vowel-low" 290 0 basechar 0
LayerCount: 2
Fore
SplineSet
637 485 m 1
 106 485 l 1
 130 600 l 1
 883 600 l 1
 859 485 l 1
 776 485 l 1
 673 0 l 1
 534 0 l 1
 637 485 l 1
EndSplineSet
Validated: 3073
EndChar

StartChar: uniFB23
Encoding: 64291 64291 925
Width: 932
Flags: HMW
AnchorPoint: "heb-dagesh" 480 306 basechar 0
AnchorPoint: "heb-vowel-left" 217 600 basechar 0
AnchorPoint: "heb-point-abv" 540 600 basechar 0
AnchorPoint: "heb-vowel-low" 400 0 basechar 0
LayerCount: 2
Fore
SplineSet
669 600 m 2
 845 600 883 485 883 392 c 0
 883 387 882 379 881 374 c 2
 802 0 l 1
 663 0 l 1
 741 365 l 2
 743 374 744 383 744 392 c 0
 744 446 705 485 633 485 c 2
 122 485 l 1
 147 600 l 1
 669 600 l 2
19 0 m 1
 94 349 l 1
 233 349 l 1
 158 0 l 1
 19 0 l 1
EndSplineSet
Validated: 3073
EndChar

StartChar: uniFB24
Encoding: 64292 64292 926
Width: 845
Flags: HMW
AnchorPoint: "heb-dagesh" 420 306 basechar 0
AnchorPoint: "heb-vowel-left" 217 600 basechar 0
AnchorPoint: "heb-point-abv" 520 600 basechar 0
AnchorPoint: "heb-vowel-low" 360 0 basechar 0
LayerCount: 2
Fore
SplineSet
591 600 m 2
 681 600 807 561 807 406 c 0
 807 395 805 382 803 374 c 2
 772 226 l 2
 746 103 642 0 463 0 c 2
 16 0 l 1
 41 115 l 1
 476 115 l 2
 562 115 619 162 635 235 c 2
 663 365 l 2
 665 375 666 385 666 394 c 0
 666 446 632 485 555 485 c 2
 119 485 l 1
 144 600 l 1
 591 600 l 2
EndSplineSet
Validated: 3073
EndChar

StartChar: uniFB25
Encoding: 64293 64293 927
Width: 917
Flags: HMW
AnchorPoint: "heb-dagesh" 340 306 basechar 0
AnchorPoint: "heb-vowel-left" 377 600 basechar 0
AnchorPoint: "heb-point-abv" 540 600 basechar 0
AnchorPoint: "heb-vowel-low" 400 0 basechar 0
LayerCount: 2
Fore
SplineSet
496 101 m 2
 475 0 l 1
 336 0 l 1
 359 107 l 2
 369 156 411 202 457 240 c 0
 577 339 701 324 735 419 c 2
 749 485 l 1
 105 485 l 1
 162 750 l 1
 301 750 l 1
 269 600 l 1
 913 600 l 1
 873 412 l 2
 832 235 518 251 496 101 c 2
EndSplineSet
Validated: 3073
EndChar

StartChar: uniFB26
Encoding: 64294 64294 928
Width: 933
Flags: HMW
AnchorPoint: "heb-dagesh" 470 306 basechar 0
AnchorPoint: "heb-vowel-left" 217 600 basechar 0
AnchorPoint: "heb-point-abv" 540 600 basechar 0
AnchorPoint: "heb-vowel-low" 400 0 basechar 0
LayerCount: 2
Fore
SplineSet
664 600 m 2
 797 600 886 517 886 411 c 0
 886 397 884 383 881 369 c 2
 803 0 l 1
 20 0 l 1
 147 600 l 1
 664 600 l 2
744 389 m 0
 744 448 700 483 640 485 c 2
 262 485 l 1
 183 115 l 1
 688 115 l 1
 742 369 l 2
 743 376 744 382 744 389 c 0
EndSplineSet
Validated: 3073
EndChar

